<?xml version="1.0" encoding="UTF-8"?>
<svg xmlns="http://www.w3.org/2000/svg" width="100" height="100" viewBox="0 0 100 100" fill="none">
  <rect x="0.5" y="0.5" width="99" height="99" rx="16.0289" fill="white"></rect>
  <rect x="0.5" y="0.5" width="99" height="99" rx="16.0289" stroke="#E3EDFD"></rect>
  <path d="M79.7461 22.0001H42.3001C41.9578 22.0114 41.6338 22.1578 41.3992 22.4074C41.1647 22.657 41.0384 22.9893 41.0484 23.3318V29.3642L42.3001 29.6171C43.4359 29.8536 44.4557 30.4738 45.1879 31.3734C45.9204 32.2732 46.3206 33.3975 46.3217 34.5577L46.375 50.5906V50.5904C46.4277 55.2064 44.7996 59.6842 41.794 63.1882C41.5542 63.4678 41.3011 63.7342 41.0482 63.9871L41.0484 76.5976C41.0384 76.9401 41.1644 77.2724 41.399 77.522C41.6338 77.7716 41.9578 77.918 42.3001 77.9293H69.0134V69.9395C69.0165 68.881 69.4384 67.8666 70.1869 67.1181C70.9355 66.3696 71.9499 65.9477 73.0084 65.9446H80.9981V23.3317C81.0081 22.9892 80.8819 22.6569 80.6473 22.4073C80.4127 22.1577 80.0888 22.0112 79.7465 22L79.7461 22.0001ZM70.2913 60.6179H51.7549C51.2791 60.6179 50.8395 60.3641 50.6016 59.952C50.3637 59.54 50.3637 59.0325 50.6016 58.6204C50.8395 58.2083 51.2791 57.9546 51.7549 57.9546H70.2913C70.7671 57.9546 71.2067 58.2083 71.4446 58.6204C71.6823 59.0325 71.6823 59.5399 71.4446 59.952C71.2067 60.3641 70.7671 60.6179 70.2913 60.6179ZM70.2913 52.6281H51.7549C51.2791 52.6281 50.8395 52.3743 50.6016 51.9623C50.3637 51.5502 50.3637 51.0427 50.6016 50.6306C50.8395 50.2185 51.2791 49.9648 51.7549 49.9648H70.2913C70.7671 49.9648 71.2067 50.2185 71.4446 50.6306C71.6823 51.0427 71.6823 51.5502 71.4446 51.9623C71.2067 52.3743 70.7671 52.6281 70.2913 52.6281ZM70.2913 44.6383H51.7549C51.2791 44.6383 50.8395 44.3845 50.6016 43.9725C50.3637 43.5604 50.3637 43.0529 50.6016 42.6408C50.8395 42.2287 51.2791 41.975 51.7549 41.975H70.2913C70.7671 41.975 71.2067 42.2287 71.4446 42.6408C71.6823 43.0529 71.6823 43.5604 71.4446 43.9725C71.2067 44.3846 70.7671 44.6383 70.2913 44.6383ZM70.2913 36.6485H51.7549C51.2791 36.6485 50.8395 36.3947 50.6016 35.9827C50.3637 35.5706 50.3637 35.0631 50.6016 34.651C50.8395 34.2389 51.2791 33.9852 51.7549 33.9852H70.2913C70.7671 33.9852 71.2067 34.239 71.4446 34.651C71.6823 35.0631 71.6823 35.5706 71.4446 35.9827C71.2067 36.3948 70.7671 36.6485 70.2913 36.6485Z" fill="#020A45"></path>
  <path d="M73.0101 68.6078C72.6572 68.6089 72.3191 68.7495 72.0697 68.9991C71.8201 69.2485 71.6795 69.5866 71.6785 69.9395V77.9293L81 68.6078L73.0101 68.6078Z" fill="#020A45"></path>
  <path d="M43.7134 50.6038L43.66 34.5576C43.6648 34.012 43.4803 33.4815 43.138 33.0565C42.7957 32.6317 42.3167 32.3386 41.7826 32.2271L41.0501 32.0807L30.7697 30.0299C30.6203 30.0028 30.4686 29.9895 30.3168 29.9899C30.1651 29.9905 30.0136 30.0038 29.864 30.0299L18.8647 32.2936C18.332 32.4107 17.8557 32.7075 17.5162 33.1344C17.1766 33.5611 16.9943 34.0919 17.0001 34.6374L17.0401 50.6841C17.0668 59.1267 23.1526 65.9448 30.3835 65.9448H30.4235H30.4233C32.5701 65.8791 34.6665 65.2783 36.5224 64.1969C38.378 63.1157 39.9343 61.588 41.0501 59.7526C42.8109 57.028 43.7367 53.8481 43.7134 50.6039L43.7134 50.6038Z" fill="#FFC907"></path>
</svg>
