<?xml version="1.0" encoding="UTF-8"?>
<svg xmlns="http://www.w3.org/2000/svg" width="100" height="100" viewBox="0 0 100 100" fill="none">
  <rect x="0.5" y="0.5" width="99" height="99" rx="16.0289" fill="white"/>
  <rect x="0.5" y="0.5" width="99" height="99" rx="16.0289" stroke="#E3EDFD"/>
  <path d="M75.7772 42.9968H75.3798C74.713 42.995 74.0617 42.7963 73.5075 42.4256C72.9534 42.0549 72.5211 41.5287 72.265 40.9131V40.795C71.9987 40.1538 71.929 39.448 72.0648 38.7672C72.2006 38.0863 72.5357 37.4612 73.0276 36.9713L73.2531 36.7458C73.56 36.4457 73.8039 36.0873 73.9704 35.6917C74.1368 35.296 74.2226 34.8711 74.2226 34.4419C74.2226 34.0127 74.1368 33.5878 73.9704 33.1921C73.8039 32.7965 73.56 32.4381 73.2531 32.138L67.8613 26.8536C67.5612 26.5467 67.2029 26.3029 66.8072 26.1364C66.4116 25.9699 65.9867 25.8842 65.5575 25.8842C65.1282 25.8842 64.7033 25.9699 64.3077 26.1364C63.9121 26.3029 63.5537 26.5467 63.2536 26.8536L63.0281 27.0792C62.5373 27.5698 61.9123 27.9041 61.2318 28.0398C60.5512 28.1755 59.8458 28.1066 59.2044 27.8418C58.5691 27.5755 58.0264 27.1278 57.6443 26.5547C57.2622 25.9815 57.0577 25.3084 57.0563 24.6196V24.2222C57.0563 23.3676 56.7168 22.548 56.1125 21.9438C55.5082 21.3395 54.6887 21 53.8341 21H46.3156C45.4611 21 44.6415 21.3395 44.0372 21.9438C43.4329 22.548 43.0935 23.3676 43.0935 24.2222V24.6196C43.0938 25.2881 42.8961 25.9418 42.5252 26.4981C42.1544 27.0544 41.627 27.4883 41.0098 27.7451L40.8057 27.831C40.1882 28.0868 39.5087 28.154 38.853 28.024C38.1974 27.894 37.5949 27.5727 37.1217 27.1007L36.8424 26.8214C36.5423 26.5145 36.1839 26.2707 35.7883 26.1042C35.3927 25.9377 34.9678 25.8519 34.5386 25.8519C34.1093 25.8519 33.6844 25.9377 33.2888 26.1042C32.8932 26.2707 32.5348 26.5145 32.2347 26.8214L26.9503 32.1058C26.6434 32.4059 26.3996 32.7643 26.2331 33.1599C26.0666 33.5555 25.9808 33.9804 25.9808 34.4097C25.9808 34.8389 26.0666 35.2638 26.2331 35.6594C26.3996 36.0551 26.6434 36.4134 26.9503 36.7135L27.2296 36.9928C27.7016 37.466 28.0229 38.0685 28.1529 38.7242C28.2829 39.3798 28.2157 40.0593 27.9599 40.6768V40.795C27.6937 41.4303 27.246 41.9729 26.6728 42.355C26.0997 42.7371 25.4266 42.9417 24.7377 42.9431H24.2222C23.3676 42.9431 22.548 43.2826 21.9438 43.8868C21.3395 44.4911 21 45.3107 21 46.1653V53.6837C21 54.5383 21.3395 55.3579 21.9438 55.9621C22.548 56.5664 23.3676 56.9059 24.2222 56.9059H24.6196C25.2863 56.9077 25.9377 57.1064 26.4918 57.4771C27.046 57.8478 27.4783 58.374 27.7344 58.9896V59.1077C28.0006 59.7489 28.0703 60.4547 27.9345 61.1355C27.7987 61.8163 27.4636 62.4414 26.9718 62.9314L26.7462 63.1569C26.4393 63.457 26.1955 63.8154 26.029 64.211C25.8625 64.6067 25.7768 65.0316 25.7768 65.4608C25.7768 65.89 25.8625 66.3149 26.029 66.7106C26.1955 67.1062 26.4393 67.4646 26.7462 67.7647C26.9591 68.0108 27.2325 68.197 27.5394 68.3051C27.8464 68.4131 28.1762 68.4391 28.4963 68.3805C28.8163 68.3219 29.1156 68.1807 29.3644 67.971C29.6131 67.7613 29.8028 67.4902 29.9147 67.1847C31.0153 64.3706 32.7415 61.8436 34.9628 59.7951C35.4585 59.3563 35.8031 58.7724 35.9477 58.1264C36.0923 57.4804 36.0296 56.8053 35.7684 56.197C34.7802 53.9593 34.3419 51.5176 34.4902 49.076C34.6127 44.964 36.3636 41.0692 39.3578 38.2482C42.352 35.4272 46.3442 33.9113 50.4562 34.0337C54.5681 34.1562 58.463 35.9072 61.2839 38.9014C64.1049 41.8956 65.6209 45.8877 65.4984 49.9997C65.4997 52.1378 65.0534 54.2525 64.188 56.2078C63.9343 56.819 63.8797 57.4946 64.0321 58.1387C64.1844 58.7827 64.5359 59.3623 65.0365 59.7951C67.2578 61.8436 68.9841 64.3706 70.0846 67.1847C70.1967 67.476 70.3799 67.7345 70.6176 67.9368C70.8552 68.1391 71.1397 68.2787 71.4452 68.3428C71.7506 68.4068 72.0673 68.3934 72.3662 68.3037C72.6651 68.214 72.9368 68.0508 73.1565 67.8291C73.4634 67.529 73.7072 67.1706 73.8737 66.775C74.0402 66.3794 74.1259 65.9545 74.1259 65.5252C74.1259 65.096 74.0402 64.6711 73.8737 64.2755C73.7072 63.8798 73.4634 63.5215 73.1565 63.2214L72.9309 62.9958C72.439 62.5059 72.1039 61.8808 71.9682 61.2C71.8324 60.5191 71.902 59.8133 72.1683 59.1722C72.4357 58.5377 72.8837 57.9958 73.4566 57.6139C74.0295 57.232 74.702 57.0268 75.3905 57.024H75.7772C76.6317 57.024 77.4513 56.6846 78.0556 56.0803C78.6599 55.476 78.9994 54.6564 78.9994 53.8019V46.2834C79.0079 45.8549 78.9309 45.4289 78.7728 45.0305C78.6147 44.6321 78.3788 44.2693 78.0787 43.9632C77.7786 43.6572 77.4205 43.414 77.0253 43.2481C76.6301 43.0821 76.2058 42.9967 75.7772 42.9968Z" fill="#FFC907"/>
  <path d="M49.9997 77.9254C51.1861 77.9254 52.1478 76.9637 52.1478 75.7773C52.1478 74.5909 51.1861 73.6292 49.9997 73.6292C48.8133 73.6292 47.8516 74.5909 47.8516 75.7773C47.8516 76.9637 48.8133 77.9254 49.9997 77.9254Z" fill="#FBAA19"/>
  <path d="M55.2196 59.0864C54.5313 58.88 53.9475 58.4191 53.5871 57.7975C55.367 56.9782 56.8134 55.5752 57.6865 53.8211C58.5597 52.067 58.8071 50.0672 58.3877 48.1532C57.9684 46.2392 56.9074 44.526 55.3809 43.2977C53.8543 42.0693 51.9537 41.3997 49.9943 41.3997C48.0349 41.3997 46.1344 42.0693 44.6078 43.2977C43.0812 44.526 42.0203 46.2392 41.6009 48.1532C41.1816 50.0672 41.429 52.067 42.3021 53.8211C43.1753 55.5752 44.6217 56.9782 46.4016 57.7975C46.0411 58.4191 45.4573 58.88 44.769 59.0864C37.8091 61.1915 32.8147 67.0989 32.8147 74.8214C32.8455 75.9402 33.3117 77.0029 34.1141 77.7832C34.9165 78.5635 35.9917 78.9999 37.1109 78.9995H40.1828C40.4559 78.9997 40.7255 78.9375 40.9709 78.8176C41.2164 78.6978 41.4312 78.5234 41.5991 78.3079C41.7669 78.0925 41.8833 77.8415 41.9394 77.5741C41.9955 77.3068 41.9898 77.0302 41.9227 76.7654L41.0957 73.4788C41.0043 73.1146 40.9971 72.7343 41.0747 72.3668C41.1523 71.9994 41.3127 71.6545 41.5436 71.3583C41.7745 71.0622 42.0699 70.8226 42.4073 70.6577C42.7448 70.4929 43.1153 70.4071 43.4909 70.407H56.5085C56.8841 70.4071 57.2546 70.4929 57.5921 70.6577C57.9295 70.8226 58.2249 71.0622 58.4558 71.3583C58.6867 71.6545 58.8471 71.9994 58.9247 72.3668C59.0023 72.7343 58.9951 73.1146 58.9037 73.4788L58.0766 76.7654C58.0096 77.0302 58.0039 77.3068 58.06 77.5741C58.1161 77.8415 58.2325 78.0925 58.4003 78.3079C58.5682 78.5234 58.783 78.6978 59.0284 78.8176C59.2739 78.9375 59.5435 78.9997 59.8166 78.9995H62.8884C64.0077 78.9999 65.0829 78.5635 65.8853 77.7832C66.6877 77.0029 67.1539 75.9402 67.1847 74.8214C67.1847 67.0989 62.1903 61.1915 55.2196 59.0864Z" fill="#020A45"/>
</svg>