<?xml version="1.0" encoding="UTF-8"?>
<svg xmlns="http://www.w3.org/2000/svg" width="100" height="100" viewBox="0 0 100 100" fill="none">
  <rect x="0.5" y="0.5" width="99" height="99" rx="16.0289" fill="white"></rect>
  <rect x="0.5" y="0.5" width="99" height="99" rx="16.0289" stroke="#E3EDFD"></rect>
  <path d="M67.223 75.2776H76.833C76.863 73.7876 77.163 70.9276 78.693 67.0176C80.173 63.2376 80.513 59.2176 79.683 55.3876C78.823 51.4276 77.063 45.5176 73.593 39.8476C73.343 39.4376 72.923 39.1476 72.443 39.0276C71.633 38.8376 70.803 39.2176 70.413 39.9476C70.153 40.4276 70.113 40.9676 70.293 41.4576L74.353 52.7876C74.673 53.3676 74.853 54.0476 74.853 54.7476V64.0376C74.853 64.5976 74.393 65.0576 73.833 65.0576C73.273 65.0576 72.813 64.5976 72.813 64.0376V54.7476C72.813 54.3976 72.733 54.0676 72.583 53.7776C72.553 53.7376 72.523 53.6876 72.503 53.6376C72.233 53.2076 71.813 52.8976 71.323 52.8176C70.783 52.7276 70.253 52.8776 69.853 53.2176C69.453 53.5576 69.223 54.0576 69.223 54.5876V59.6976C69.223 61.2376 68.673 62.7776 67.673 64.0276C66.103 65.9776 64.043 69.9776 67.223 75.2776Z" fill="#020A45"></path>
  <path d="M66.653 77.3075H64.563V80.4475H79.013V77.3075H77.883H66.653Z" fill="#020A45"></path>
  <path d="M22.293 75.2775H31.903C35.083 69.9775 33.0229 65.9775 31.4629 64.0375C30.4629 62.7875 29.913 61.2475 29.913 59.7075V54.5975C29.913 54.0675 29.683 53.5675 29.283 53.2275C28.873 52.8775 28.3429 52.7375 27.8029 52.8275C27.3129 52.9075 26.893 53.2175 26.623 53.6475C26.603 53.6975 26.573 53.7475 26.543 53.7875C26.393 54.0775 26.313 54.4075 26.313 54.7575V64.0475C26.313 64.6075 25.853 65.0675 25.293 65.0675C24.733 65.0675 24.273 64.6075 24.273 64.0475V54.7575C24.273 54.0575 24.453 53.3775 24.773 52.7975L28.833 41.4675C29.013 40.9775 28.9729 40.4375 28.7229 39.9875C28.3229 39.2375 27.483 38.8575 26.683 39.0475C26.203 39.1575 25.773 39.4575 25.533 39.8675C22.063 45.5175 20.303 51.4175 19.443 55.3775C18.613 59.2075 18.953 63.2275 20.433 67.0075C21.963 70.9175 22.263 73.7875 22.293 75.2775Z" fill="#020A45"></path>
  <path d="M21.243 77.3075H20.113V80.4475H34.563V77.3075H32.473H21.243Z" fill="#020A45"></path>
  <path d="M66.843 27.7576H32.283V33.1476H66.843V27.7576Z" fill="#FFC907"></path>
  <path d="M45.183 35.1975H34.313V54.4275H45.183V35.1975Z" fill="#FFC907"></path>
  <path d="M51.913 35.1975H47.223V54.4275H51.913V35.1975Z" fill="#FFC907"></path>
  <path d="M64.813 35.1975H53.943V54.4275H64.813V35.1975Z" fill="#FFC907"></path>
  <path d="M57.293 25.7275C58.333 24.3175 58.213 22.3375 56.933 21.0575C55.523 19.6475 53.243 19.6475 51.843 21.0575C51.453 21.4475 50.963 22.1175 50.493 22.8975C50.073 23.6075 49.053 23.6075 48.633 22.8975C48.163 22.1175 47.673 21.4375 47.283 21.0575C45.873 19.6475 43.593 19.6475 42.193 21.0575C40.923 22.3275 40.793 24.3175 41.833 25.7275H57.293Z" fill="#FFC907"></path>
</svg>
