<?xml version="1.0" encoding="UTF-8"?>
<svg xmlns="http://www.w3.org/2000/svg" width="100" height="100" viewBox="0 0 100 100" fill="none">
  <rect x="0.5" y="0.5" width="99" height="99" rx="16.0289" fill="white"></rect>
  <rect x="0.5" y="0.5" width="99" height="99" rx="16.0289" stroke="#E3EDFD"></rect>
  <path d="M26.0546 48.2646C24.0572 48.0773 22.1222 47.8901 20 47.7652C21.2484 37.5286 25.9922 29.6014 34.7932 24.3583C43.9063 18.9278 53.394 18.7406 63.1313 22.8602C62.2574 24.7328 61.3836 26.5429 60.5721 28.353C44.2184 20.9252 27.1157 32.7848 26.0546 48.2646ZM74.2418 46.1424C75.3029 53.1957 73.8673 59.6248 69.498 65.18C65.1911 70.7353 59.4486 73.7938 52.3953 74.5428C52.5825 76.5402 52.7074 78.4752 52.8946 80.4102C67.6254 79.9108 83.4173 65.1176 80.1716 45.0188C78.2366 45.4558 76.3016 45.7678 74.2418 46.1424ZM25.9922 52.5091C24.1196 52.6963 22.1847 52.8212 20.1873 53.0084C20.6242 65.3673 31.4226 79.2867 47.6515 80.5974C47.8387 78.6 48.026 76.6651 48.1508 74.7301C35.4798 72.6079 28.1144 65.2425 25.9922 52.5091ZM73.1183 42.0851C74.9908 41.3985 76.8634 40.7119 78.7984 40.0253C76.5513 34.0331 72.8686 29.2893 67.6878 25.5442C66.5019 27.1671 65.3783 28.79 64.1924 30.4753C66.1898 31.9733 67.9999 33.5962 69.498 35.5936C71.0584 37.5286 72.2444 39.6508 73.1183 42.0851ZM50.3355 69.1748C39.974 69.1748 31.5474 60.7483 31.5474 50.3868C31.5474 40.0253 39.974 31.6612 50.3355 31.6612C60.6969 31.6612 69.1235 40.0878 69.1235 50.4492C69.1235 60.8107 60.6969 69.1748 50.3355 69.1748ZM48.5877 46.7041V46.5169C48.5877 45.643 48.8998 44.894 49.4616 44.2074C50.0234 43.5832 50.8348 43.2087 51.8335 43.2087C52.3953 43.2087 52.957 43.2711 53.4564 43.3335C54.0182 43.3959 54.5175 43.5208 55.0793 43.708L55.3914 39.8381C54.7048 39.7132 54.143 39.5884 53.5812 39.526C53.0195 39.4636 52.4577 39.4011 51.8335 39.4011C49.3992 39.4011 47.4018 40.0878 45.9037 41.461C44.4057 42.8342 43.6567 44.5195 43.6567 46.5169V46.7041H41.5344V49.8251H43.6567V51.5104H41.5344V54.6313H43.6567V54.8185C43.6567 56.6287 44.4057 58.1892 45.9037 59.4375C47.4018 60.6859 49.3992 61.3725 51.8959 61.3725C52.5201 61.3725 53.0819 61.3101 53.7061 61.2477C54.3302 61.1852 54.892 61.0604 55.4538 60.9356L55.1417 57.0656C54.6423 57.2529 54.0806 57.3777 53.5812 57.4401C53.0195 57.5026 52.5201 57.565 51.9583 57.565C50.8972 57.565 50.0858 57.3153 49.524 56.7535C48.9622 56.1918 48.7126 55.5676 48.7126 54.8185V54.6313H54.5175V51.5104H48.7126V49.8251H54.5175V46.7041H48.5877Z" fill="#020A45"></path>
  <mask id="mask0_5729_5372" style="mask-type:alpha" maskUnits="userSpaceOnUse" x="20" y="20" width="61" height="61">
    <path d="M26.0546 48.2646C24.0572 48.0773 22.1222 47.8901 20 47.7652C21.2484 37.5286 25.9922 29.6014 34.7932 24.3583C43.9063 18.9278 53.394 18.7406 63.1313 22.8602C62.2574 24.7328 61.3836 26.5429 60.5721 28.353C44.2184 20.9252 27.1157 32.7848 26.0546 48.2646ZM74.2418 46.1424C75.3029 53.1957 73.8673 59.6248 69.498 65.18C65.1911 70.7353 59.4486 73.7938 52.3953 74.5428C52.5825 76.5402 52.7074 78.4752 52.8946 80.4102C67.6254 79.9108 83.4173 65.1176 80.1716 45.0188C78.2366 45.4558 76.3016 45.7678 74.2418 46.1424ZM25.9922 52.5091C24.1196 52.6963 22.1847 52.8212 20.1873 53.0084C20.6242 65.3673 31.4226 79.2867 47.6515 80.5974C47.8387 78.6 48.026 76.6651 48.1508 74.7301C35.4798 72.6079 28.1144 65.2425 25.9922 52.5091ZM73.1183 42.0851C74.9908 41.3985 76.8634 40.7119 78.7984 40.0253C76.5513 34.0331 72.8686 29.2893 67.6878 25.5442C66.5019 27.1671 65.3783 28.79 64.1924 30.4753C66.1898 31.9733 67.9999 33.5962 69.498 35.5936C71.0584 37.5286 72.2444 39.6508 73.1183 42.0851ZM50.3355 69.1748C39.974 69.1748 31.5474 60.7483 31.5474 50.3868C31.5474 40.0253 39.974 31.6612 50.3355 31.6612C60.6969 31.6612 69.1235 40.0878 69.1235 50.4492C69.1235 60.8107 60.6969 69.1748 50.3355 69.1748ZM48.5877 46.7041V46.5169C48.5877 45.643 48.8998 44.894 49.4616 44.2074C50.0234 43.5832 50.8348 43.2087 51.8335 43.2087C52.3953 43.2087 52.957 43.2711 53.4564 43.3335C54.0182 43.3959 54.5175 43.5208 55.0793 43.708L55.3914 39.8381C54.7048 39.7132 54.143 39.5884 53.5812 39.526C53.0195 39.4636 52.4577 39.4011 51.8335 39.4011C49.3992 39.4011 47.4018 40.0878 45.9037 41.461C44.4057 42.8342 43.6567 44.5195 43.6567 46.5169V46.7041H41.5344V49.8251H43.6567V51.5104H41.5344V54.6313H43.6567V54.8185C43.6567 56.6287 44.4057 58.1892 45.9037 59.4375C47.4018 60.6859 49.3992 61.3725 51.8959 61.3725C52.5201 61.3725 53.0819 61.3101 53.7061 61.2477C54.3302 61.1852 54.892 61.0604 55.4538 60.9356L55.1417 57.0656C54.6423 57.2529 54.0806 57.3777 53.5812 57.4401C53.0195 57.5026 52.5201 57.565 51.9583 57.565C50.8972 57.565 50.0858 57.3153 49.524 56.7535C48.9622 56.1918 48.7126 55.5676 48.7126 54.8185V54.6313H54.5175V51.5104H48.7126V49.8251H54.5175V46.7041H48.5877Z" fill="#FFC907"></path>
  </mask>
  <g mask="url(#mask0_5729_5372)">
    <path d="M83 50C83 68.2254 68.2254 83 50 83C31.7746 83 17 68.2254 17 50C17 31.7746 31.7746 17 50 17C68.2254 17 83 31.7746 83 50ZM28.0043 50C28.0043 62.1479 37.8521 71.9957 50 71.9957C62.1479 71.9957 71.9957 62.1479 71.9957 50C71.9957 37.8521 62.1479 28.0043 50 28.0043C37.8521 28.0043 28.0043 37.8521 28.0043 50Z" fill="#FFC907"></path>
  </g>
</svg>
