<?xml version="1.0" encoding="UTF-8"?>
<svg xmlns="http://www.w3.org/2000/svg" width="35" height="35" viewBox="0 0 35 35" fill="none">
  <path d="M8.36791 4.1091C7.05659 2.79778 4.93166 2.79778 3.62148 4.1091C2.49879 5.23179 2.34539 6.94991 3.1465 8.24419C2.43402 9.4521 1.57155 11.1964 1.18406 12.3804C0.605672 14.0929 0.3125 15.8928 0.3125 17.7314C0.3125 19.5699 0.605672 21.3699 1.1852 23.0812C1.32951 23.5073 1.72723 23.7766 2.15448 23.7766C2.26357 23.7766 2.37379 23.7584 2.48288 23.7221C3.01809 23.5414 3.30445 22.9607 3.12377 22.4255C2.6147 20.9267 2.35789 19.3472 2.35789 17.7314C2.35789 16.1155 2.61583 14.536 3.12604 13.027C3.43058 12.0975 4.12374 10.6668 4.73053 9.59301C5.94299 10.085 7.38499 9.83959 8.36791 8.85667C9.67923 7.54535 9.67923 5.41928 8.36791 4.1091Z" fill="#FFC907"/>
  <path d="M34.1751 17.7314C34.1751 15.8928 33.882 14.0928 33.3024 12.3815C33.1218 11.8463 32.5411 11.56 32.0059 11.7406C31.4707 11.9213 31.1843 12.502 31.365 13.0372C31.8729 14.536 32.1297 16.1155 32.1297 17.7314C32.1297 19.3472 31.8718 20.9267 31.3616 22.4357C31.0377 23.4255 30.315 24.7845 29.6685 25.8436C28.4742 25.397 27.0799 25.647 26.1197 26.6072C24.8084 27.9185 24.8084 30.0434 26.1197 31.3536C27.4299 32.6649 29.556 32.6649 30.8662 31.3536C32.0173 30.2025 32.1559 28.423 31.2843 27.1185C32.0434 25.9038 32.907 24.2925 33.3024 23.0812C33.882 21.3699 34.1751 19.5699 34.1751 17.7314Z" fill="#FFC907"/>
  <path d="M30.8658 4.10903C29.7386 2.98179 28.0114 2.83066 26.7148 3.642C25.6001 2.95452 23.9297 2.1091 22.5934 1.67161C20.8821 1.09322 19.0821 0.800049 17.2436 0.800049C15.405 0.800049 13.6039 1.09322 11.8937 1.67275C11.3585 1.85342 11.0722 2.43409 11.2528 2.96929C11.4335 3.5045 12.0131 3.79086 12.5494 3.61018C15.5482 2.59544 18.9299 2.59203 21.9479 3.61359C22.9047 3.92608 24.2967 4.5931 25.3785 5.23286C24.8933 6.44191 25.1399 7.87595 26.1194 8.85546C27.4296 10.1668 29.5556 10.1668 30.8658 8.85546C32.1771 7.54528 32.1771 5.41921 30.8658 4.10903Z" fill="#FFC907"/>
  <path d="M23.2347 32.4933C23.054 31.9581 22.4722 31.6706 21.9381 31.8524C18.9393 32.8672 15.5576 32.8706 12.5396 31.849C11.568 31.5308 10.1533 30.8468 9.10103 30.2513C9.59761 29.0377 9.3533 27.5923 8.36811 26.6071C7.05679 25.297 4.93186 25.297 3.62167 26.6071C2.31035 27.9185 2.31035 30.0434 3.62167 31.3536C4.74209 32.474 6.45567 32.6285 7.74881 31.832C8.93854 32.5354 10.6885 33.3956 11.893 33.7899C13.6054 34.3694 15.4054 34.6626 17.2439 34.6626C19.0825 34.6626 20.8825 34.3694 22.5938 33.7899C23.129 33.6092 23.4165 33.0285 23.2347 32.4933Z" fill="#FFC907"/>
  <path d="M12.019 16.879C12.1167 14.2905 12.6565 11.6917 13.686 9.86902C10.9406 11.1133 8.98047 13.7518 8.67139 16.879H12.019Z" fill="#020A45"/>
  <path d="M8.67139 18.5835C8.98047 21.7107 10.9418 24.3492 13.686 25.5935C12.6565 23.7708 12.1167 21.1709 12.019 18.5835H8.67139Z" fill="#020A45"/>
  <path d="M20.7677 16.879C20.5916 12.5099 19.0814 9.09521 17.244 9.09521C15.4065 9.09521 13.8963 12.5099 13.7202 16.879H20.7677Z" fill="#020A45"/>
  <path d="M13.7202 18.5835C13.8952 22.9527 15.4065 26.3673 17.244 26.3673C19.0814 26.3673 20.5916 22.9527 20.7677 18.5835H13.7202Z" fill="#020A45"/>
  <path d="M22.4687 18.5835C22.371 21.172 21.8313 23.7708 20.8018 25.5935C23.5471 24.3492 25.5073 21.7107 25.8164 18.5835H22.4687Z" fill="#020A45"/>
  <path d="M25.8164 16.879C25.5073 13.7507 23.546 11.1133 20.8018 9.86902C21.8313 11.6917 22.371 14.2916 22.4687 16.879H25.8164Z" fill="#020A45"/>
</svg>