<?xml version="1.0" encoding="UTF-8"?>
<svg xmlns="http://www.w3.org/2000/svg" width="33" height="33" viewBox="0 0 33 33" fill="none">
  <g clip-path="url(#clip0_890_1497)">
    <path fill-rule="evenodd" clip-rule="evenodd" d="M12.3209 1.85188C14.4968 -0.578006 18.5129 -0.568983 20.6811 1.85188C22.5174 3.90342 22.8003 7.16282 21.3572 9.57465C20.3575 11.2427 18.6895 13.2801 17.3212 15.039C17.1168 15.3 16.8313 15.4412 16.5007 15.4412C16.17 15.4412 15.8832 15.3007 15.6802 15.039C14.3118 13.2794 12.6419 11.2427 11.6441 9.57465C10.2236 7.20149 10.4498 3.94209 12.3209 1.85188ZM16.5007 9.48119C14.4401 9.48119 12.7592 7.80026 12.7592 5.73969C12.7592 3.67848 14.4401 1.99819 16.5007 1.99819C18.5612 1.99819 20.2422 3.67848 20.2422 5.73969C20.2422 7.80026 18.5612 9.48119 16.5007 9.48119Z" fill="#FFC907"/>
    <path fill-rule="evenodd" clip-rule="evenodd" d="M22.8151 3.40069C22.5702 2.75229 22.2357 2.13998 21.8142 1.58311C24.0359 -0.57285 27.8302 -0.47617 29.9153 1.85188C31.7516 3.90342 32.0364 7.16282 30.5933 9.57465C29.766 10.9551 28.4809 12.5885 27.2857 14.1077C27.0367 14.4242 26.7916 14.7357 26.5554 15.039C26.3523 15.3 26.0674 15.4412 25.7349 15.4412C25.4042 15.4412 25.1193 15.3007 24.9144 15.039C24.6806 14.7389 24.4382 14.4306 24.1919 14.1174C23.3618 13.0619 22.4877 11.9505 21.7536 10.9063C21.927 10.6433 22.0952 10.3784 22.2544 10.1115C22.5908 9.54887 22.848 8.9443 23.0233 8.3191C23.7046 9.03518 24.6675 9.48119 25.7349 9.48119C27.8012 9.48119 29.4764 7.80606 29.4764 5.73969C29.4764 3.67332 27.8012 1.99819 25.7349 1.99819C24.5547 1.99754 23.5003 2.54604 22.8151 3.40069ZM6.44662 15.039C6.64965 15.3 6.93453 15.4412 7.26711 15.4412C7.59776 15.4412 7.88264 15.3007 8.08567 15.039C8.31588 14.7438 8.55446 14.4407 8.79682 14.1328C9.63129 13.0727 10.5107 11.9556 11.2484 10.9063C11.075 10.6433 10.9068 10.3784 10.7476 10.1115C10.4098 9.54694 10.154 8.9443 9.97672 8.3191C9.29545 9.03518 8.33252 9.48119 7.26518 9.48119C5.19881 9.48119 3.52367 7.80606 3.52367 5.73969C3.52367 3.67332 5.19881 1.99819 7.26518 1.99819C8.44531 1.99819 9.49783 2.54604 10.1849 3.3994C10.4298 2.75293 10.7643 2.14063 11.1878 1.58311C8.9719 -0.56576 5.1769 -0.485194 3.08668 1.85188C1.21367 3.94209 0.989376 7.20149 2.40863 9.57465C3.23427 10.9523 4.51582 12.5814 5.70898 14.0982C5.96049 14.4179 6.20807 14.7327 6.44662 15.039ZM32.0306 17.913C31.9011 22.0985 30.1196 25.8678 27.3133 28.5864C24.5161 31.2992 20.7011 32.9673 16.5013 32.9673C12.299 32.9673 8.48592 31.2992 5.68737 28.5864C2.88301 25.8678 1.09959 22.0985 0.97004 17.913C0.966173 17.7795 0.988087 17.6519 1.03385 17.5314C1.08154 17.4109 1.15244 17.3013 1.2459 17.2046C1.33936 17.1099 1.44506 17.0345 1.56752 16.9835C1.68805 16.9326 1.81631 16.9068 1.94779 16.9068H31.0542C31.1857 16.9068 31.3139 16.9326 31.4357 16.9835C31.5563 17.0345 31.662 17.1099 31.7554 17.2046C31.8489 17.3013 31.9198 17.4109 31.9675 17.5314C32.0126 17.6519 32.0345 17.7795 32.0306 17.913ZM26.3323 28.0804C25.4087 26.022 23.2536 24.0905 21.303 22.3424C19.4724 20.7017 17.822 19.2226 17.539 17.9516H2.01418C2.07477 19.6725 2.43635 21.3167 3.04672 22.8333C3.4141 22.3415 4.00385 21.6564 4.59617 21.0486C6.36487 19.2281 6.92709 19.5551 7.95446 20.1527C8.62605 20.5434 9.4964 21.0496 11.0325 21.1472C17.829 21.7466 15.6473 25.6912 11.4707 28.364C10.7089 28.7643 10.172 29.4456 9.73309 30.2512C11.7518 31.3179 14.056 31.9231 16.5007 31.9231C20.2957 31.9225 23.7484 30.4646 26.3323 28.0804Z" fill="#333333"/>
    <path d="M14.2558 5.96785H14.7617V7.69649C14.7617 7.98524 14.9957 8.2192 15.2844 8.2192H17.7163C18.005 8.2192 18.239 7.98524 18.239 7.69649V5.96785H18.7449C18.8964 5.96785 19.0375 5.90405 19.1374 5.79061C19.3276 5.5734 19.3076 5.24405 19.0897 5.05455L16.8481 3.07778C16.6547 2.9044 16.3569 2.8986 16.1558 3.07584L13.9271 5.03973C13.8085 5.13641 13.7337 5.28272 13.7337 5.44514C13.733 5.73389 13.967 5.96785 14.2558 5.96785Z" fill="#FFC907"/>
  </g>
  <defs>
    <clipPath id="clip0_890_1497">
      <rect width="33" height="33" fill="white"/>
    </clipPath>
  </defs>
</svg>