<?xml version="1.0" encoding="UTF-8"?>
<svg xmlns="http://www.w3.org/2000/svg" width="100" height="100" viewBox="0 0 100 100" fill="none">
  <rect x="0.5" y="0.5" width="99" height="99" rx="16.0289" fill="white"/>
  <rect x="0.5" y="0.5" width="99" height="99" rx="16.0289" stroke="#E3EDFD"/>
  <path d="M73.8914 47.2379C73.4655 48.5158 72.6135 50.5036 71.6906 52.6335C72.2585 54.0534 72.1876 55.9702 71.1226 58.0291C70.8387 58.526 70.5547 59.023 70.1287 59.591C69.2058 60.8689 67.8569 62.2888 66.437 63.8506C66.366 63.9926 66.224 64.0636 66.153 64.2056C65.798 64.5606 65.2301 64.7026 64.8041 64.4186C64.2361 64.0636 64.1651 63.2827 64.5911 62.8567C64.7331 62.7147 64.8041 62.6437 64.9461 62.5017C66.7919 60.5139 68.5668 58.597 69.2768 57.1061C70.6967 54.4083 69.7027 52.5625 68.4248 51.8525C67.3599 51.2136 65.798 51.2136 65.0171 52.4205C63.8102 54.1953 62.1773 56.0412 60.6154 57.8161C58.7695 59.8749 56.9947 62.0758 55.9297 63.8506C54.7938 65.7675 53.3029 70.3822 53.019 75.2098C52.877 77.5526 52.806 80.2504 52.735 81.9543C52.735 82.8062 53.3739 83.4452 54.2259 83.4452H63.8102C64.6621 83.4452 65.3011 82.8062 65.3011 81.9543V79.2565C65.3011 78.6175 65.585 77.9786 66.153 77.6236C69.4898 75.2808 72.6845 72.441 74.4594 70.3822C78.3641 65.8385 79.784 52.4205 79.997 48.3738C80.139 44.3981 75.0983 43.4751 73.8914 47.2379Z" fill="#020A45"/>
  <path d="M44.0027 63.8506C42.9378 62.1467 41.1629 59.9459 39.317 57.816C37.7552 56.0412 36.0513 54.1953 34.9154 52.4204C34.1344 51.1425 32.5725 51.1425 31.5076 51.7815C30.1587 52.5624 29.2358 54.3373 30.6557 57.0351C31.4366 58.526 33.1405 60.3718 34.9864 62.4307C35.1284 62.5727 35.1993 62.6437 35.3413 62.7857C35.7673 63.2826 35.6963 63.9926 35.1284 64.3475C34.7024 64.6315 34.1344 64.4895 33.7795 64.1346C33.7085 63.9926 33.5665 63.9216 33.4955 63.7796C32.0756 62.2177 30.7267 60.7978 29.8037 59.5199C29.4488 59.0229 29.0938 58.455 28.8098 57.958C27.7449 55.8282 27.6739 53.9823 28.2419 52.5624C27.2479 50.4326 26.396 48.4447 26.041 47.1668C24.9051 43.4041 19.7935 44.398 20.0065 48.3737C20.2195 52.3494 21.6393 65.7674 25.5441 70.3821C27.3189 72.4409 30.5137 75.2807 33.9214 77.6236C34.4184 77.9785 34.7734 78.6175 34.7734 79.2564V81.9542C34.7734 82.8062 35.4123 83.4451 36.2643 83.4451H45.8486C46.7005 83.4451 47.3394 82.7352 47.3394 81.9542C47.2685 80.3214 47.1975 77.6236 47.0555 75.2097C46.6295 70.3821 45.2096 65.7674 44.0027 63.8506Z" fill="#020A45"/>
  <path d="M67.644 33.6779C67.644 23.9517 59.6926 16.0002 49.9663 16.0002C40.24 16.0002 32.2886 23.9517 32.2886 33.6779C32.2886 43.4042 40.24 51.3556 49.9663 51.3556C59.6926 51.4266 67.644 43.4752 67.644 33.6779ZM41.3759 28.7083C41.3759 27.2174 42.5828 26.0105 44.0737 26.0105C45.5646 26.0105 46.7715 27.2174 46.7715 28.7083C46.7715 30.1992 45.5646 31.4061 44.0737 31.4061C42.5828 31.4061 41.3759 30.1992 41.3759 28.7083ZM56.7108 40.1385C56.6398 40.2805 54.297 43.1202 49.9663 43.1202C45.7066 43.1202 43.3638 40.2805 43.2218 40.1385C42.6538 39.4285 42.7248 38.2926 43.5057 37.7246C44.2157 37.1567 45.3516 37.2277 45.9196 38.0086C45.9906 38.0796 47.4105 39.7125 49.9663 39.7125C52.5221 39.7125 53.942 38.0796 54.013 38.0086C54.6519 37.2987 55.7168 37.1567 56.4268 37.7956C57.1367 38.3636 57.2787 39.4285 56.7108 40.1385ZM55.8588 31.4061C54.3679 31.4061 53.161 30.1992 53.161 28.7083C53.161 27.2174 54.3679 26.0105 55.8588 26.0105C57.3497 26.0105 58.5566 27.2174 58.5566 28.7083C58.5566 30.1992 57.3497 31.4061 55.8588 31.4061Z" fill="#FFC907"/>
</svg>