<?xml version="1.0" encoding="UTF-8"?>
<svg xmlns="http://www.w3.org/2000/svg" width="100" height="100" viewBox="0 0 100 100" fill="none">
  <rect x="0.5" y="0.5" width="99" height="99" rx="16.0289" fill="white"></rect>
  <rect x="0.5" y="0.5" width="99" height="99" rx="16.0289" stroke="#E3EDFD"></rect>
  <path fill-rule="evenodd" clip-rule="evenodd" d="M37.2878 75.1592L30.7558 78.9294C30.6964 78.9642 30.6305 78.9867 30.5622 78.9957C30.4939 79.0046 30.4245 78.9998 30.3581 78.9815C30.2907 78.9642 30.2274 78.9336 30.172 78.8915C30.1166 78.8494 30.0701 78.7967 30.0354 78.7364L20.0649 61.4726C19.999 61.3503 19.9825 61.2074 20.019 61.0733C20.0554 60.9392 20.1419 60.8243 20.2606 60.7521L26.7933 56.9812C26.8739 56.9347 26.9654 56.9107 27.0584 56.9118C27.1507 56.9122 27.2412 56.9367 27.3211 56.9828C27.4009 57.0289 27.4673 57.0951 27.5138 57.1748L27.9684 57.9591L37.4773 74.4366C37.5128 74.4962 37.536 74.5623 37.5457 74.631C37.5553 74.6997 37.5511 74.7697 37.5334 74.8368C37.5157 74.9038 37.4848 74.9667 37.4425 75.0217C37.4002 75.0767 37.3474 75.1227 37.2871 75.1571L37.2878 75.1592ZM78.6633 52.707C78.9531 52.4281 79.1843 52.0942 79.3435 51.7248C79.5026 51.3554 79.5864 50.958 79.5901 50.5558C79.5938 50.1536 79.5171 49.7547 79.3647 49.3825C79.2123 49.0103 78.9872 48.6722 78.7026 48.388C78.4179 48.1039 78.0794 47.8794 77.7069 47.7276C77.3345 47.5759 76.9354 47.5 76.5333 47.5044C76.1311 47.5087 75.7338 47.5933 75.3647 47.7531C74.9956 47.9129 74.6621 48.1447 74.3836 48.435L66.1692 55.6069C66.4032 56.2062 66.4873 56.8535 66.4142 57.4927C66.341 58.1319 66.1129 58.7435 65.7496 59.2744C65.3862 59.8053 64.8987 60.2395 64.3294 60.5391C63.7601 60.8387 63.1263 60.9948 62.4829 60.9937H51.7941C51.5999 60.9937 51.4136 60.9165 51.2763 60.7792C51.139 60.6419 51.0618 60.4556 51.0618 60.2614C51.0618 60.0672 51.139 59.881 51.2763 59.7436C51.4136 59.6063 51.5999 59.5292 51.7941 59.5292H62.4829C63.144 59.5292 63.7779 59.2666 64.2454 58.7991C64.7128 58.3317 64.9754 57.6977 64.9754 57.0367C64.9754 56.3757 64.7128 55.7417 64.2454 55.2743C63.7779 54.8069 63.144 54.5443 62.4829 54.5443H51.7941C51.6384 54.5439 51.487 54.4933 51.3624 54.3999C44.3751 49.2318 35.6067 52.6827 29.5426 57.7613L37.3052 71.2071L40.087 69.2213C40.6358 68.8223 41.2985 68.6106 41.977 68.6174H62.1831C62.9781 68.6319 63.7664 68.4692 64.4908 68.1412C65.2152 67.8133 65.8575 67.3282 66.3712 66.7212L78.6633 52.707ZM48.3015 45.0659C48.3015 44.984 48.2959 44.9014 48.2959 44.8209C48.2906 43.0785 48.7487 41.3659 49.6232 39.8588C50.4976 38.3517 51.7571 37.1042 53.2725 36.2441C53.8799 36.9511 54.6329 37.5184 55.4799 37.9074C56.3269 38.2963 57.2479 38.4977 58.18 38.4977C59.112 38.4977 60.0331 38.2963 60.8801 37.9074C61.7271 37.5184 62.4801 36.9511 63.0875 36.2441C64.6022 37.1045 65.8608 38.3523 66.7343 39.8594C67.6078 41.3666 68.0649 43.0789 68.0585 44.8209C68.0585 44.9021 68.0585 44.984 68.0529 45.0659C65.4249 47.6684 61.8758 49.1284 58.1772 49.1284C54.4786 49.1284 50.9295 47.6684 48.3015 45.0659ZM58.1803 37.034C59.1733 37.0336 60.1439 36.7388 60.9693 36.1868C61.7947 35.6348 62.4379 34.8505 62.8176 33.933C63.1973 33.0155 63.2965 32.006 63.1025 31.0322C62.9085 30.0584 62.4302 29.1639 61.7279 28.4619C61.0256 27.7599 60.1309 27.2819 59.157 27.0884C58.1831 26.8948 57.1737 26.9944 56.2563 27.3744C55.339 27.7545 54.5549 28.3981 54.0033 29.2237C53.4517 30.0494 53.1573 31.0201 53.1573 32.013C53.1586 33.3446 53.6883 34.6213 54.63 35.5627C55.5718 36.5041 56.8487 37.0333 58.1803 37.034ZM58.1803 21.0007C55.5706 20.9988 53.0119 21.7235 50.7908 23.0935C48.5696 24.4635 46.7737 26.4248 45.6041 28.7578C44.4346 31.0908 43.9376 33.7032 44.1688 36.3027C44.4001 38.9021 45.3504 41.3859 46.9133 43.4758C47.1145 41.7352 47.7191 40.0655 48.6791 38.5997C49.6391 37.1339 50.9279 35.9123 52.4431 35.0323C51.9501 34.1026 51.6929 33.066 51.6941 32.0137C51.7118 30.3052 52.4029 28.6726 53.6173 27.4707C54.8318 26.2688 56.4714 25.5946 58.18 25.5946C59.8886 25.5946 61.5282 26.2688 62.7426 27.4707C63.957 28.6726 64.6481 30.3052 64.6658 32.0137C64.6671 33.066 64.4099 34.1026 63.9169 35.0323C65.4312 35.9127 66.7192 37.1345 67.6782 38.6003C68.6372 40.0661 69.2409 41.7356 69.4411 43.4758C71.0037 41.3862 71.9539 38.903 72.1853 36.3041C72.4167 33.7052 71.9203 31.0932 70.7515 28.7604C69.5827 26.4277 67.7878 24.4662 65.5676 23.0956C63.3474 21.7251 60.7895 21.0002 58.1803 21.0007Z" fill="#FFC907"></path>
  <mask id="mask0_5725_5280" style="mask-type:alpha" maskUnits="userSpaceOnUse" x="20" y="21" width="60" height="58">
    <path fill-rule="evenodd" clip-rule="evenodd" d="M37.2878 75.1584L30.7558 78.9287C30.6964 78.9635 30.6305 78.986 30.5622 78.9949C30.4939 79.0039 30.4245 78.999 30.3581 78.9807C30.2907 78.9634 30.2274 78.9328 30.172 78.8908C30.1166 78.8487 30.0701 78.796 30.0354 78.7357L20.0649 61.4718C19.999 61.3496 19.9825 61.2066 20.019 61.0726C20.0554 60.9385 20.1419 60.8235 20.2606 60.7514L26.7933 56.9804C26.8739 56.934 26.9654 56.91 27.0584 56.911C27.1507 56.9114 27.2412 56.9359 27.3211 56.9821C27.4009 57.0282 27.4673 57.0944 27.5138 57.1741L27.9684 57.9584L37.4773 74.4359C37.5128 74.4955 37.536 74.5616 37.5457 74.6303C37.5553 74.699 37.5511 74.7689 37.5334 74.836C37.5157 74.9031 37.4848 74.966 37.4425 75.021C37.4002 75.076 37.3474 75.122 37.2871 75.1563L37.2878 75.1584ZM78.6633 52.7063C78.9531 52.4274 79.1843 52.0934 79.3435 51.724C79.5026 51.3547 79.5864 50.9572 79.5901 50.555C79.5938 50.1528 79.5171 49.754 79.3647 49.3818C79.2123 49.0095 78.9872 48.6715 78.7026 48.3873C78.4179 48.1032 78.0794 47.8786 77.7069 47.7269C77.3345 47.5752 76.9354 47.4993 76.5333 47.5036C76.1311 47.508 75.7338 47.5926 75.3647 47.7524C74.9956 47.9122 74.6621 48.144 74.3836 48.4342L66.1692 55.6062C66.4032 56.2054 66.4873 56.8528 66.4142 57.492C66.341 58.1311 66.1129 58.7428 65.7496 59.2737C65.3862 59.8046 64.8987 60.2387 64.3294 60.5384C63.7601 60.838 63.1263 60.994 62.4829 60.9929H51.7941C51.5999 60.9929 51.4136 60.9158 51.2763 60.7785C51.139 60.6411 51.0618 60.4549 51.0618 60.2607C51.0618 60.0665 51.139 59.8802 51.2763 59.7429C51.4136 59.6056 51.5999 59.5284 51.7941 59.5284H62.4829C63.144 59.5284 63.7779 59.2658 64.2454 58.7984C64.7128 58.331 64.9754 57.697 64.9754 57.036C64.9754 56.3749 64.7128 55.741 64.2454 55.2736C63.7779 54.8061 63.144 54.5435 62.4829 54.5435H51.7941C51.6384 54.5432 51.487 54.4925 51.3624 54.3992C44.3751 49.231 35.6067 52.682 29.5426 57.7606L37.3052 71.2063L40.087 69.2206C40.6358 68.8216 41.2985 68.6098 41.977 68.6167H62.1831C62.9781 68.6312 63.7664 68.4685 64.4908 68.1405C65.2152 67.8125 65.8575 67.3275 66.3712 66.7205L78.6633 52.7063ZM48.3015 45.0652C48.3015 44.9833 48.2959 44.9007 48.2959 44.8202C48.2906 43.0777 48.7487 41.3652 49.6232 39.8581C50.4976 38.351 51.7571 37.1035 53.2725 36.2434C53.8799 36.9503 54.6329 37.5177 55.4799 37.9066C56.3269 38.2956 57.2479 38.497 58.18 38.497C59.112 38.497 60.0331 38.2956 60.8801 37.9066C61.7271 37.5177 62.4801 36.9503 63.0875 36.2434C64.6022 37.1038 65.8608 38.3515 66.7343 39.8587C67.6078 41.3658 68.0649 43.0782 68.0585 44.8202C68.0585 44.9014 68.0585 44.9833 68.0529 45.0652C65.4249 47.6677 61.8758 49.1276 58.1772 49.1276C54.4786 49.1276 50.9295 47.6677 48.3015 45.0652ZM58.1803 37.0333C59.1733 37.0329 60.1439 36.738 60.9693 36.1861C61.7947 35.6341 62.4379 34.8498 62.8176 33.9323C63.1973 33.0148 63.2965 32.0053 63.1025 31.0315C62.9085 30.0576 62.4302 29.1632 61.7279 28.4612C61.0256 27.7592 60.1309 27.2812 59.157 27.0876C58.1831 26.8941 57.1737 26.9936 56.2563 27.3737C55.339 27.7538 54.5549 28.3973 54.0033 29.223C53.4517 30.0486 53.1573 31.0193 53.1573 32.0123C53.1586 33.3439 53.6883 34.6206 54.63 35.562C55.5718 36.5034 56.8487 37.0325 58.1803 37.0333ZM58.1803 21C55.5706 20.9981 53.0119 21.7227 50.7908 23.0928C48.5696 24.4628 46.7737 26.4241 45.6041 28.7571C44.4346 31.09 43.9376 33.7025 44.1688 36.3019C44.4001 38.9014 45.3504 41.3851 46.9133 43.475C47.1145 41.7344 47.7191 40.0648 48.6791 38.599C49.6391 37.1331 50.9279 35.9116 52.4431 35.0315C51.9501 34.1018 51.6929 33.0653 51.6941 32.013C51.7118 30.3045 52.4029 28.6719 53.6173 27.47C54.8318 26.2681 56.4714 25.5939 58.18 25.5939C59.8886 25.5939 61.5282 26.2681 62.7426 27.47C63.957 28.6719 64.6481 30.3045 64.6658 32.013C64.6671 33.0653 64.4099 34.1018 63.9169 35.0315C65.4312 35.912 66.7192 37.1337 67.6782 38.5996C68.6372 40.0654 69.2409 41.7348 69.4411 43.475C71.0037 41.3855 71.9539 38.9023 72.1853 36.3034C72.4167 33.7045 71.9203 31.0925 70.7515 28.7597C69.5827 26.4269 67.7878 24.4655 65.5676 23.0949C63.3474 21.7243 60.7895 20.9994 58.1803 21Z" fill="#020A45"></path>
  </mask>
  <g mask="url(#mask0_5725_5280)">
    <path d="M85.5 60L32.5 86.5L11 58.5L15.5 53L38 47.5L64.5 53L73 43.5H85.5V60Z" fill="#020A45"></path>
  </g>
</svg>
