<?xml version="1.0" encoding="UTF-8"?>
<svg xmlns="http://www.w3.org/2000/svg" width="41" height="41" viewBox="0 0 41 41" fill="none">
  <path d="M8.00781 24.8344H4.80469C2.23792 24.8344 0.15 22.7456 0.15 20.1797V4.80469C0.15 2.23874 2.23792 0.15 4.80469 0.15H8.00781C10.5737 0.15 12.6625 2.23876 12.6625 4.80469V20.1797C12.6625 22.7456 10.5737 24.8344 8.00781 24.8344ZM4.80469 3.05313C3.83864 3.05313 3.05313 3.83864 3.05313 4.80469V20.1797C3.05313 21.1457 3.83864 21.9312 4.80469 21.9312H8.00781C8.97386 21.9312 9.75938 21.1457 9.75938 20.1797V4.80469C9.75938 3.83864 8.97386 3.05313 8.00781 3.05313H4.80469Z" fill="#091135" stroke="white" stroke-width="0.3"/>
  <path d="M20.1797 40.85H4.80469C2.23792 40.85 0.15 38.7613 0.15 36.1953V32.9922C0.15 30.4254 2.23791 28.3375 4.80469 28.3375H20.1797C22.7456 28.3375 24.8344 30.4254 24.8344 32.9922V36.1953C24.8344 38.7612 22.7456 40.85 20.1797 40.85ZM4.80469 31.2406C3.83864 31.2406 3.05313 32.0261 3.05313 32.9922V36.1953C3.05313 37.1614 3.83864 37.9469 4.80469 37.9469H20.1797C21.1457 37.9469 21.9312 37.1614 21.9312 36.1953V32.9922C21.9312 32.0261 21.1457 31.2406 20.1797 31.2406H4.80469Z" fill="#091135" stroke="white" stroke-width="0.3"/>
  <path d="M36.1953 40.85H32.9922C30.4254 40.85 28.3375 38.7613 28.3375 36.1953V32.9922C28.3375 30.4254 30.4254 28.3375 32.9922 28.3375H36.1953C38.7613 28.3375 40.85 30.4254 40.85 32.9922V36.1953C40.85 38.7612 38.7612 40.85 36.1953 40.85ZM32.9922 31.2406C32.0261 31.2406 31.2406 32.0261 31.2406 32.9922V36.1953C31.2406 37.1614 32.0261 37.9469 32.9922 37.9469H36.1953C37.1614 37.9469 37.9469 37.1614 37.9469 36.1953V32.9922C37.9469 32.0261 37.1614 31.2406 36.1953 31.2406H32.9922Z" fill="#091135" stroke="white" stroke-width="0.3"/>
  <path d="M36.1953 24.8344H20.8203C18.2544 24.8344 16.1656 22.7456 16.1656 20.1797V4.80469C16.1656 2.23874 18.2535 0.15 20.8203 0.15H36.1953C38.7612 0.15 40.85 2.23876 40.85 4.80469V20.1797C40.85 22.7456 38.7612 24.8344 36.1953 24.8344ZM20.8203 3.05313C19.8543 3.05313 19.0688 3.83864 19.0688 4.80469V20.1797C19.0688 21.1457 19.8543 21.9312 20.8203 21.9312H36.1953C37.1614 21.9312 37.9469 21.1457 37.9469 20.1797V4.80469C37.9469 3.83864 37.1614 3.05313 36.1953 3.05313H20.8203Z" fill="#091135" stroke="white" stroke-width="0.3"/>
</svg>