<?xml version="1.0" encoding="UTF-8"?>
<svg xmlns="http://www.w3.org/2000/svg" width="100" height="100" viewBox="0 0 100 100" fill="none">
  <rect x="0.5" y="0.5" width="99" height="99" rx="16.0289" fill="white"></rect>
  <rect x="0.5" y="0.5" width="99" height="99" rx="16.0289" stroke="#E3EDFD"></rect>
  <path d="M76 50.169C75.9979 50.4004 75.9349 50.6272 75.8171 50.8265C75.6994 51.0257 75.5312 51.1903 75.3295 51.3038L52.119 64.1985C51.9289 64.3011 51.7161 64.3543 51.5001 64.3532C51.2717 64.3609 51.0465 64.2978 50.8554 64.1727C50.6569 64.0643 50.4918 63.9037 50.3782 63.7082C50.2645 63.5127 50.2066 63.2898 50.2106 63.0637V52.3611L28.9086 64.1985C28.7185 64.3011 28.5057 64.3543 28.2897 64.3532C28.0613 64.3609 27.8361 64.2978 27.6449 64.1727C27.4464 64.0643 27.2814 63.9037 27.1677 63.7082C27.0541 63.5127 26.9961 63.2898 27.0002 63.0637V37.2744C26.9961 37.0483 27.0541 36.8254 27.1677 36.6299C27.2814 36.4344 27.4464 36.2737 27.6449 36.1654C27.8379 36.057 28.0555 36 28.2768 36C28.4981 36 28.7157 36.057 28.9086 36.1654L50.2106 47.9769V37.2744C50.2066 37.0483 50.2645 36.8254 50.3782 36.6299C50.4918 36.4344 50.6569 36.2737 50.8554 36.1654C51.0483 36.057 51.2659 36 51.4872 36C51.7085 36 51.9261 36.057 52.119 36.1654L75.3295 49.0601C75.5275 49.1713 75.6933 49.3319 75.8108 49.5263C75.9283 49.7206 75.9935 49.942 76 50.169Z" fill="#020A45"></path>
  <mask id="mask0_5730_5445" style="mask-type:alpha" maskUnits="userSpaceOnUse" x="27" y="36" width="49" height="29">
    <path d="M76 50.169C75.9979 50.4004 75.9349 50.6272 75.8171 50.8265C75.6994 51.0257 75.5312 51.1903 75.3295 51.3038L52.119 64.1985C51.9289 64.3011 51.7161 64.3543 51.5001 64.3532C51.2717 64.3609 51.0465 64.2978 50.8554 64.1727C50.6569 64.0643 50.4918 63.9037 50.3782 63.7082C50.2645 63.5127 50.2066 63.2898 50.2106 63.0637V52.3611L28.9086 64.1985C28.7185 64.3011 28.5057 64.3543 28.2897 64.3532C28.0613 64.3609 27.8361 64.2978 27.6449 64.1727C27.4464 64.0643 27.2814 63.9037 27.1677 63.7082C27.0541 63.5127 26.9961 63.2898 27.0002 63.0637V37.2744C26.9961 37.0483 27.0541 36.8254 27.1677 36.6299C27.2814 36.4344 27.4464 36.2737 27.6449 36.1654C27.8379 36.057 28.0555 36 28.2768 36C28.4981 36 28.7157 36.057 28.9086 36.1654L50.2106 47.9769V37.2744C50.2066 37.0483 50.2645 36.8254 50.3782 36.6299C50.4918 36.4344 50.6569 36.2737 50.8554 36.1654C51.0483 36.057 51.2659 36 51.4872 36C51.7085 36 51.9261 36.057 52.119 36.1654L75.3295 49.0601C75.5275 49.1713 75.6933 49.3319 75.8108 49.5263C75.9283 49.7206 75.9935 49.942 76 50.169Z" fill="#FFC907"></path>
  </mask>
  <g mask="url(#mask0_5730_5445)">
    <rect x="50" y="32" width="29" height="37" fill="#FFC907"></rect>
  </g>
</svg>
