<?xml version="1.0" encoding="UTF-8"?>
<svg xmlns="http://www.w3.org/2000/svg" width="100" height="100" viewBox="0 0 100 100" fill="none">
  <rect x="0.5" y="0.5" width="99" height="99" rx="16.0289" fill="white"></rect>
  <rect x="0.5" y="0.5" width="99" height="99" rx="16.0289" stroke="#E3EDFD"></rect>
  <path d="M61.6301 44.935C62.63 44.935 63.6082 45.0219 64.5651 45.1741V42.6088C64.5651 39.6741 62.1954 37.3045 59.2827 37.3045H53.7141V33.7554C53.7141 31.1336 51.5805 29 48.9587 29H40.6239C38.0021 29 35.8685 31.1336 35.8685 33.7554V37.3045H30.3042C27.391 37.3045 25 39.6741 25 42.6088V61.7828C25 64.6959 27.391 67.0871 30.3042 67.0871H44.4782C44.1088 65.674 43.9129 64.1958 43.9129 62.6524C43.9129 52.8915 51.8693 44.935 61.6301 44.935ZM40.2163 33.7554C40.2163 33.5304 40.3989 33.3478 40.6239 33.3478H48.9587C49.1837 33.3478 49.3663 33.5304 49.3663 33.7554V37.2997H40.2163V33.7554Z" fill="#020A45"></path>
  <path d="M61.6301 49.2828C54.2608 49.2828 48.2607 55.2611 48.2607 62.6525C48.2607 70.0437 54.2608 76.0219 61.6301 76.0219C69.0217 76.0219 75 70.0437 75 62.6525C75 55.2611 69.0217 49.2828 61.6301 49.2828ZM66.1738 67.6307C65.3591 68.4456 63.972 68.4937 63.1082 67.6307L60.1085 64.6307C59.6955 64.2176 59.4562 63.6741 59.4562 63.0871V56.0219C59.4562 54.8045 60.4343 53.848 61.6301 53.848C62.8476 53.848 63.804 54.8045 63.804 56.0219V62.1959L66.1738 64.5438C67.0214 65.3916 67.0214 66.7828 66.1738 67.6307Z" fill="#020A45"></path>
  <mask id="mask0_5730_5490" style="mask-type:alpha" maskUnits="userSpaceOnUse" x="25" y="29" width="50" height="48">
    <path d="M61.6301 44.935C62.63 44.935 63.6082 45.0219 64.5651 45.1741V42.6088C64.5651 39.6741 62.1954 37.3045 59.2827 37.3045H53.7141V33.7554C53.7141 31.1336 51.5805 29 48.9587 29H40.6239C38.0021 29 35.8685 31.1336 35.8685 33.7554V37.3045H30.3042C27.391 37.3045 25 39.6741 25 42.6088V61.7828C25 64.6959 27.391 67.0871 30.3042 67.0871H44.4782C44.1088 65.674 43.9129 64.1958 43.9129 62.6524C43.9129 52.8915 51.8693 44.935 61.6301 44.935ZM40.2163 33.7554C40.2163 33.5304 40.3989 33.3478 40.6239 33.3478H48.9587C49.1837 33.3478 49.3663 33.5304 49.3663 33.7554V37.2997H40.2163V33.7554Z" fill="#FFC907"></path>
    <path d="M61.6301 49.2828C54.2608 49.2828 48.2607 55.2611 48.2607 62.6525C48.2607 70.0437 54.2608 76.0219 61.6301 76.0219C69.0217 76.0219 75 70.0437 75 62.6525C75 55.2611 69.0217 49.2828 61.6301 49.2828ZM66.1738 67.6307C65.3591 68.4456 63.972 68.4937 63.1082 67.6307L60.1085 64.6307C59.6955 64.2176 59.4562 63.6741 59.4562 63.0871V56.0219C59.4562 54.8045 60.4343 53.848 61.6301 53.848C62.8476 53.848 63.804 54.8045 63.804 56.0219V62.1959L66.1738 64.5438C67.0214 65.3916 67.0214 66.7828 66.1738 67.6307Z" fill="#FFC907"></path>
  </mask>
  <g mask="url(#mask0_5730_5490)">
    <path d="M57 47L73 48L83 73L69.5 81L52.5 82L47 68.5L46 58.5L50 52L57 47Z" fill="#FFC907"></path>
  </g>
</svg>
