<?xml version="1.0" encoding="UTF-8"?>
<svg xmlns="http://www.w3.org/2000/svg" width="100" height="100" viewBox="0 0 100 100" fill="none">
  <rect x="0.5" y="0.5" width="99" height="99" rx="16.0289" fill="white"></rect>
  <rect x="0.5" y="0.5" width="99" height="99" rx="16.0289" stroke="#E3EDFD"></rect>
  <path fill-rule="evenodd" clip-rule="evenodd" d="M56.7613 74.0795C54.8313 78.687 52.2557 81.5344 49.4966 81.5344C46.7375 81.5344 44.1619 78.687 42.232 74.0795C41.6679 72.7407 41.165 71.2593 40.7369 69.6555H58.2563C57.8214 71.2525 57.3185 72.7407 56.7613 74.0795ZM58.732 67.7527C59.5203 64.2257 59.996 60.2298 60.0572 55.9756H38.9496C39.0108 60.2298 39.4797 64.2257 40.2748 67.7527H58.7388H58.732ZM37.04 55.9756H23C23.1495 60.2298 24.3048 64.2325 26.2348 67.7527H38.3176C37.5497 64.1985 37.0944 60.2026 37.04 55.9756ZM38.7729 69.6623H27.3833C28.3686 71.1437 29.4967 72.5233 30.7471 73.7737C34.4033 77.4298 39.1127 80.019 44.393 81.0519C42.8979 79.5637 41.5728 77.4366 40.4787 74.8134C39.8263 73.264 39.2554 71.5311 38.7729 69.6623ZM58.5213 74.8134C57.4204 77.4298 56.0953 79.5569 54.607 81.0519C59.8805 80.019 64.5967 77.4298 68.2529 73.7737C69.5033 72.5233 70.6314 71.1437 71.6167 69.6623H60.2339C59.7514 71.5379 59.1737 73.264 58.5281 74.8134H58.5213ZM61.96 55.9756C61.8988 60.2026 61.4435 64.1917 60.6824 67.7527H72.7652C74.6952 64.2325 75.8505 60.2366 76 55.9756H61.96ZM47.1589 37.6951V43.655H52.2013V37.6951H47.1589ZM67.947 36.2068L54.1109 40.8687V44.6064C54.1109 45.1364 53.6828 45.5578 53.1595 45.5578H46.2143C45.6842 45.5578 45.2629 45.1296 45.2629 44.6064V40.8687L31.4267 36.2068V53.3797H67.9606V36.2068H67.947ZM30.6928 33.9574L29.9181 33.6992V25.3336H40.7165V21.8202C40.7165 21.0455 41.0291 20.3456 41.532 19.8359C42.0417 19.3194 42.7416 19 43.5096 19H55.8506C56.6185 19 57.3253 19.3194 57.8282 19.8359C58.3311 20.3456 58.6437 21.0523 58.6437 21.8202V25.3336H69.4421V33.6992L68.6674 33.9574C68.613 33.971 68.5655 33.9846 68.5179 34.005L54.1041 38.864V36.7369C54.1041 36.2068 53.676 35.7855 53.1527 35.7855H46.2075C45.6774 35.7855 45.2561 36.2136 45.2561 36.7369V38.864L30.8423 34.005C30.7947 33.9846 30.7471 33.9642 30.6928 33.9574ZM42.6261 25.3268H56.7409V21.8134C56.7409 21.5552 56.6389 21.3309 56.4758 21.161C56.3195 20.9979 56.0953 20.9028 55.8506 20.9028H43.5096C43.2649 20.9028 43.0474 21.0047 42.8843 21.161C42.7212 21.3241 42.6193 21.5552 42.6193 21.8134V25.3268H42.6261Z" fill="#020A45"></path>
  <mask id="mask0_5725_5302" style="mask-type:alpha" maskUnits="userSpaceOnUse" x="23" y="19" width="53" height="63">
    <path fill-rule="evenodd" clip-rule="evenodd" d="M56.7613 74.0795C54.8313 78.687 52.2557 81.5344 49.4966 81.5344C46.7375 81.5344 44.1619 78.687 42.232 74.0795C41.6679 72.7407 41.165 71.2593 40.7369 69.6555H58.2563C57.8214 71.2525 57.3185 72.7407 56.7613 74.0795ZM58.732 67.7527C59.5203 64.2257 59.996 60.2298 60.0572 55.9756H38.9496C39.0108 60.2298 39.4797 64.2257 40.2748 67.7527H58.7388H58.732ZM37.04 55.9756H23C23.1495 60.2298 24.3048 64.2325 26.2348 67.7527H38.3176C37.5497 64.1985 37.0944 60.2026 37.04 55.9756ZM38.7729 69.6623H27.3833C28.3686 71.1437 29.4967 72.5233 30.7471 73.7737C34.4033 77.4298 39.1127 80.019 44.393 81.0519C42.8979 79.5637 41.5728 77.4366 40.4787 74.8134C39.8263 73.264 39.2554 71.5311 38.7729 69.6623ZM58.5213 74.8134C57.4204 77.4298 56.0953 79.5569 54.607 81.0519C59.8805 80.019 64.5967 77.4298 68.2529 73.7737C69.5033 72.5233 70.6314 71.1437 71.6167 69.6623H60.2339C59.7514 71.5379 59.1737 73.264 58.5281 74.8134H58.5213ZM61.96 55.9756C61.8988 60.2026 61.4435 64.1917 60.6824 67.7527H72.7652C74.6952 64.2325 75.8505 60.2366 76 55.9756H61.96ZM47.1589 37.6951V43.655H52.2013V37.6951H47.1589ZM67.947 36.2068L54.1109 40.8687V44.6064C54.1109 45.1364 53.6828 45.5578 53.1595 45.5578H46.2143C45.6842 45.5578 45.2629 45.1296 45.2629 44.6064V40.8687L31.4267 36.2068V53.3797H67.9606V36.2068H67.947ZM30.6928 33.9574L29.9181 33.6992V25.3336H40.7165V21.8202C40.7165 21.0455 41.0291 20.3456 41.532 19.8359C42.0417 19.3194 42.7416 19 43.5096 19H55.8506C56.6185 19 57.3253 19.3194 57.8282 19.8359C58.3311 20.3456 58.6437 21.0523 58.6437 21.8202V25.3336H69.4421V33.6992L68.6674 33.9574C68.613 33.971 68.5655 33.9846 68.5179 34.005L54.1041 38.864V36.7369C54.1041 36.2068 53.676 35.7855 53.1527 35.7855H46.2075C45.6774 35.7855 45.2561 36.2136 45.2561 36.7369V38.864L30.8423 34.005C30.7947 33.9846 30.7471 33.9642 30.6928 33.9574ZM42.6261 25.3268H56.7409V21.8134C56.7409 21.5552 56.6389 21.3309 56.4758 21.161C56.3195 20.9979 56.0953 20.9028 55.8506 20.9028H43.5096C43.2649 20.9028 43.0474 21.0047 42.8843 21.161C42.7212 21.3241 42.6193 21.5552 42.6193 21.8134V25.3268H42.6261Z" fill="#FFC907"></path>
  </mask>
  <g mask="url(#mask0_5725_5302)">
    <rect x="9" y="9" width="69" height="45" fill="#FFC907"></rect>
  </g>
</svg>
