<?xml version="1.0" encoding="UTF-8"?>
<svg xmlns="http://www.w3.org/2000/svg" width="35" height="34" viewBox="0 0 35 34" fill="none">
  <path d="M8.32104 3.30234C7.00972 1.99102 4.88479 1.99102 3.57461 3.30234C2.45192 4.42503 2.29851 6.14315 3.09962 7.43743C2.38714 8.64534 1.52467 10.3896 1.13719 11.5737C0.558797 13.2861 0.265625 15.086 0.265625 16.9246C0.265625 18.7632 0.558797 20.5631 1.13832 22.2744C1.28264 22.7006 1.68035 22.9699 2.10761 22.9699C2.2167 22.9699 2.32692 22.9517 2.43601 22.9153C2.97122 22.7346 3.25757 22.154 3.07689 21.6188C2.56782 20.12 2.31101 18.5405 2.31101 16.9246C2.31101 15.3088 2.56896 13.7293 3.07917 12.2202C3.3837 11.2907 4.07686 9.86007 4.68366 8.78624C5.89612 9.27827 7.33812 9.03283 8.32104 8.04991C9.63236 6.73859 9.63236 4.61252 8.32104 3.30234Z" fill="#FFC907"/>
  <path d="M34.1287 16.9247C34.1287 15.0861 33.8356 13.2862 33.256 11.5749C33.0754 11.0397 32.4947 10.7533 31.9595 10.934C31.4243 11.1147 31.1379 11.6953 31.3186 12.2306C31.8265 13.7294 32.0834 15.3089 32.0834 16.9247C32.0834 18.5406 31.8254 20.1201 31.3152 21.6291C30.9913 22.6188 30.2686 23.9779 29.6221 25.0369C28.4278 24.5904 27.0335 24.8404 26.0733 25.8005C24.762 27.1119 24.762 29.2368 26.0733 30.547C27.3835 31.8583 29.5096 31.8583 30.8198 30.547C31.9709 29.3959 32.1095 27.6164 31.2379 26.3119C31.997 25.0972 32.8606 23.4859 33.256 22.2745C33.8356 20.5632 34.1287 18.7633 34.1287 16.9247Z" fill="#FFC907"/>
  <path d="M30.8194 3.30214C29.6922 2.17491 27.965 2.02378 26.6684 2.83511C25.5537 2.14764 23.8833 1.30221 22.547 0.864726C20.8357 0.286336 19.0357 -0.00683594 17.1972 -0.00683594C15.3586 -0.00683594 13.5575 0.286336 11.8474 0.865862C11.3121 1.04654 11.0258 1.6272 11.2065 2.16241C11.3871 2.69762 11.9667 2.98397 12.503 2.8033C15.5018 1.78856 18.8835 1.78515 21.9016 2.80671C22.8583 3.1192 24.2503 3.78622 25.3321 4.42597C24.8469 5.63502 25.0935 7.06906 26.073 8.04858C27.3832 9.3599 29.5093 9.3599 30.8194 8.04858C32.1308 6.73839 32.1308 4.61233 30.8194 3.30214Z" fill="#FFC907"/>
  <path d="M23.1863 31.6862C23.0056 31.151 22.4238 30.8635 21.8898 31.0453C18.891 32.06 15.5093 32.0634 12.4912 31.0419C11.5197 30.7237 10.1049 30.0396 9.0527 29.4442C9.54927 28.2306 9.30496 26.7852 8.31977 25.8C7.00845 24.4898 4.88352 24.4898 3.57333 25.8C2.26201 27.1113 2.26201 29.2363 3.57333 30.5465C4.69375 31.6669 6.40733 31.8214 7.70047 31.0248C8.8902 31.7282 10.6401 32.5884 11.8446 32.9827C13.5571 33.5623 15.357 33.8554 17.1956 33.8554C19.0342 33.8554 20.8341 33.5623 22.5454 32.9827C23.0806 32.8021 23.3681 32.2214 23.1863 31.6862Z" fill="#FFC907"/>
  <path d="M11.9726 16.0725C12.0703 13.4839 12.6101 10.8852 13.6396 9.0625C10.8942 10.3068 8.93408 12.9453 8.625 16.0725H11.9726Z" fill="#333333"/>
  <path d="M8.625 17.7769C8.93408 20.904 10.8954 23.5426 13.6396 24.7868C12.6101 22.9642 12.0703 20.3643 11.9726 17.7769H8.625Z" fill="#333333"/>
  <path d="M20.7194 16.0724C20.5432 11.7032 19.0331 8.28857 17.1956 8.28857C15.3582 8.28857 13.848 11.7032 13.6719 16.0724H20.7194Z" fill="#333333"/>
  <path d="M13.6719 17.7769C13.8469 22.146 15.3582 25.5607 17.1956 25.5607C19.0331 25.5607 20.5432 22.146 20.7194 17.7769H13.6719Z" fill="#333333"/>
  <path d="M22.4209 17.7769C22.3232 20.3654 21.7834 22.9642 20.7539 24.7868C23.4993 23.5426 25.4594 20.904 25.7685 17.7769H22.4209Z" fill="#333333"/>
  <path d="M25.7685 16.0725C25.4594 12.9442 23.4981 10.3068 20.7539 9.0625C21.7834 10.8852 22.3232 13.4851 22.4209 16.0725H25.7685Z" fill="#333333"/>
</svg>