<?xml version="1.0" encoding="UTF-8"?>
<svg xmlns="http://www.w3.org/2000/svg" width="24" height="24" viewBox="0 0 24 24" fill="none">
  <g clip-path="url(#clip0_4_43425)">
    <path d="M24.0007 6.10219C23.9177 6.50506 23.8525 6.91384 23.7399 7.30486C23.4792 8.19945 22.9933 8.96371 22.3355 9.62132C19.9236 12.0385 17.5118 14.4498 15.094 16.861C15.0584 16.8966 15.0229 16.9203 15.0051 16.944C14.3473 16.2863 13.6896 15.6287 12.9844 14.9237C13.0436 14.8882 13.1266 14.8467 13.1859 14.7875C15.5503 12.4236 17.9147 10.0657 20.2792 7.69587C21.2866 6.68871 21.4703 5.30239 20.7651 4.1412C19.8644 2.666 17.8022 2.35793 16.5162 3.52505C16.054 3.94569 15.6273 4.40187 15.1829 4.84028C15.1236 4.89953 15.0584 4.95877 15.011 5.00024C14.3533 4.34263 13.7073 3.69094 13.0318 3.01555C13.0318 3.0511 13.0259 3.0274 13.0318 3.02147C13.7192 2.36386 14.3533 1.63515 15.1059 1.0664C17.5177 -0.75241 21.0733 -0.183662 22.8629 2.24537C23.4614 3.05702 23.8229 3.95161 23.9473 4.94692C23.9533 5.01209 23.977 5.08319 23.9947 5.14835V6.08442L24.0007 6.10219Z" fill="#030D49"/>
    <path d="M17.9069 24C17.504 23.9111 17.0951 23.8519 16.6981 23.7334C15.8032 23.4727 15.0388 22.9869 14.381 22.3293C11.9692 19.918 9.55731 17.5068 7.13954 15.0896C7.10398 15.054 7.08028 15.0185 7.0625 15.0007C7.72028 14.3372 8.37806 13.6855 9.07731 12.9805C9.1188 13.0397 9.15435 13.1227 9.21361 13.1819C11.5781 15.5517 13.9484 17.9215 16.3188 20.2913C17.3144 21.2866 18.7069 21.4643 19.8506 20.7593C21.3262 19.8588 21.6344 17.7971 20.4729 16.5114C20.0521 16.0493 19.5958 15.6228 19.1573 15.1784C19.0981 15.1192 19.021 15.0777 18.9677 15.0363C19.6551 14.349 20.3129 13.6973 20.9825 13.0279C21.8832 13.9817 22.9973 14.8052 23.5069 16.1086C23.7025 16.6062 23.8032 17.1394 23.9455 17.6549C23.9692 17.7378 23.981 17.8208 23.9988 17.9037V18.8398C23.981 18.9227 23.9632 19.0056 23.9514 19.0886C23.5899 21.3221 22.3632 22.8565 20.2477 23.6623C19.8032 23.8341 19.3114 23.8874 18.8432 24H17.9069Z" fill="#E94444"/>
    <path d="M5.15689 24.0005C4.65912 23.882 4.14356 23.799 3.66356 23.6332C1.21615 22.786 -0.348292 20.1081 0.0665228 17.5487C0.268004 16.3224 0.789486 15.2678 1.66652 14.391C4.0843 11.9679 6.50208 9.55071 8.91986 7.13353C8.94949 7.10391 8.97912 7.08021 8.99097 7.06836C9.64875 7.72597 10.3006 8.38359 11.0117 9.0886C10.9584 9.11822 10.8754 9.15377 10.8162 9.21302C8.44578 11.5769 6.07541 13.9467 3.71097 16.3164C2.70949 17.3177 2.53171 18.7218 3.24875 19.8711C4.15541 21.3345 6.21171 21.6366 7.47986 20.4754C8.00134 19.9955 8.46949 19.4564 8.94949 18.9588C9.64875 19.6578 10.2947 20.3155 10.9643 20.9849C9.89171 22.0454 8.91393 23.2895 7.32578 23.7279C6.92282 23.8405 6.508 23.9116 6.09319 24.0005H5.15689Z" fill="#030D49"/>
    <path d="M5.04873 8.96412C4.34354 9.66914 3.69762 10.3149 3.03391 10.9784C1.96132 9.89427 0.764283 8.89896 0.266505 7.3349C-0.43868 5.14285 0.355394 2.52423 2.21021 1.17346C4.06502 -0.177322 6.05021 -0.355056 8.13021 0.604707C8.69317 0.865383 9.18502 1.24455 9.62354 1.68296C12.1421 4.20086 14.6606 6.71875 17.1791 9.23665C17.2028 9.26035 17.2206 9.28405 17.2265 9.28997C16.5687 9.94759 15.9109 10.5993 15.2472 11.2687C15.2117 11.2391 15.1524 11.1799 15.0932 11.1266C12.628 8.66198 10.1687 6.20332 7.70354 3.73875C6.69613 2.73159 5.30947 2.54201 4.15391 3.25294C2.67836 4.15346 2.36428 6.2211 3.53169 7.49486C4.01169 8.01621 4.54502 8.48424 5.04873 8.97005V8.96412Z" fill="#E94444"/>
  </g>
  <defs>
    <clipPath id="clip0_4_43425">
      <rect width="24" height="24" fill="white"/>
    </clipPath>
  </defs>
</svg>