<?xml version="1.0" encoding="UTF-8"?>
<svg xmlns="http://www.w3.org/2000/svg" width="37" height="50" viewBox="0 0 37 50" fill="none">
  <path d="M36.0001 10.8654L34.8561 7.97861C34.4308 6.90095 33.5825 6.0982 32.5447 5.70215V4.09793C32.5447 1.83822 30.6954 0 28.4232 0H8.79534C6.52256 0 4.67318 1.83822 4.67318 4.09793V5.61937C3.53319 5.98241 2.59828 6.83379 2.14452 7.99227L0.978351 10.9721C0.329171 12.6327 0 14.3779 0 16.1582V45.8448C0 48.1358 1.8749 50 4.17975 50H32.8196C35.1244 50 37 48.1358 37 45.8448V16.1036C37 14.3024 36.6636 12.5403 36.0001 10.8654ZM7.35367 4.09793C7.35367 3.30762 8.00023 2.66431 8.79534 2.66431H28.4232C29.2177 2.66431 29.8643 3.30762 29.8643 4.09793V5.42423H7.35367V4.09793ZM34.3195 45.8448C34.3195 46.667 33.6468 47.3357 32.8196 47.3357H4.17975C3.35323 47.3357 2.68049 46.667 2.68049 45.8448V16.1582C2.68049 14.709 2.94814 13.289 3.47691 11.9373L4.64308 8.95821C4.84987 8.43004 5.35181 8.08854 5.92181 8.08854H31.0854C31.6534 8.08854 32.1547 8.42743 32.3615 8.95301L33.5054 11.8411C34.046 13.2045 34.3195 14.6381 34.3195 16.1036V45.8448ZM13.5621 14.4449H10.8018C9.10881 14.4449 7.73126 15.8135 7.73126 17.4962V19.5628C7.73126 21.2455 9.10881 22.6147 10.8018 22.6147H13.5621C15.2551 22.6147 16.6326 21.2455 16.6326 19.5628V17.4962C16.6326 15.8135 15.2551 14.4449 13.5621 14.4449ZM13.9521 19.5628C13.9521 19.7768 13.7774 19.9504 13.5621 19.9504H10.8018C10.5865 19.9504 10.4118 19.7768 10.4118 19.5628V17.4962C10.4118 17.2829 10.5865 17.1092 10.8018 17.1092H13.5621C13.7774 17.1092 13.9521 17.2829 13.9521 17.4962V19.5628ZM26.4168 14.4449H23.6565C21.9628 14.4449 20.5859 15.8135 20.5859 17.4962V19.5628C20.5859 21.2455 21.9628 22.6147 23.6565 22.6147H26.4168C28.1104 22.6147 29.4873 21.2455 29.4873 19.5628V17.4962C29.4873 15.8135 28.1104 14.4449 26.4168 14.4449ZM26.8068 19.5628C26.8068 19.7768 26.6314 19.9504 26.4168 19.9504H23.6565C23.4418 19.9504 23.2664 19.7768 23.2664 19.5628V17.4962C23.2664 17.2829 23.4418 17.1092 23.6565 17.1092H26.4168C26.6314 17.1092 26.8068 17.2829 26.8068 17.4962V19.5628ZM13.5621 28.0286H10.8018C9.10881 28.0286 7.73126 29.3971 7.73126 31.0806V33.1464C7.73126 34.8298 9.10881 36.1984 10.8018 36.1984H13.5621C15.2551 36.1984 16.6326 34.8298 16.6326 33.1464V31.0806C16.6326 29.3971 15.2551 28.0286 13.5621 28.0286ZM13.9521 33.1464C13.9521 33.3598 13.7774 33.5341 13.5621 33.5341H10.8018C10.5865 33.5341 10.4118 33.3598 10.4118 33.1464V31.0806C10.4118 30.8672 10.5865 30.6929 10.8018 30.6929H13.5621C13.7774 30.6929 13.9521 30.8672 13.9521 31.0806V33.1464ZM26.4168 28.0286H23.6565C21.9628 28.0286 20.5859 29.3971 20.5859 31.0806V33.1464C20.5859 34.8298 21.9628 36.1984 23.6565 36.1984H26.4168C28.1104 36.1984 29.4873 34.8298 29.4873 33.1464V31.0806C29.4873 29.3971 28.1104 28.0286 26.4168 28.0286ZM26.8068 33.1464C26.8068 33.3598 26.6314 33.5341 26.4168 33.5341H23.6565C23.4418 33.5341 23.2664 33.3598 23.2664 33.1464V31.0806C23.2664 30.8672 23.4418 30.6929 23.6565 30.6929H26.4168C26.6314 30.6929 26.8068 30.8672 26.8068 31.0806V33.1464Z" fill="#091135"/>
</svg>