<?xml version="1.0" encoding="UTF-8"?>
<svg xmlns="http://www.w3.org/2000/svg" width="100" height="100" viewBox="0 0 100 100" fill="none">
  <rect x="0.5" y="0.5" width="99" height="99" rx="16.0289" fill="white"></rect>
  <rect x="0.5" y="0.5" width="99" height="99" rx="16.0289" stroke="#E3EDFD"></rect>
  <path d="M68.9832 41.4295C74.357 41.4295 78.7133 36.9321 78.7133 31.3843C78.7133 25.8366 74.357 21.3392 68.9832 21.3392C63.6094 21.3392 59.2532 25.8366 59.2532 31.3843C59.2532 35.0594 61.1647 38.2734 64.0174 40.0246L63.9924 37.6123C63.9641 37.4365 63.9498 37.2585 63.9498 37.0792C63.9498 35.7042 64.789 34.4776 66.1037 33.741C66.8858 34.661 67.9389 35.2265 69.112 35.2265C70.2322 35.2265 71.2432 34.7108 72.013 33.8632C73.2111 34.6106 73.9605 35.7802 73.9605 37.0792C73.9605 37.2585 73.9462 37.4365 73.9179 37.6123L73.8924 40.0591C72.4513 40.9302 70.7737 41.4295 68.9832 41.4295ZM63.3512 21.5801C64.9953 20.5762 66.9135 20 68.9621 20C75.0581 20 80 25.1018 80 31.3952C80 33.47 79.4629 35.4152 78.5244 37.0908C79.4301 39.7026 79.9223 42.5076 79.9229 45.4275L79.9235 48.7907H51.1579V20H54.5176C57.6237 20 60.5998 20.5583 63.3512 21.5801ZM69.8084 51.7063V55.069C69.8084 69.11 58.4316 80.4971 44.4032 80.4971C30.3743 80.4971 19 69.1118 19 55.069C19 41.0264 30.374 29.643 44.4032 29.643H47.7627V51.7063H69.8084ZM69.0441 41.2035L69.8562 39.629L69.3117 36.8023L69.71 35.8532C69.7213 35.7991 69.6867 35.746 69.6326 35.7347C69.6258 35.7333 69.619 35.7326 69.6121 35.7326H68.2985C68.2432 35.7326 68.1985 35.7774 68.1985 35.8327C68.1985 35.8396 68.199 35.8464 68.2004 35.8531L68.5986 36.8023L68.0541 39.629L68.8662 41.2035C68.8915 41.2526 68.9519 41.2719 69.001 41.2466C69.0195 41.237 69.0346 41.222 69.0441 41.2035ZM69.112 34.348C67.1625 34.348 65.5597 32.2774 65.5597 29.6845C65.5597 27.0917 67.1625 25.0212 69.112 25.0212C71.0614 25.0212 72.6642 27.0917 72.6642 29.6845C72.6642 32.2774 71.0614 34.348 69.112 34.348Z" fill="#020A45"></path>
  <mask id="mask0_5725_5352" style="mask-type:alpha" maskUnits="userSpaceOnUse" x="19" y="20" width="61" height="61">
    <path d="M68.9832 41.4295C74.357 41.4295 78.7133 36.9321 78.7133 31.3843C78.7133 25.8366 74.357 21.3392 68.9832 21.3392C63.6094 21.3392 59.2532 25.8366 59.2532 31.3843C59.2532 35.0594 61.1647 38.2734 64.0174 40.0246L63.9924 37.6123C63.9641 37.4365 63.9498 37.2585 63.9498 37.0792C63.9498 35.7042 64.789 34.4776 66.1037 33.741C66.8858 34.661 67.9389 35.2265 69.112 35.2265C70.2322 35.2265 71.2432 34.7108 72.013 33.8632C73.2111 34.6106 73.9605 35.7802 73.9605 37.0792C73.9605 37.2585 73.9462 37.4365 73.9179 37.6123L73.8924 40.0591C72.4513 40.9302 70.7737 41.4295 68.9832 41.4295ZM63.3512 21.5801C64.9953 20.5762 66.9135 20 68.9621 20C75.0581 20 80 25.1018 80 31.3952C80 33.47 79.4629 35.4152 78.5244 37.0908C79.4301 39.7026 79.9223 42.5076 79.9229 45.4275L79.9235 48.7907H51.1579V20H54.5176C57.6237 20 60.5998 20.5583 63.3512 21.5801ZM69.8084 51.7063V55.069C69.8084 69.11 58.4316 80.4971 44.4032 80.4971C30.3743 80.4971 19 69.1118 19 55.069C19 41.0264 30.374 29.643 44.4032 29.643H47.7627V51.7063H69.8084ZM69.0441 41.2035L69.8562 39.629L69.3117 36.8023L69.71 35.8532C69.7213 35.7991 69.6867 35.746 69.6326 35.7347C69.6258 35.7333 69.619 35.7326 69.6121 35.7326H68.2985C68.2432 35.7326 68.1985 35.7774 68.1985 35.8327C68.1985 35.8396 68.199 35.8464 68.2004 35.8531L68.5986 36.8023L68.0541 39.629L68.8662 41.2035C68.8915 41.2526 68.9519 41.2719 69.001 41.2466C69.0195 41.237 69.0346 41.222 69.0441 41.2035ZM69.112 34.348C67.1625 34.348 65.5597 32.2774 65.5597 29.6845C65.5597 27.0917 67.1625 25.0212 69.112 25.0212C71.0614 25.0212 72.6642 27.0917 72.6642 29.6845C72.6642 32.2774 71.0614 34.348 69.112 34.348Z" fill="#FFC907"></path>
  </mask>
  <g mask="url(#mask0_5725_5352)">
    <path d="M49.5 50V15L87.5 11.5L89 50H49.5Z" fill="#FFC907"></path>
  </g>
</svg>
