<?xml version="1.0" encoding="UTF-8"?>
<svg xmlns="http://www.w3.org/2000/svg" width="100" height="100" viewBox="0 0 100 100" fill="none">
  <rect x="0.5" y="0.5" width="99" height="99" rx="16.0289" fill="white"/>
  <rect x="0.5" y="0.5" width="99" height="99" rx="16.0289" stroke="#E3EDFD"/>
  <path d="M50 30C39.2693 30 30.5404 38.7635 30.5404 49.5288C30.5404 60.2942 39.2693 69.0577 50 69.0577C60.7308 69.0577 69.4596 60.2942 69.4596 49.5288C69.4596 38.7635 60.7308 30 50 30ZM59.6923 47.0942L50.4327 56.3827C49.2154 57.6058 47.2423 57.6058 46.025 56.3827L40.3019 50.6423C38.3519 48.6865 39.7423 45.3115 42.5058 45.3115C44.1962 45.3115 44.6635 46.1769 48.2289 49.7596L55.2789 42.6865C55.8673 42.0981 56.6519 41.7692 57.4827 41.7692C60.2519 41.7692 61.6366 45.1442 59.6866 47.1L59.6923 47.0942Z" fill="#020A45"/>
  <rect x="38" y="41" width="25" height="18" fill="#020A45"/>
  <path d="M74.8712 41.6539C73.8615 38.5443 75.7712 34.1308 74.2712 32.0654C72.7538 29.9769 67.9769 30.4443 65.3635 28.5346C62.7788 26.6481 61.7519 21.9289 59.2712 21.1212C56.9058 20.3539 53.3 23.5269 50 23.5269C46.7 23.5269 43.1 20.3481 40.7288 21.1212C38.2538 21.9289 37.2269 26.6423 34.6365 28.5346C32.0231 30.4443 27.2462 29.9769 25.7288 32.0654C24.2346 34.125 26.1385 38.55 25.1288 41.6539C24.1538 44.6712 20 47.0885 20 49.7654C20 52.4423 24.1538 54.8596 25.1288 57.8769C26.1385 60.9866 24.2288 65.4 25.7288 67.4654C27.2462 69.5539 32.0231 69.0866 34.6365 70.9962C37.2212 72.8827 38.2481 77.6019 40.7288 78.4096C43.0885 79.1769 46.7 76.0039 50 76.0039C53.3 76.0039 56.9058 79.1827 59.2712 78.4096C61.7462 77.6019 62.7731 72.8885 65.3635 70.9962C67.9769 69.0866 72.7538 69.5539 74.2712 67.4654C75.7654 65.4058 73.8615 60.9808 74.8712 57.8769C75.8462 54.8596 80 52.4423 80 49.7654C80 47.0885 75.8462 44.6712 74.8712 41.6539ZM50 71.025C38.3173 71.025 28.8096 61.4885 28.8096 49.7654C28.8096 38.0423 38.3173 28.5058 50 28.5058C61.6827 28.5058 71.1904 38.0423 71.1904 49.7654C71.1904 61.4885 61.6827 71.025 50 71.025Z" fill="#FFC907"/>
  <path d="M58.5193 43.3506C57.6791 43.3506 58.0838 43.1728 49.3324 51.961C48.9889 52.3045 48.3756 52.3045 48.0322 51.961L43.6411 47.5577C43.0647 46.9812 42.1386 46.9812 41.5621 47.5577C40.9856 48.1342 40.9856 49.0786 41.5621 49.6551L47.6458 55.7572C48.2039 56.3153 49.1729 56.3153 49.7249 55.7572L59.568 45.8834C60.494 44.9513 59.8317 43.3567 58.5254 43.3567L58.5193 43.3506Z" fill="#FFC907"/>
</svg>