<?xml version="1.0" encoding="UTF-8"?>
<svg xmlns="http://www.w3.org/2000/svg" width="24" height="24" viewBox="0 0 24 24" fill="none">
  <g clip-path="url(#clip0_432_1496)">
    <path d="M9.20336 14H5.00838C2.30539 14 0.114227 11.8062 0.114227 9.1C0.114227 6.6414 1.92644 4.59525 4.29997 4.25094C5.16011 1.74177 7.53244 0 10.2521 0C12.6955 0 14.8739 1.40727 15.912 3.54378C16.1204 3.51472 16.3316 3.49999 16.5445 3.49999C18.698 3.49999 20.5227 5.0064 20.9914 7.05157C22.6354 7.33699 23.8858 8.77228 23.8858 10.5C23.8858 12.433 22.3207 14 20.39 14H14.7966L13.3983 13.9999H10.6017L9.20336 14Z" fill="#E4C200"/>
    <rect y="16" width="6.46154" height="6.44" rx="1" fill="#030D49"/>
    <path d="M8.76923 17.92C8.76923 17.3678 9.21694 16.92 9.76923 16.92H14.2308C14.783 16.92 15.2308 17.3678 15.2308 17.92V22.36C15.2308 22.9123 14.783 23.36 14.2308 23.36H9.76923C9.21694 23.36 8.76923 22.9123 8.76923 22.36V17.92Z" fill="#030D49"/>
    <rect x="17.5385" y="16" width="6.46154" height="6.44" rx="1" fill="#030D49"/>
  </g>
  <defs>
    <clipPath id="clip0_432_1496">
      <rect width="24" height="24" fill="white"/>
    </clipPath>
  </defs>
</svg>