<?xml version="1.0" encoding="UTF-8"?>
<svg xmlns="http://www.w3.org/2000/svg" width="30" height="33" viewBox="0 0 30 33" fill="none">
  <path d="M4.67763 27.2743C5.8323 27.2743 6.76835 26.3383 6.76835 25.1836C6.76835 24.0289 5.8323 23.0929 4.67763 23.0929C3.52296 23.0929 2.58691 24.0289 2.58691 25.1836C2.58691 26.3383 3.52296 27.2743 4.67763 27.2743Z" fill="#FFC907"/>
  <path d="M6.67444 25.1836C6.66442 26.0119 6.15009 26.7733 5.36524 27.0606C4.58372 27.3444 3.68532 27.104 3.15095 26.4694C2.6099 25.8282 2.53308 24.8863 2.96392 24.1649C3.39141 23.4469 4.2464 23.0628 5.06466 23.2265C5.99646 23.4101 6.66442 24.2384 6.67444 25.1836C6.67444 25.3038 6.86481 25.3038 6.86147 25.1836C6.85145 24.2752 6.28702 23.4536 5.43203 23.1329C4.57036 22.8123 3.56508 23.0862 2.98396 23.7976C2.40951 24.5023 2.32936 25.5142 2.79359 26.2957C3.26116 27.0806 4.18963 27.4947 5.08469 27.3244C6.11001 27.1307 6.84477 26.2122 6.85813 25.1802C6.86147 25.0634 6.67444 25.0634 6.67444 25.1836Z" fill="#FFC907"/>
  <path d="M8.51135 32.381H0.843157C0.529216 32.381 0.275391 32.1271 0.275391 31.8132V31.4325C0.275391 29.5154 1.8284 27.9624 3.74545 27.9624H5.60906C7.52611 27.9624 9.07912 29.5154 9.07912 31.4325V31.8132C9.08246 32.1271 8.82529 32.381 8.51135 32.381Z" fill="#FFC907"/>
  <path d="M8.51117 32.2875C7.56934 32.2875 6.62418 32.2875 5.68235 32.2875C4.28631 32.2875 2.89027 32.2875 1.49424 32.2875C1.17362 32.2875 0.639247 32.381 0.438859 32.0637C0.338665 31.9034 0.365383 31.6963 0.365383 31.516C0.365383 31.2956 0.375402 31.0751 0.41214 30.858C0.502315 30.3304 0.719402 29.8327 1.04002 29.4052C1.67459 28.5569 2.68655 28.0593 3.74527 28.056C4.33641 28.0526 4.92756 28.056 5.5187 28.056C6.47723 28.056 7.38899 28.4066 8.05695 29.108C8.42099 29.4887 8.69152 29.9563 8.84515 30.4639C8.97206 30.8948 8.9921 31.3323 8.98542 31.7765C8.98208 32.0537 8.80173 32.2741 8.51117 32.2875C8.39094 32.2908 8.39094 32.4812 8.51117 32.4745C8.77167 32.4645 9.0088 32.3242 9.11567 32.0804C9.19249 31.9067 9.17245 31.713 9.17245 31.5293C9.17245 31.0184 9.09229 30.5241 8.89525 30.0532C8.47443 29.0479 7.59272 28.273 6.54068 27.9892C5.81595 27.7921 5.01773 27.8656 4.27295 27.8656C3.97237 27.8656 3.67179 27.8522 3.37121 27.8856C2.82014 27.9457 2.28577 28.1294 1.8182 28.43C0.899751 29.0212 0.291907 30.0164 0.191712 31.1052C0.171674 31.3089 0.175013 31.5093 0.175013 31.713C0.175013 31.9268 0.211752 32.1238 0.368723 32.2808C0.532373 32.4445 0.736101 32.4745 0.953189 32.4745C2.22565 32.4745 3.50146 32.4745 4.77393 32.4745C5.99629 32.4745 7.222 32.4912 8.44437 32.4745C8.46441 32.4745 8.48779 32.4745 8.50783 32.4745C8.63474 32.4745 8.63474 32.2875 8.51117 32.2875Z" fill="#FFC907"/>
  <path d="M14.6776 27.2743C15.8323 27.2743 16.7683 26.3383 16.7683 25.1836C16.7683 24.0289 15.8323 23.0929 14.6776 23.0929C13.523 23.0929 12.5869 24.0289 12.5869 25.1836C12.5869 26.3383 13.523 27.2743 14.6776 27.2743Z" fill="#FFC907"/>
  <path d="M16.6744 25.1836C16.6644 26.0119 16.1501 26.7733 15.3652 27.0606C14.5837 27.3444 13.6853 27.104 13.1509 26.4694C12.6099 25.8282 12.5331 24.8863 12.9639 24.1649C13.3914 23.4469 14.2464 23.0628 15.0647 23.2265C15.9965 23.4101 16.6644 24.2384 16.6744 25.1836C16.6744 25.3038 16.8648 25.3038 16.8615 25.1836C16.8515 24.2752 16.287 23.4536 15.432 23.1329C14.5704 22.8123 13.5651 23.0862 12.984 23.7976C12.4095 24.5023 12.3294 25.5142 12.7936 26.2957C13.2612 27.0806 14.1896 27.4947 15.0847 27.3244C16.11 27.1307 16.8448 26.2122 16.8581 25.1802C16.8615 25.0634 16.6744 25.0634 16.6744 25.1836Z" fill="#FFC907"/>
  <path d="M18.5114 32.381H10.8432C10.5292 32.381 10.2754 32.1271 10.2754 31.8132V31.4325C10.2754 29.5154 11.8284 27.9624 13.7454 27.9624H15.6091C17.5261 27.9624 19.0791 29.5154 19.0791 31.4325V31.8132C19.0825 32.1271 18.8253 32.381 18.5114 32.381Z" fill="#FFC907"/>
  <path d="M18.5112 32.2875C17.5693 32.2875 16.6242 32.2875 15.6824 32.2875C14.2863 32.2875 12.8903 32.2875 11.4942 32.2875C11.1736 32.2875 10.6392 32.381 10.4389 32.0637C10.3387 31.9034 10.3654 31.6963 10.3654 31.516C10.3654 31.2956 10.3754 31.0751 10.4121 30.858C10.5023 30.3304 10.7194 29.8327 11.04 29.4052C11.6746 28.5569 12.6865 28.0593 13.7453 28.056C14.3364 28.0526 14.9276 28.056 15.5187 28.056C16.4772 28.056 17.389 28.4066 18.057 29.108C18.421 29.4887 18.6915 29.9563 18.8451 30.4639C18.9721 30.8948 18.9921 31.3323 18.9854 31.7765C18.9821 32.0537 18.8017 32.2741 18.5112 32.2875C18.3909 32.2908 18.3909 32.4812 18.5112 32.4745C18.7717 32.4645 19.0088 32.3242 19.1157 32.0804C19.1925 31.9067 19.1724 31.713 19.1724 31.5293C19.1724 31.0184 19.0923 30.5241 18.8952 30.0532C18.4744 29.0479 17.5927 28.273 16.5407 27.9892C15.8159 27.7921 15.0177 27.8656 14.273 27.8656C13.9724 27.8656 13.6718 27.8522 13.3712 27.8856C12.8201 27.9457 12.2858 28.1294 11.8182 28.43C10.8998 29.0212 10.2919 30.0164 10.1917 31.1052C10.1717 31.3089 10.175 31.5093 10.175 31.713C10.175 31.9268 10.2118 32.1238 10.3687 32.2808C10.5324 32.4445 10.7361 32.4745 10.9532 32.4745C12.2257 32.4745 13.5015 32.4745 14.7739 32.4745C15.9963 32.4745 17.222 32.4912 18.4444 32.4745C18.4644 32.4745 18.4878 32.4745 18.5078 32.4745C18.6347 32.4745 18.6347 32.2875 18.5112 32.2875Z" fill="#FFC907"/>
  <path d="M24.6776 27.2743C25.8323 27.2743 26.7683 26.3383 26.7683 25.1836C26.7683 24.0289 25.8323 23.0929 24.6776 23.0929C23.523 23.0929 22.5869 24.0289 22.5869 25.1836C22.5869 26.3383 23.523 27.2743 24.6776 27.2743Z" fill="#FFC907"/>
  <path d="M26.6744 25.1836C26.6644 26.0119 26.1501 26.7733 25.3652 27.0606C24.5837 27.3444 23.6853 27.104 23.1509 26.4694C22.6099 25.8282 22.5331 24.8863 22.9639 24.1649C23.3914 23.4469 24.2464 23.0628 25.0647 23.2265C25.9965 23.4101 26.6644 24.2384 26.6744 25.1836C26.6744 25.3038 26.8648 25.3038 26.8615 25.1836C26.8515 24.2752 26.287 23.4536 25.432 23.1329C24.5704 22.8123 23.5651 23.0862 22.984 23.7976C22.4095 24.5023 22.3294 25.5142 22.7936 26.2957C23.2612 27.0806 24.1896 27.4947 25.0847 27.3244C26.11 27.1307 26.8448 26.2122 26.8581 25.1802C26.8615 25.0634 26.6744 25.0634 26.6744 25.1836Z" fill="#FFC907"/>
  <path d="M28.5114 32.381H20.8432C20.5292 32.381 20.2754 32.1271 20.2754 31.8132V31.4325C20.2754 29.5154 21.8284 27.9624 23.7454 27.9624H25.6091C27.5261 27.9624 29.0791 29.5154 29.0791 31.4325V31.8132C29.0825 32.1271 28.8253 32.381 28.5114 32.381Z" fill="#FFC907"/>
  <path d="M28.5112 32.2875C27.5693 32.2875 26.6242 32.2875 25.6824 32.2875C24.2863 32.2875 22.8903 32.2875 21.4942 32.2875C21.1736 32.2875 20.6392 32.381 20.4389 32.0637C20.3387 31.9034 20.3654 31.6963 20.3654 31.516C20.3654 31.2956 20.3754 31.0751 20.4121 30.858C20.5023 30.3304 20.7194 29.8327 21.04 29.4052C21.6746 28.5569 22.6865 28.0593 23.7453 28.056C24.3364 28.0526 24.9276 28.056 25.5187 28.056C26.4772 28.056 27.389 28.4066 28.057 29.108C28.421 29.4887 28.6915 29.9563 28.8451 30.4639C28.9721 30.8948 28.9921 31.3323 28.9854 31.7765C28.9821 32.0537 28.8017 32.2741 28.5112 32.2875C28.3909 32.2908 28.3909 32.4812 28.5112 32.4745C28.7717 32.4645 29.0088 32.3242 29.1157 32.0804C29.1925 31.9067 29.1724 31.713 29.1724 31.5293C29.1724 31.0184 29.0923 30.5241 28.8952 30.0532C28.4744 29.0479 27.5927 28.273 26.5407 27.9892C25.8159 27.7921 25.0177 27.8656 24.273 27.8656C23.9724 27.8656 23.6718 27.8522 23.3712 27.8856C22.8201 27.9457 22.2858 28.1294 21.8182 28.43C20.8998 29.0212 20.2919 30.0164 20.1917 31.1052C20.1717 31.3089 20.175 31.5093 20.175 31.713C20.175 31.9268 20.2118 32.1238 20.3687 32.2808C20.5324 32.4445 20.7361 32.4745 20.9532 32.4745C22.2257 32.4745 23.5015 32.4745 24.7739 32.4745C25.9963 32.4745 27.222 32.4912 28.4444 32.4745C28.4644 32.4745 28.4878 32.4745 28.5078 32.4745C28.6347 32.4745 28.6347 32.2875 28.5112 32.2875Z" fill="#FFC907"/>
  <path d="M23.3062 20.525V21.6219H25.4999V19.4281C25.4999 18.8224 25.0088 18.3312 24.403 18.3312H20.564V17.2344H22.2093C25.2332 17.2344 27.6937 14.7739 27.6937 11.75C27.6937 8.7261 25.2332 6.26562 22.2093 6.26562C22.1002 6.26562 22.0013 6.29809 21.9019 6.32769C20.9751 3.12885 18.0248 0.78125 14.5312 0.78125C11.0375 0.78125 8.08721 3.12885 7.16039 6.32769C7.06097 6.29809 6.96209 6.26562 6.85303 6.26562C3.82912 6.26562 1.36865 8.7261 1.36865 11.75C1.36865 14.7739 3.82912 17.2344 6.85303 17.2344H8.49834V18.3312H4.65928C4.05353 18.3312 3.5624 18.8224 3.5624 19.4281V21.6219H5.75615V20.525H9.59521C10.201 20.525 10.6921 20.0339 10.6921 19.4281V17.2344H13.4343V21.6219H15.628V17.2344H18.3702V19.4281C18.3702 20.0339 18.8613 20.525 19.4671 20.525H23.3062Z" fill="#020A45"/>
</svg>