<?xml version="1.0" encoding="UTF-8"?>
<svg xmlns="http://www.w3.org/2000/svg" width="33" height="33" viewBox="0 0 33 33" fill="none">
  <g clip-path="url(#clip0_890_1489)">
    <path d="M16.0605 25.3983C11.5284 25.1349 7.84487 21.4386 7.59967 16.9056C7.35624 12.4054 10.417 8.58353 14.5748 7.63334C15.0429 7.52636 15.3667 7.09722 15.3667 6.61705V1.86526C15.3667 1.23717 14.8111 0.741977 14.1903 0.836896C6.6226 1.99384 0.828491 8.51693 0.828491 16.4049C0.828491 25.1152 7.88852 32.1752 16.595 32.1752C20.0715 32.1752 23.2767 31.0405 25.8809 29.135C26.3973 28.7572 26.4611 28.0105 26.0089 27.5579L22.6294 24.1759C22.2889 23.835 21.7615 23.7899 21.3532 24.0458C19.8331 24.9985 18.0138 25.5118 16.0605 25.3983Z" fill="#333333"/>
    <path d="M26.3731 15.1765H31.1312C31.7731 15.1765 32.253 14.6005 32.1549 13.9661C31.1114 7.21633 25.7846 1.89199 19.0346 0.842479C18.4 0.74381 17.8234 1.22381 17.8234 1.86603V6.6274C17.8234 7.11761 18.169 7.5301 18.6463 7.6418C21.9687 8.41927 24.5832 11.031 25.3586 14.3528C25.4701 14.8305 25.8827 15.1765 26.3731 15.1765Z" fill="#FFC907"/>
    <path d="M24.3785 22.4496L27.7442 25.8206C28.1966 26.2737 28.9444 26.2105 29.3222 25.6935C30.7718 23.71 31.7674 21.3757 32.1588 18.8425C32.2567 18.2086 31.7761 17.6333 31.1347 17.6333H26.374C25.8978 17.6333 25.4737 17.9555 25.3679 18.4198C25.1438 19.4031 24.7589 20.3243 24.2423 21.1552C23.9845 21.5699 24.0334 22.104 24.3785 22.4496Z" fill="#333333"/>
  </g>
  <defs>
    <clipPath id="clip0_890_1489">
      <rect width="33" height="33" fill="white"/>
    </clipPath>
  </defs>
</svg>