<?xml version="1.0" encoding="UTF-8"?>
<svg xmlns="http://www.w3.org/2000/svg" width="100" height="100" viewBox="0 0 100 100" fill="none">
  <rect x="0.5" y="0.5" width="99" height="99" rx="16.0289" fill="white"></rect>
  <rect x="0.5" y="0.5" width="99" height="99" rx="16.0289" stroke="#E3EDFD"></rect>
  <path d="M60.512 69.2812C59.4615 68.5568 58.6016 67.5893 58.0054 66.4611C57.4092 65.3329 57.0945 64.0773 57.088 62.8012C57.1218 60.6483 58.0085 58.5968 59.5533 57.0969C61.0982 55.5971 63.175 54.7714 65.328 54.8012C65.4509 54.7982 65.5738 54.8036 65.696 54.8172C66.0416 54.8702 66.395 54.81 66.7035 54.6456C67.012 54.4813 67.2592 54.2215 67.408 53.9052C67.556 53.5846 67.5938 53.2241 67.5157 52.8798C67.4376 52.5354 67.2478 52.2266 66.976 52.0012C66.4428 51.5604 66.0141 51.0067 65.7208 50.38C65.4275 49.7534 65.277 49.0695 65.2801 48.3777C65.2831 47.6858 65.4397 47.0033 65.7385 46.3793C66.0373 45.7553 66.4709 45.2054 67.008 44.7692C67.2505 44.5714 67.4298 44.3069 67.5237 44.0083C67.6175 43.7097 67.6218 43.3902 67.536 43.0892C67.4493 42.7853 67.2733 42.5145 67.0308 42.312C66.7883 42.1094 66.4905 41.9844 66.176 41.9532C64.5977 41.7902 63.1342 41.0532 62.0635 39.8822C60.9928 38.7112 60.3895 37.1878 60.368 35.6012C60.3672 33.9458 61.0232 32.3576 62.192 31.1852C62.3664 31.0022 62.4961 30.7813 62.5711 30.5398C62.646 30.2984 62.6641 30.0429 62.624 29.7932C62.5833 29.5459 62.4835 29.3119 62.3331 29.1114C62.1827 28.9108 61.9861 28.7495 61.76 28.6412C58.286 26.8934 54.4489 25.9889 50.56 26.0012C44.1234 25.9365 37.9236 28.4265 33.3198 32.9253C28.716 37.4241 26.0837 43.5648 26 50.0012C26.0837 56.4377 28.716 62.5783 33.3198 67.0771C37.9236 71.576 44.1234 74.0659 50.56 74.0012C53.8785 74.0101 57.165 73.3517 60.224 72.0652C60.4904 71.9557 60.722 71.7757 60.894 71.5446C61.0659 71.3135 61.1717 71.0399 61.2 70.7532C61.2245 70.4691 61.1738 70.1835 61.053 69.9251C60.9323 69.6668 60.7457 69.4447 60.512 69.2812ZM32.4 46.8012C32.4 45.8519 32.6815 44.9239 33.2089 44.1345C33.7364 43.3451 34.486 42.7299 35.3631 42.3666C36.2402 42.0033 37.2053 41.9083 38.1364 42.0935C39.0675 42.2787 39.9228 42.7358 40.5941 43.4071C41.2654 44.0784 41.7226 44.9337 41.9078 45.8648C42.093 46.7959 41.9979 47.761 41.6346 48.6381C41.2713 49.5152 40.6561 50.2649 39.8667 50.7923C39.0774 51.3197 38.1494 51.6012 37.2 51.6012C35.9281 51.5975 34.7094 51.0906 33.81 50.1912C32.9106 49.2919 32.4037 48.0731 32.4 46.8012ZM45.2 66.0012C43.9342 66.0012 42.6968 65.6259 41.6444 64.9226C40.5919 64.2194 39.7716 63.2199 39.2872 62.0504C38.8028 60.881 38.676 59.5941 38.923 58.3527C39.1699 57.1112 39.7795 55.9708 40.6745 55.0758C41.5696 54.1807 42.7099 53.5712 43.9514 53.3242C45.1929 53.0773 46.4797 53.204 47.6492 53.6884C48.8186 54.1728 49.8182 54.9931 50.5214 56.0456C51.2246 57.0981 51.6 58.3354 51.6 59.6012C51.6002 60.4418 51.4348 61.2741 51.1133 62.0507C50.7917 62.8273 50.3203 63.5329 49.726 64.1272C49.1317 64.7216 48.426 65.193 47.6494 65.5145C46.8729 65.8361 46.0405 66.0015 45.2 66.0012ZM48.4 45.2012C47.1342 45.2012 45.8968 44.8259 44.8444 44.1226C43.7919 43.4194 42.9716 42.4199 42.4872 41.2504C42.0028 40.081 41.876 38.7941 42.123 37.5527C42.3699 36.3112 42.9795 35.1708 43.8745 34.2757C44.7696 33.3807 45.9099 32.7712 47.1514 32.5242C48.3929 32.2773 49.6797 32.404 50.8492 32.8884C52.0186 33.3728 53.0182 34.1931 53.7214 35.2456C54.4246 36.2981 54.8 37.5354 54.8 38.8012C54.8002 39.6418 54.6348 40.4741 54.3133 41.2507C53.9917 42.0273 53.5203 42.7329 52.926 43.3272C52.3317 43.9216 51.626 44.393 50.8494 44.7145C50.0729 45.0361 49.2405 45.2015 48.4 45.2012ZM74 48.4012C74 49.0341 73.8123 49.6528 73.4607 50.1791C73.1091 50.7053 72.6093 51.1154 72.0246 51.3576C71.4399 51.5998 70.7965 51.6632 70.1757 51.5397C69.555 51.4163 68.9848 51.1115 68.5373 50.664C68.0897 50.2164 67.785 49.6463 67.6615 49.0255C67.538 48.4048 67.6014 47.7614 67.8436 47.1766C68.0858 46.5919 68.4959 46.0922 69.0222 45.7405C69.5484 45.3889 70.1671 45.2012 70.8 45.2012C71.6484 45.2022 72.4618 45.5397 73.0617 46.1396C73.6616 46.7395 73.999 47.5528 74 48.4012ZM66 61.2012C66 61.8341 65.8123 62.4528 65.4607 62.9791C65.1091 63.5053 64.6093 63.9154 64.0246 64.1576C63.4399 64.3998 62.7965 64.4632 62.1757 64.3397C61.555 64.2163 60.9848 63.9115 60.5373 63.464C60.0897 63.0164 59.785 62.4463 59.6615 61.8255C59.538 61.2048 59.6014 60.5614 59.8436 59.9766C60.0858 59.3919 60.4959 58.8921 61.0222 58.5405C61.5484 58.1889 62.1671 58.0012 62.8 58.0012C63.6484 58.0022 64.4618 58.3397 65.0617 58.9396C65.6616 59.5395 65.999 60.3528 66 61.2012ZM72.4 67.6012C72.4 68.2341 72.2123 68.8528 71.8607 69.3791C71.5091 69.9053 71.0093 70.3154 70.4246 70.5576C69.8399 70.7998 69.1964 70.8632 68.5757 70.7397C67.955 70.6163 67.3848 70.3115 66.9373 69.864C66.4897 69.4164 66.185 68.8463 66.0615 68.2255C65.938 67.6048 66.0014 66.9614 66.2436 66.3766C66.4858 65.7919 66.8959 65.2922 67.4222 64.9405C67.9484 64.5889 68.5671 64.4012 69.2 64.4012C70.0484 64.4022 70.8618 64.7397 71.4617 65.3396C72.0616 65.9395 72.399 66.7528 72.4 67.6012ZM62.8 35.6012C62.8 34.9683 62.9877 34.3496 63.3393 33.8234C63.6909 33.2972 64.1907 32.887 64.7754 32.6448C65.3601 32.4026 66.0036 32.3392 66.6243 32.4627C67.245 32.5862 67.8152 32.891 68.2627 33.3385C68.7103 33.786 69.015 34.3562 69.1385 34.9769C69.262 35.5977 69.1986 36.2411 68.9564 36.8258C68.7142 37.4105 68.3041 37.9103 67.7778 38.2619C67.2516 38.6136 66.6329 38.8012 66 38.8012C65.1516 38.8003 64.3382 38.4628 63.7383 37.8629C63.1384 37.263 62.801 36.4496 62.8 35.6012Z" fill="#020A45"></path>
  <mask id="mask0_5730_5464" style="mask-type:alpha" maskUnits="userSpaceOnUse" x="26" y="26" width="48" height="49">
    <path d="M60.512 69.2812C59.4615 68.5568 58.6016 67.5893 58.0054 66.4611C57.4092 65.3329 57.0945 64.0773 57.088 62.8012C57.1218 60.6483 58.0085 58.5968 59.5533 57.0969C61.0982 55.5971 63.175 54.7714 65.328 54.8012C65.4509 54.7982 65.5738 54.8036 65.696 54.8172C66.0416 54.8702 66.395 54.81 66.7035 54.6456C67.012 54.4813 67.2592 54.2215 67.408 53.9052C67.556 53.5846 67.5938 53.2241 67.5157 52.8798C67.4376 52.5354 67.2478 52.2266 66.976 52.0012C66.4428 51.5604 66.0141 51.0067 65.7208 50.38C65.4275 49.7534 65.277 49.0695 65.2801 48.3777C65.2831 47.6858 65.4397 47.0033 65.7385 46.3793C66.0373 45.7553 66.4709 45.2054 67.008 44.7692C67.2505 44.5714 67.4298 44.3069 67.5237 44.0083C67.6175 43.7097 67.6218 43.3902 67.536 43.0892C67.4493 42.7853 67.2733 42.5145 67.0308 42.312C66.7883 42.1094 66.4905 41.9844 66.176 41.9532C64.5977 41.7902 63.1342 41.0532 62.0635 39.8822C60.9928 38.7112 60.3895 37.1878 60.368 35.6012C60.3672 33.9458 61.0232 32.3576 62.192 31.1852C62.3664 31.0022 62.4961 30.7813 62.5711 30.5398C62.646 30.2984 62.6641 30.0429 62.624 29.7932C62.5833 29.5459 62.4835 29.3119 62.3331 29.1114C62.1827 28.9108 61.9861 28.7495 61.76 28.6412C58.286 26.8934 54.4489 25.9889 50.56 26.0012C44.1234 25.9365 37.9236 28.4265 33.3198 32.9253C28.716 37.4241 26.0837 43.5648 26 50.0012C26.0837 56.4377 28.716 62.5783 33.3198 67.0771C37.9236 71.576 44.1234 74.0659 50.56 74.0012C53.8785 74.0101 57.165 73.3517 60.224 72.0652C60.4904 71.9557 60.722 71.7757 60.894 71.5446C61.0659 71.3135 61.1717 71.0399 61.2 70.7532C61.2245 70.4691 61.1738 70.1835 61.053 69.9251C60.9323 69.6668 60.7457 69.4447 60.512 69.2812ZM32.4 46.8012C32.4 45.8519 32.6815 44.9239 33.2089 44.1345C33.7364 43.3451 34.486 42.7299 35.3631 42.3666C36.2402 42.0033 37.2053 41.9083 38.1364 42.0935C39.0675 42.2787 39.9228 42.7358 40.5941 43.4071C41.2654 44.0784 41.7226 44.9337 41.9078 45.8648C42.093 46.7959 41.9979 47.761 41.6346 48.6381C41.2713 49.5152 40.6561 50.2649 39.8667 50.7923C39.0774 51.3197 38.1494 51.6012 37.2 51.6012C35.9281 51.5975 34.7094 51.0906 33.81 50.1912C32.9106 49.2919 32.4037 48.0731 32.4 46.8012ZM45.2 66.0012C43.9342 66.0012 42.6968 65.6259 41.6444 64.9226C40.5919 64.2194 39.7716 63.2199 39.2872 62.0504C38.8028 60.881 38.676 59.5941 38.923 58.3527C39.1699 57.1112 39.7795 55.9708 40.6745 55.0758C41.5696 54.1807 42.7099 53.5712 43.9514 53.3242C45.1929 53.0773 46.4797 53.204 47.6492 53.6884C48.8186 54.1728 49.8182 54.9931 50.5214 56.0456C51.2246 57.0981 51.6 58.3354 51.6 59.6012C51.6002 60.4418 51.4348 61.2741 51.1133 62.0507C50.7917 62.8273 50.3203 63.5329 49.726 64.1272C49.1317 64.7216 48.426 65.193 47.6494 65.5145C46.8729 65.8361 46.0405 66.0015 45.2 66.0012ZM48.4 45.2012C47.1342 45.2012 45.8968 44.8259 44.8444 44.1226C43.7919 43.4194 42.9716 42.4199 42.4872 41.2504C42.0028 40.081 41.876 38.7941 42.123 37.5527C42.3699 36.3112 42.9795 35.1708 43.8745 34.2757C44.7696 33.3807 45.9099 32.7712 47.1514 32.5242C48.3929 32.2773 49.6797 32.404 50.8492 32.8884C52.0186 33.3728 53.0182 34.1931 53.7214 35.2456C54.4246 36.2981 54.8 37.5354 54.8 38.8012C54.8002 39.6418 54.6348 40.4741 54.3133 41.2507C53.9917 42.0273 53.5203 42.7329 52.926 43.3272C52.3317 43.9216 51.626 44.393 50.8494 44.7145C50.0729 45.0361 49.2405 45.2015 48.4 45.2012ZM74 48.4012C74 49.0341 73.8123 49.6528 73.4607 50.1791C73.1091 50.7053 72.6093 51.1154 72.0246 51.3576C71.4399 51.5998 70.7965 51.6632 70.1757 51.5397C69.555 51.4163 68.9848 51.1115 68.5373 50.664C68.0897 50.2164 67.785 49.6463 67.6615 49.0255C67.538 48.4048 67.6014 47.7614 67.8436 47.1766C68.0858 46.5919 68.4959 46.0922 69.0222 45.7405C69.5484 45.3889 70.1671 45.2012 70.8 45.2012C71.6484 45.2022 72.4618 45.5397 73.0617 46.1396C73.6616 46.7395 73.999 47.5528 74 48.4012ZM66 61.2012C66 61.8341 65.8123 62.4528 65.4607 62.9791C65.1091 63.5053 64.6093 63.9154 64.0246 64.1576C63.4399 64.3998 62.7965 64.4632 62.1757 64.3397C61.555 64.2163 60.9848 63.9115 60.5373 63.464C60.0897 63.0164 59.785 62.4463 59.6615 61.8255C59.538 61.2048 59.6014 60.5614 59.8436 59.9766C60.0858 59.3919 60.4959 58.8921 61.0222 58.5405C61.5484 58.1889 62.1671 58.0012 62.8 58.0012C63.6484 58.0022 64.4618 58.3397 65.0617 58.9396C65.6616 59.5395 65.999 60.3528 66 61.2012ZM72.4 67.6012C72.4 68.2341 72.2123 68.8528 71.8607 69.3791C71.5091 69.9053 71.0093 70.3154 70.4246 70.5576C69.8399 70.7998 69.1964 70.8632 68.5757 70.7397C67.955 70.6163 67.3848 70.3115 66.9373 69.864C66.4897 69.4164 66.185 68.8463 66.0615 68.2255C65.938 67.6048 66.0014 66.9614 66.2436 66.3766C66.4858 65.7919 66.8959 65.2922 67.4222 64.9405C67.9484 64.5889 68.5671 64.4012 69.2 64.4012C70.0484 64.4022 70.8618 64.7397 71.4617 65.3396C72.0616 65.9395 72.399 66.7528 72.4 67.6012ZM62.8 35.6012C62.8 34.9683 62.9877 34.3496 63.3393 33.8234C63.6909 33.2972 64.1907 32.887 64.7754 32.6448C65.3601 32.4026 66.0036 32.3392 66.6243 32.4627C67.245 32.5862 67.8152 32.891 68.2627 33.3385C68.7103 33.786 69.015 34.3562 69.1385 34.9769C69.262 35.5977 69.1986 36.2411 68.9564 36.8258C68.7142 37.4105 68.3041 37.9103 67.7778 38.2619C67.2516 38.6136 66.6329 38.8012 66 38.8012C65.1516 38.8003 64.3382 38.4628 63.7383 37.8629C63.1384 37.263 62.801 36.4496 62.8 35.6012Z" fill="#FFC907"></path>
  </mask>
  <g mask="url(#mask0_5730_5464)">
    <path d="M64.5 30H74L80.5 57L71 77L63.5 78.5L61.5 66.5L58.5 65.5V59.5L60.5 57L66 57.5L69 53.5L66 48L69 43.5V41.5L62 38.5L61.5 34L64.5 30Z" fill="#FFC907"></path>
  </g>
</svg>
