<?xml version="1.0" encoding="UTF-8"?>
<svg xmlns="http://www.w3.org/2000/svg" width="100" height="100" viewBox="0 0 100 100" fill="none">
  <rect x="0.5" y="0.5" width="99" height="99" rx="16.0289" fill="white"></rect>
  <rect x="0.5" y="0.5" width="99" height="99" rx="16.0289" stroke="#E3EDFD"></rect>
  <path fill-rule="evenodd" clip-rule="evenodd" d="M53.9736 69.8494C53.7372 69.8423 53.5128 69.7433 53.3481 69.5735C53.1834 69.4037 53.0913 69.1765 53.0913 68.94C53.0913 68.7034 53.1834 68.4762 53.3481 68.3064C53.5128 68.1366 53.7372 68.0377 53.9736 68.0305H60.3629C60.9711 68.0189 61.5506 67.7692 61.9766 67.335C62.4026 66.9008 62.6413 66.3167 62.6413 65.7084C62.6413 65.1001 62.4026 64.5161 61.9766 64.0818C61.5506 63.6476 60.9711 63.3979 60.3629 63.3864H48.2436C48.065 63.3875 47.89 63.3356 47.7409 63.2372C45.7908 62.0885 43.551 61.5262 41.2895 61.6177C39.1468 61.8206 37.1273 62.7115 35.5328 64.1572L35.5093 64.1764L32.1923 67.1089L41.0374 78.0845L42.4039 76.8898C42.9854 76.3735 43.7368 76.0898 44.5144 76.093H59.2143C59.9902 76.1068 60.7595 75.9479 61.4665 75.6278C62.1735 75.3077 62.8005 74.8344 63.3021 74.2422L76.3723 59.3195C76.7925 58.8444 77.0165 58.2275 76.999 57.5935C76.9909 57.2953 76.9236 57.0017 76.801 56.7298C76.6785 56.4578 76.5032 56.2129 76.2852 56.0092C76.0659 55.8037 75.8082 55.6436 75.5268 55.5382C75.2454 55.4328 74.9459 55.3842 74.6456 55.3951C74.0182 55.4179 73.4237 55.6817 72.9858 56.1315L64.4206 64.8844C64.5413 65.4856 64.5273 66.1062 64.3795 66.7013C64.2316 67.2965 63.9537 67.8514 63.5656 68.3263C63.1776 68.8011 62.6891 69.184 62.1353 69.4474C61.5815 69.7108 60.9762 69.8481 60.3629 69.8494H53.9736ZM64.5756 54.9477C62.2044 56.8542 59.2532 57.8935 56.2106 57.8935C53.168 57.8935 50.2168 56.8542 47.8456 54.9477C47.9666 52.811 48.9007 50.8017 50.4561 49.3318C52.0116 47.862 54.0705 47.043 56.2106 47.043C58.3507 47.043 60.4096 47.862 61.9651 49.3318C63.5205 50.8017 64.4546 52.811 64.5756 54.9477ZM60.0823 45.4952C59.9472 45.6302 59.8052 45.758 59.6566 45.8781C61.298 46.4707 62.7604 47.4738 63.9043 48.7917C65.0483 50.1096 65.8358 51.6984 66.1918 53.4069C67.8992 51.483 69.0145 49.1068 69.4032 46.564C69.792 44.0213 69.4377 41.4204 68.3831 39.0742C67.3284 36.7281 65.6183 34.7367 63.4585 33.3395C61.2987 31.9424 58.7812 31.1992 56.2089 31.1992C53.6366 31.1992 51.1192 31.9424 48.9593 33.3395C46.7995 34.7367 45.0894 36.7281 44.0348 39.0742C42.9801 41.4204 42.6259 44.0213 43.0147 46.564C43.4034 49.1068 44.5186 51.483 46.2261 53.4069C46.5822 51.6986 47.3698 50.1099 48.5137 48.7922C49.6577 47.4744 51.1199 46.4715 52.7612 45.8789C51.9008 45.1819 51.2719 44.2404 50.9575 43.1787C50.6431 42.1169 50.6581 40.9848 51.0003 39.9317C51.3426 38.8787 51.9962 37.9541 52.8747 37.2801C53.7533 36.6061 54.8156 36.2143 55.9214 36.1564C57.0272 36.0986 58.1245 36.3774 59.0686 36.956C60.0127 37.5346 60.7592 38.3859 61.2095 39.3976C61.6598 40.4092 61.7928 41.5335 61.591 42.6223C61.3892 43.7111 60.8619 44.713 60.0789 45.496L60.0823 45.4952ZM56.2106 45.2798C55.3647 45.2789 54.5452 44.9847 53.8918 44.4473C53.2384 43.91 52.7915 43.1628 52.6272 42.333C52.4629 41.5031 52.5914 40.642 52.9907 39.8962C53.3901 39.1505 54.0356 38.5662 54.8174 38.243C55.5992 37.9198 56.4688 37.8776 57.2782 38.1235C58.0876 38.3695 58.7867 38.8885 59.2564 39.5921C59.7261 40.2956 59.9374 41.1403 59.8542 41.9821C59.7711 42.824 59.3986 43.611 58.8004 44.2091C58.4611 44.549 58.0581 44.8186 57.6144 45.0024C57.1707 45.1861 56.695 45.2804 56.2148 45.2798H56.2106ZM57.0484 12.5623L58.9629 17.2474L64.0142 17.6203C64.1973 17.6333 64.3721 17.7015 64.5157 17.8159C64.6592 17.9302 64.7647 18.0854 64.8183 18.2609C64.872 18.4364 64.8711 18.6241 64.816 18.7991C64.7608 18.9742 64.6539 19.1284 64.5094 19.2415L60.6687 22.4906L61.8744 27.4146C61.9173 27.5913 61.9061 27.7769 61.8421 27.9471C61.7781 28.1173 61.6643 28.2643 61.5156 28.369C61.3669 28.4737 61.1902 28.5312 61.0083 28.534C60.8265 28.5368 60.648 28.4849 60.4962 28.3848L56.2106 25.7314L51.9033 28.3991C51.7505 28.4936 51.573 28.5405 51.3934 28.5339C51.2138 28.5273 51.0403 28.4674 50.8948 28.3618C50.7494 28.2563 50.6387 28.1098 50.5767 27.9412C50.5147 27.7725 50.5043 27.5892 50.5468 27.4146L51.7525 22.494L47.885 19.2264C47.7444 19.1102 47.6422 18.9544 47.5915 18.7792C47.5408 18.6041 47.544 18.4177 47.6008 18.2444C47.6576 18.0711 47.7653 17.919 47.9099 17.8078C48.0544 17.6966 48.2291 17.6316 48.4112 17.6211L53.4617 17.2483L55.3761 12.5631C55.444 12.3966 55.56 12.2541 55.7092 12.1539C55.8584 12.0536 56.0342 12 56.214 12C56.3938 12 56.5695 12.0536 56.7187 12.1539C56.8679 12.2541 56.9839 12.3966 57.0518 12.5631L57.0484 12.5623ZM22 72.2725L29.2892 66.4009L41.4806 81.5314L34.1914 87.4038L22 72.2725Z" fill="#020A45"></path>
  <mask id="mask0_5730_5419" style="mask-type:alpha" maskUnits="userSpaceOnUse" x="22" y="12" width="55" height="76">
    <path fill-rule="evenodd" clip-rule="evenodd" d="M53.9736 69.8494C53.7372 69.8423 53.5128 69.7433 53.3481 69.5735C53.1834 69.4037 53.0913 69.1765 53.0913 68.94C53.0913 68.7034 53.1834 68.4762 53.3481 68.3064C53.5128 68.1366 53.7372 68.0377 53.9736 68.0305H60.3629C60.9711 68.0189 61.5506 67.7692 61.9766 67.335C62.4026 66.9008 62.6413 66.3167 62.6413 65.7084C62.6413 65.1001 62.4026 64.5161 61.9766 64.0818C61.5506 63.6476 60.9711 63.3979 60.3629 63.3864H48.2436C48.065 63.3875 47.89 63.3356 47.7409 63.2372C45.7908 62.0885 43.551 61.5262 41.2895 61.6177C39.1468 61.8206 37.1273 62.7115 35.5328 64.1572L35.5093 64.1764L32.1923 67.1089L41.0374 78.0845L42.4039 76.8898C42.9854 76.3735 43.7368 76.0898 44.5144 76.093H59.2143C59.9902 76.1068 60.7595 75.9479 61.4665 75.6278C62.1735 75.3077 62.8005 74.8344 63.3021 74.2422L76.3723 59.3195C76.7925 58.8444 77.0165 58.2275 76.999 57.5935C76.9909 57.2953 76.9236 57.0017 76.801 56.7298C76.6785 56.4578 76.5032 56.2129 76.2852 56.0092C76.0659 55.8037 75.8082 55.6436 75.5268 55.5382C75.2454 55.4328 74.9459 55.3842 74.6456 55.3951C74.0182 55.4179 73.4237 55.6817 72.9858 56.1315L64.4206 64.8844C64.5413 65.4856 64.5273 66.1062 64.3795 66.7013C64.2316 67.2965 63.9537 67.8514 63.5656 68.3263C63.1776 68.8011 62.6891 69.184 62.1353 69.4474C61.5815 69.7108 60.9762 69.8481 60.3629 69.8494H53.9736ZM64.5756 54.9477C62.2044 56.8542 59.2532 57.8935 56.2106 57.8935C53.168 57.8935 50.2168 56.8542 47.8456 54.9477C47.9666 52.811 48.9007 50.8017 50.4561 49.3318C52.0116 47.862 54.0705 47.043 56.2106 47.043C58.3507 47.043 60.4096 47.862 61.9651 49.3318C63.5205 50.8017 64.4546 52.811 64.5756 54.9477ZM60.0823 45.4952C59.9472 45.6302 59.8052 45.758 59.6566 45.8781C61.298 46.4707 62.7604 47.4738 63.9043 48.7917C65.0483 50.1096 65.8358 51.6984 66.1918 53.4069C67.8992 51.483 69.0145 49.1068 69.4032 46.564C69.792 44.0213 69.4377 41.4204 68.3831 39.0742C67.3284 36.7281 65.6183 34.7367 63.4585 33.3395C61.2987 31.9424 58.7812 31.1992 56.2089 31.1992C53.6366 31.1992 51.1192 31.9424 48.9593 33.3395C46.7995 34.7367 45.0894 36.7281 44.0348 39.0742C42.9801 41.4204 42.6259 44.0213 43.0147 46.564C43.4034 49.1068 44.5186 51.483 46.2261 53.4069C46.5822 51.6986 47.3698 50.1099 48.5137 48.7922C49.6577 47.4744 51.1199 46.4715 52.7612 45.8789C51.9008 45.1819 51.2719 44.2404 50.9575 43.1787C50.6431 42.1169 50.6581 40.9848 51.0003 39.9317C51.3426 38.8787 51.9962 37.9541 52.8747 37.2801C53.7533 36.6061 54.8156 36.2143 55.9214 36.1564C57.0272 36.0986 58.1245 36.3774 59.0686 36.956C60.0127 37.5346 60.7592 38.3859 61.2095 39.3976C61.6598 40.4092 61.7928 41.5335 61.591 42.6223C61.3892 43.7111 60.8619 44.713 60.0789 45.496L60.0823 45.4952ZM56.2106 45.2798C55.3647 45.2789 54.5452 44.9847 53.8918 44.4473C53.2384 43.91 52.7915 43.1628 52.6272 42.333C52.4629 41.5031 52.5914 40.642 52.9907 39.8962C53.3901 39.1505 54.0356 38.5662 54.8174 38.243C55.5992 37.9198 56.4688 37.8776 57.2782 38.1235C58.0876 38.3695 58.7867 38.8885 59.2564 39.5921C59.7261 40.2956 59.9374 41.1403 59.8542 41.9821C59.7711 42.824 59.3986 43.611 58.8004 44.2091C58.4611 44.549 58.0581 44.8186 57.6144 45.0024C57.1707 45.1861 56.695 45.2804 56.2148 45.2798H56.2106ZM57.0484 12.5623L58.9629 17.2474L64.0142 17.6203C64.1973 17.6333 64.3721 17.7015 64.5157 17.8159C64.6592 17.9302 64.7647 18.0854 64.8183 18.2609C64.872 18.4364 64.8711 18.6241 64.816 18.7991C64.7608 18.9742 64.6539 19.1284 64.5094 19.2415L60.6687 22.4906L61.8744 27.4146C61.9173 27.5913 61.9061 27.7769 61.8421 27.9471C61.7781 28.1173 61.6643 28.2643 61.5156 28.369C61.3669 28.4737 61.1902 28.5312 61.0083 28.534C60.8265 28.5368 60.648 28.4849 60.4962 28.3848L56.2106 25.7314L51.9033 28.3991C51.7505 28.4936 51.573 28.5405 51.3934 28.5339C51.2138 28.5273 51.0403 28.4674 50.8948 28.3618C50.7494 28.2563 50.6387 28.1098 50.5767 27.9412C50.5147 27.7725 50.5043 27.5892 50.5468 27.4146L51.7525 22.494L47.885 19.2264C47.7444 19.1102 47.6422 18.9544 47.5915 18.7792C47.5408 18.6041 47.544 18.4177 47.6008 18.2444C47.6576 18.0711 47.7653 17.919 47.9099 17.8078C48.0544 17.6966 48.2291 17.6316 48.4112 17.6211L53.4617 17.2483L55.3761 12.5631C55.444 12.3966 55.56 12.2541 55.7092 12.1539C55.8584 12.0536 56.0342 12 56.214 12C56.3938 12 56.5695 12.0536 56.7187 12.1539C56.8679 12.2541 56.9839 12.3966 57.0518 12.5631L57.0484 12.5623ZM22 72.2725L29.2892 66.4009L41.4806 81.5314L34.1914 87.4038L22 72.2725Z" fill="#FFC907"></path>
  </mask>
  <g mask="url(#mask0_5730_5419)">
    <rect x="36" y="31" width="34" height="27" fill="#FFC907"></rect>
  </g>
  <mask id="mask1_5730_5419" style="mask-type:alpha" maskUnits="userSpaceOnUse" x="22" y="12" width="55" height="76">
    <path fill-rule="evenodd" clip-rule="evenodd" d="M53.9736 69.8494C53.7372 69.8423 53.5128 69.7433 53.3481 69.5735C53.1834 69.4037 53.0913 69.1765 53.0913 68.94C53.0913 68.7034 53.1834 68.4762 53.3481 68.3064C53.5128 68.1366 53.7372 68.0377 53.9736 68.0305H60.3629C60.9711 68.0189 61.5506 67.7692 61.9766 67.335C62.4026 66.9008 62.6413 66.3167 62.6413 65.7084C62.6413 65.1001 62.4026 64.5161 61.9766 64.0818C61.5506 63.6476 60.9711 63.3979 60.3629 63.3864H48.2436C48.065 63.3875 47.89 63.3356 47.7409 63.2372C45.7908 62.0885 43.551 61.5262 41.2895 61.6177C39.1468 61.8206 37.1273 62.7115 35.5328 64.1572L35.5093 64.1764L32.1923 67.1089L41.0374 78.0845L42.4039 76.8898C42.9854 76.3735 43.7368 76.0898 44.5144 76.093H59.2143C59.9902 76.1068 60.7595 75.9479 61.4665 75.6278C62.1735 75.3077 62.8005 74.8344 63.3021 74.2422L76.3723 59.3195C76.7925 58.8444 77.0165 58.2275 76.999 57.5935C76.9909 57.2953 76.9236 57.0017 76.801 56.7298C76.6785 56.4578 76.5032 56.2129 76.2852 56.0092C76.0659 55.8037 75.8082 55.6436 75.5268 55.5382C75.2454 55.4328 74.9459 55.3842 74.6456 55.3951C74.0182 55.4179 73.4237 55.6817 72.9858 56.1315L64.4206 64.8844C64.5413 65.4856 64.5273 66.1062 64.3795 66.7013C64.2316 67.2965 63.9537 67.8514 63.5656 68.3263C63.1776 68.8011 62.6891 69.184 62.1353 69.4474C61.5815 69.7108 60.9762 69.8481 60.3629 69.8494H53.9736ZM64.5756 54.9477C62.2044 56.8542 59.2532 57.8935 56.2106 57.8935C53.168 57.8935 50.2168 56.8542 47.8456 54.9477C47.9666 52.811 48.9007 50.8017 50.4561 49.3318C52.0116 47.862 54.0705 47.043 56.2106 47.043C58.3507 47.043 60.4096 47.862 61.9651 49.3318C63.5205 50.8017 64.4546 52.811 64.5756 54.9477ZM60.0823 45.4952C59.9472 45.6302 59.8052 45.758 59.6566 45.8781C61.298 46.4707 62.7604 47.4738 63.9043 48.7917C65.0483 50.1096 65.8358 51.6984 66.1918 53.4069C67.8992 51.483 69.0145 49.1068 69.4032 46.564C69.792 44.0213 69.4377 41.4204 68.3831 39.0742C67.3284 36.7281 65.6183 34.7367 63.4585 33.3395C61.2987 31.9424 58.7812 31.1992 56.2089 31.1992C53.6366 31.1992 51.1192 31.9424 48.9593 33.3395C46.7995 34.7367 45.0894 36.7281 44.0348 39.0742C42.9801 41.4204 42.6259 44.0213 43.0147 46.564C43.4034 49.1068 44.5186 51.483 46.2261 53.4069C46.5822 51.6986 47.3698 50.1099 48.5137 48.7922C49.6577 47.4744 51.1199 46.4715 52.7612 45.8789C51.9008 45.1819 51.2719 44.2404 50.9575 43.1787C50.6431 42.1169 50.6581 40.9848 51.0003 39.9317C51.3426 38.8787 51.9962 37.9541 52.8747 37.2801C53.7533 36.6061 54.8156 36.2143 55.9214 36.1564C57.0272 36.0986 58.1245 36.3774 59.0686 36.956C60.0127 37.5346 60.7592 38.3859 61.2095 39.3976C61.6598 40.4092 61.7928 41.5335 61.591 42.6223C61.3892 43.7111 60.8619 44.713 60.0789 45.496L60.0823 45.4952ZM56.2106 45.2798C55.3647 45.2789 54.5452 44.9847 53.8918 44.4473C53.2384 43.91 52.7915 43.1628 52.6272 42.333C52.4629 41.5031 52.5914 40.642 52.9907 39.8962C53.3901 39.1505 54.0356 38.5662 54.8174 38.243C55.5992 37.9198 56.4688 37.8776 57.2782 38.1235C58.0876 38.3695 58.7867 38.8885 59.2564 39.5921C59.7261 40.2956 59.9374 41.1403 59.8542 41.9821C59.7711 42.824 59.3986 43.611 58.8004 44.2091C58.4611 44.549 58.0581 44.8186 57.6144 45.0024C57.1707 45.1861 56.695 45.2804 56.2148 45.2798H56.2106ZM57.0484 12.5623L58.9629 17.2474L64.0142 17.6203C64.1973 17.6333 64.3721 17.7015 64.5157 17.8159C64.6592 17.9302 64.7647 18.0854 64.8183 18.2609C64.872 18.4364 64.8711 18.6241 64.816 18.7991C64.7608 18.9742 64.6539 19.1284 64.5094 19.2415L60.6687 22.4906L61.8744 27.4146C61.9173 27.5913 61.9061 27.7769 61.8421 27.9471C61.7781 28.1173 61.6643 28.2643 61.5156 28.369C61.3669 28.4737 61.1902 28.5312 61.0083 28.534C60.8265 28.5368 60.648 28.4849 60.4962 28.3848L56.2106 25.7314L51.9033 28.3991C51.7505 28.4936 51.573 28.5405 51.3934 28.5339C51.2138 28.5273 51.0403 28.4674 50.8948 28.3618C50.7494 28.2563 50.6387 28.1098 50.5767 27.9412C50.5147 27.7725 50.5043 27.5892 50.5468 27.4146L51.7525 22.494L47.885 19.2264C47.7444 19.1102 47.6422 18.9544 47.5915 18.7792C47.5408 18.6041 47.544 18.4177 47.6008 18.2444C47.6576 18.0711 47.7653 17.919 47.9099 17.8078C48.0544 17.6966 48.2291 17.6316 48.4112 17.6211L53.4617 17.2483L55.3761 12.5631C55.444 12.3966 55.56 12.2541 55.7092 12.1539C55.8584 12.0536 56.0342 12 56.214 12C56.3938 12 56.5695 12.0536 56.7187 12.1539C56.8679 12.2541 56.9839 12.3966 57.0518 12.5631L57.0484 12.5623ZM22 72.2725L29.2892 66.4009L41.4806 81.5314L34.1914 87.4038L22 72.2725Z" fill="#FFC907"></path>
  </mask>
  <g mask="url(#mask1_5730_5419)">
    <rect x="39" y="4" width="32" height="25" fill="#FFC907"></rect>
  </g>
</svg>
