<?xml version="1.0" encoding="UTF-8"?>
<svg xmlns="http://www.w3.org/2000/svg" width="100" height="100" viewBox="0 0 100 100" fill="none">
  <rect x="0.5" y="0.5" width="99" height="99" rx="16.0289" fill="white"></rect>
  <rect x="0.5" y="0.5" width="99" height="99" rx="16.0289" stroke="#E3EDFD"></rect>
  <path fill-rule="evenodd" clip-rule="evenodd" d="M49.1227 19.0004C48.5777 19.0644 48.2021 19.247 47.9945 19.525C47.7899 19.7989 47.7171 20.2185 47.8238 20.8009L51.2697 23.2624C51.7441 23.6031 51.235 24.3153 50.759 23.9768L47.1515 21.4007L47.1488 21.398L47.1434 21.3953L45.3403 20.108C44.7777 20.3788 44.2986 20.6507 44.0045 21.0235C43.7018 21.4073 43.5248 21.9341 43.462 22.6815L48.4054 26.2127C48.8573 26.5563 48.3681 27.2425 47.896 26.927L42.7336 23.2392L42.731 23.2379L42.2292 22.8788C41.2834 23.1698 40.3586 24.2576 40.0887 25.9605L45.0626 29.5132C45.5405 29.8533 45.0285 30.5697 44.5519 30.2276L39.3412 26.5055L39.3398 26.5041L38.6598 26.019C37.7909 26.3074 37.1748 26.7409 36.7892 27.3115C36.4069 27.8772 36.2384 28.5932 36.234 29.4139L45.0536 35.7146L48.0779 37.8756C48.0779 37.8756 48.1048 37.8944 48.1301 37.9189C48.1429 37.9312 48.1576 37.9459 48.1773 37.9724C48.1871 37.9856 48.2104 38.0221 48.2104 38.0221L48.2447 38.1036L48.2651 38.2297L48.2371 38.3914L48.1505 38.534L48.0486 38.6155C48.0486 38.6155 47.988 38.6458 47.9646 38.6538C47.9411 38.6618 47.9216 38.667 47.9047 38.6703C47.8709 38.677 47.8489 38.6775 47.8296 38.6779C47.6756 38.6819 47.6675 38.6605 47.566 38.6333C47.3631 38.579 46.9659 38.4558 46.1016 38.1609C46.0283 38.1359 46.0279 38.0581 45.9717 38.0094C45.969 38.0167 45.967 38.0161 45.9641 38.0234C45.8328 38.365 45.7175 38.7908 45.6266 39.2013C45.4476 40.0092 45.3634 40.7279 45.3605 40.751L48.4446 41.5953C52.0959 42.5952 61.5881 45.8045 62.1808 46.0051L67.0936 37.5038L65.8457 32.9017C65.4777 31.5446 64.2586 29.9331 62.6087 28.3417C60.9589 26.7504 58.8921 25.1675 56.8721 23.7702C52.9428 21.0524 49.3252 19.109 49.1227 19.0004ZM36.3378 30.4139L32.664 31.5497C31.3368 32.0143 29.8171 33.3438 28.3484 35.1038C26.8797 36.8637 25.4495 39.0397 24.201 41.155C21.7728 45.2689 20.0941 49.0165 20 49.2271C20.103 49.7661 20.3127 50.1287 20.6049 50.3159C20.8925 50.5001 21.3159 50.5427 21.8885 50.3948L24.0978 46.7796C24.407 46.2966 25.1359 46.7429 24.8466 47.238L22.5353 51.0213L22.5313 51.029L22.53 51.0303L21.375 52.92C21.6857 53.4622 21.9915 53.9191 22.3848 54.1858C22.7896 54.4603 23.3279 54.5985 24.0785 54.6073L27.2454 49.4232C27.5508 48.9235 28.2996 49.3819 27.9942 49.8817L24.365 55.8246C24.7233 56.7469 25.8744 57.5903 27.5918 57.7373L30.7778 52.5215C31.0832 52.0217 31.8333 52.4801 31.5278 52.9799L27.7522 59.1597C28.1024 60.0054 28.5804 60.5875 29.1771 60.931C29.7684 61.2713 30.4934 61.3874 31.3114 61.3334L37.2632 51.4594C37.8248 50.8502 38.4071 49.7208 38.9009 48.9126C38.9009 48.9126 38.9177 48.8848 38.9404 48.8579C38.9516 48.8443 38.9676 48.8285 38.9926 48.8069C39.005 48.7961 39.0397 48.7699 39.0397 48.7699L39.1161 48.7305L39.2409 48.7012L39.4052 48.7165L39.5529 48.7942L39.642 48.8897C39.642 48.8897 39.6769 48.9458 39.6866 48.9687C39.6963 48.9915 39.7013 49.0105 39.7057 49.0272C39.7147 49.0605 39.7178 49.0845 39.7197 49.1036C39.7343 49.257 39.715 49.2653 39.6955 49.3685C39.656 49.5748 39.5608 49.9789 39.3288 50.8622C39.2474 51.1722 39.3151 51.3667 39.4943 51.5931C39.6736 51.8195 39.9892 52.0402 40.3361 52.212C40.8797 52.4812 41.2566 52.5481 41.4885 52.6016L41.9113 51.6874L42.5862 48.2785C43.3177 44.5821 45.2717 37.374 45.4067 36.8764L36.3389 30.4139L36.3378 30.4139ZM69.0323 36.94C68.8395 36.9353 68.6397 36.9427 68.4351 36.9604L61.1105 49.5391L61.1065 49.5377L61.0874 49.5734C60.7622 50.0263 60.0716 49.5794 60.3514 49.0971L60.3896 49.0309C60.7041 48.2591 61.2208 46.9606 60.8977 46.2765L58.4248 45.5188L58.0478 46.8011L57.4404 50.2495C56.7727 54.0401 55.5571 61.4414 55.5571 61.4414C55.5411 61.5367 55.4939 61.6238 55.4234 61.6898C54.9796 62.1071 54.3331 62.45 53.8953 62.7632C53.7005 62.9026 53.5857 63.0225 53.5349 63.0867L61.5293 70.368C61.5882 70.3355 61.7357 70.2016 61.8871 70.0063C62.1932 69.6116 62.5207 69.0218 62.9084 68.6107C62.9544 68.5617 63.011 68.5248 63.0739 68.5012L67.7117 66.7668C69.0288 66.2745 70.5194 64.9128 71.9508 63.1223C73.3822 61.3319 74.7672 59.1256 75.971 56.9846C78.3122 52.8203 79.9105 49.0393 80 48.8271C79.8857 48.2905 79.6683 47.9321 79.3722 47.7511C79.0806 47.5728 78.6574 47.5398 78.0874 47.7001L75.9557 51.3599C75.6557 51.8444 74.923 51.4178 75.1967 50.918L77.4277 47.0864L77.4344 47.0787L78.5499 45.1636C78.228 44.6282 77.9121 44.1778 77.5134 43.9194C77.1031 43.6535 76.5624 43.5253 75.8121 43.5323L72.756 48.7813C72.4613 49.2873 71.7012 48.8455 71.9957 48.3394L75.1881 42.8587L75.1922 42.852L75.5003 42.3223C75.1232 41.4074 73.9547 40.588 72.2341 40.4771L69.1575 45.7592C68.8629 46.2654 68.1038 45.8234 68.3986 45.3173L71.6215 39.7844L72.043 39.0598C71.6752 38.2216 71.1862 37.6487 70.5825 37.3178C70.133 37.0716 69.6108 36.9534 69.0323 36.94ZM38.7878 51.1245C38.2695 52.0655 38.2928 52.0001 38.2695 52.0655L32.6818 61.3346L33.1988 65.0453C33.3932 66.438 34.3993 68.1884 35.836 69.9746C37.2727 71.7608 39.1242 73.5911 40.9526 75.2312C44.508 78.4207 47.8515 80.8044 48.0403 80.9386C48.5893 80.944 48.9861 80.8102 49.2271 80.5604C49.4644 80.3146 49.5893 79.907 49.5569 79.3163V79.315L46.4473 76.4396C46.0407 76.0414 46.615 75.4204 47.0432 75.7953L50.2981 78.8056L50.3007 78.8083L50.3048 78.8123L51.9322 80.3175C52.5248 80.1195 53.0335 79.9082 53.3724 79.5751C53.7211 79.2323 53.9624 78.7326 54.1186 77.9986L49.6591 73.8753C49.2501 73.4777 49.8262 72.8537 50.2551 73.2297L54.9119 77.5363L55.3678 77.9579C56.3426 77.7881 57.3957 76.8242 57.8777 75.1691L53.3915 71.0203C52.9824 70.6228 53.5572 69.9987 53.9862 70.3747L58.6876 74.7221L58.699 74.7336L58.7079 74.7425L59.3039 75.2914C60.2023 75.1144 60.8667 74.7622 61.3209 74.2446C61.7715 73.7312 62.0282 73.0414 62.1359 72.2275L51.4492 62.3444C51.4492 62.3444 51.4254 62.3235 51.4033 62.296C51.3923 62.2823 51.3788 62.2649 51.3626 62.2361C51.3545 62.2218 51.3371 62.1814 51.3371 62.1814L51.3129 62.0973L51.3089 61.97L51.3574 61.8133L51.4618 61.6822L51.5725 61.6134C51.5725 61.6134 51.6349 61.5904 51.6591 61.5854C51.6834 61.5801 51.7043 61.5788 51.7216 61.5778C51.756 61.5758 51.7787 61.5771 51.7979 61.5791C51.9512 61.595 51.9567 61.6172 52.0539 61.6568C52.2484 61.7362 52.3401 61.6834 53.1605 62.0847C53.4484 62.2255 53.829 62.0465 53.829 62.0465C54.1085 61.9739 54.6073 61.6485 54.8439 61.3422C55.215 60.862 55.0095 60.6076 55.1075 60.391L54.7625 59.939L51.5535 58.6082C48.0017 57.1343 41.0605 54.3461 41.0479 54.341L41.0377 54.3357C40.956 54.3031 40.8858 54.2469 40.8365 54.174L38.7878 51.1245Z" fill="#FFC907"></path>
  <mask id="mask0_5725_5336" style="mask-type:alpha" maskUnits="userSpaceOnUse" x="20" y="19" width="60" height="62">
    <path fill-rule="evenodd" clip-rule="evenodd" d="M49.1227 19C48.5777 19.064 48.2021 19.2467 47.9945 19.5246C47.7899 19.7985 47.7171 20.2182 47.8238 20.8006L51.2697 23.2621C51.7441 23.6027 51.235 24.315 50.759 23.9765L47.1515 21.4003L47.1488 21.3977L47.1434 21.395L45.3403 20.1076C44.7777 20.3784 44.2986 20.6503 44.0045 21.0232C43.7018 21.407 43.5248 21.9337 43.462 22.6811L48.4054 26.2123C48.8573 26.5559 48.3681 27.2421 47.896 26.9266L42.7336 23.2389L42.731 23.2375L42.2292 22.8785C41.2834 23.1694 40.3586 24.2572 40.0887 25.9601L45.0626 29.5129C45.5405 29.8529 45.0285 30.5693 44.5519 30.2273L39.3412 26.5051L39.3398 26.5038L38.6598 26.0186C37.7909 26.3071 37.1748 26.7405 36.7892 27.3111C36.4069 27.8769 36.2384 28.5929 36.234 29.4135L45.0536 35.7143L48.0779 37.8752C48.0779 37.8752 48.1048 37.8941 48.1301 37.9186C48.1429 37.9308 48.1576 37.9456 48.1773 37.9721C48.1871 37.9853 48.2104 38.0218 48.2104 38.0218L48.2447 38.1033L48.2651 38.2293L48.2371 38.3911L48.1505 38.5337L48.0486 38.6151C48.0486 38.6151 47.988 38.6454 47.9646 38.6534C47.9411 38.6614 47.9216 38.6666 47.9047 38.67C47.8709 38.6766 47.8489 38.6771 47.8296 38.6776C47.6756 38.6816 47.6675 38.6602 47.566 38.633C47.3631 38.5787 46.9659 38.4555 46.1016 38.1606C46.0283 38.1355 46.0279 38.0577 45.9717 38.009C45.969 38.0164 45.967 38.0157 45.9641 38.023C45.8328 38.3647 45.7175 38.7905 45.6266 39.2009C45.4476 40.0088 45.3634 40.7275 45.3605 40.7506L48.4446 41.5949C52.0959 42.5948 61.5881 45.8041 62.1808 46.0047L67.0936 37.5035L65.8457 32.9014C65.4777 31.5442 64.2586 29.9327 62.6087 28.3413C60.9589 26.75 58.8921 25.1671 56.8721 23.7699C52.9428 21.0521 49.3252 19.1086 49.1227 19ZM36.3378 30.4135L32.664 31.5494C31.3368 32.0139 29.8171 33.3435 28.3484 35.1034C26.8797 36.8634 25.4495 39.0394 24.201 41.1546C21.7728 45.2685 20.0941 49.0161 20 49.2267C20.103 49.7657 20.3127 50.1284 20.6049 50.3155C20.8925 50.4997 21.3159 50.5423 21.8885 50.3945L24.0978 46.7792C24.407 46.2962 25.1359 46.7426 24.8466 47.2377L22.5353 51.0209L22.5313 51.0286L22.53 51.0299L21.375 52.9197C21.6857 53.4618 21.9915 53.9187 22.3848 54.1854C22.7896 54.4599 23.3279 54.5982 24.0785 54.6069L27.2454 49.4229C27.5508 48.9231 28.2996 49.3816 27.9942 49.8813L24.365 55.8243C24.7233 56.7465 25.8744 57.5899 27.5918 57.7369L30.7778 52.5211C31.0832 52.0214 31.8333 52.4797 31.5278 52.9795L27.7522 59.1593C28.1024 60.0051 28.5804 60.5871 29.1771 60.9306C29.7684 61.271 30.4934 61.3871 31.3114 61.333L37.2632 51.4591C37.8248 50.8498 38.4071 49.7204 38.9009 48.9123C38.9009 48.9123 38.9177 48.8845 38.9404 48.8575C38.9516 48.844 38.9676 48.8281 38.9926 48.8065C39.005 48.7957 39.0397 48.7696 39.0397 48.7696L39.1161 48.7301L39.2409 48.7009L39.4052 48.7161L39.5529 48.7938L39.642 48.8893C39.642 48.8893 39.6769 48.9455 39.6866 48.9683C39.6963 48.9911 39.7013 49.0102 39.7057 49.0268C39.7147 49.0601 39.7178 49.0841 39.7197 49.1033C39.7343 49.2566 39.715 49.265 39.6955 49.3681C39.656 49.5744 39.5608 49.9786 39.3288 50.8618C39.2474 51.1718 39.3151 51.3663 39.4943 51.5927C39.6736 51.8192 39.9892 52.0399 40.3361 52.2116C40.8797 52.4809 41.2566 52.5478 41.4885 52.6013L41.9113 51.687L42.5862 48.2781C43.3177 44.5817 45.2717 37.3737 45.4067 36.8761L36.3389 30.4135L36.3378 30.4135ZM69.0323 36.9397C68.8395 36.935 68.6397 36.9423 68.4351 36.96L61.1105 49.5387L61.1065 49.5373L61.0874 49.573C60.7622 50.0259 60.0716 49.579 60.3514 49.0967L60.3896 49.0305C60.7041 48.2587 61.2208 46.9603 60.8977 46.2761L58.4248 45.5185L58.0478 46.8008L57.4404 50.2492C56.7727 54.0397 55.5571 61.4411 55.5571 61.4411C55.5411 61.5363 55.4939 61.6235 55.4234 61.6894C54.9796 62.1067 54.3331 62.4497 53.8953 62.7629C53.7005 62.9022 53.5857 63.0221 53.5349 63.0863L61.5293 70.3676C61.5882 70.3351 61.7357 70.2013 61.8871 70.006C62.1932 69.6112 62.5207 69.0214 62.9084 68.6103C62.9544 68.5613 63.011 68.5245 63.0739 68.5008L67.7117 66.7665C69.0288 66.2741 70.5194 64.9124 71.9508 63.122C73.3822 61.3315 74.7672 59.1252 75.971 56.9842C78.3122 52.8199 79.9105 49.039 80 48.8268C79.8857 48.2901 79.6683 47.9317 79.3722 47.7507C79.0806 47.5725 78.6574 47.5395 78.0874 47.6998L75.9557 51.3595C75.6557 51.8441 74.923 51.4175 75.1967 50.9177L77.4277 47.086L77.4344 47.0784L78.5499 45.1632C78.228 44.6278 77.9121 44.1774 77.5134 43.919C77.1031 43.6532 76.5624 43.525 75.8121 43.5319L72.756 48.7809C72.4613 49.2869 71.7012 48.8451 71.9957 48.3391L75.1881 42.8584L75.1922 42.8517L75.5003 42.3219C75.1232 41.407 73.9547 40.5877 72.2341 40.4767L69.1575 45.7588C68.8629 46.265 68.1038 45.823 68.3986 45.3169L71.6215 39.784L72.043 39.0594C71.6752 38.2213 71.1862 37.6483 70.5825 37.3175C70.133 37.0712 69.6108 36.953 69.0323 36.9397ZM38.7878 51.1241C38.2695 52.0651 38.2928 51.9997 38.2695 52.0652L32.6818 61.3342L33.1988 65.0449C33.3932 66.4376 34.3993 68.1881 35.836 69.9743C37.2727 71.7604 39.1242 73.5907 40.9526 75.2309C44.508 78.4204 47.8515 80.804 48.0403 80.9383C48.5893 80.9436 48.9861 80.8098 49.2271 80.5601C49.4644 80.3142 49.5893 79.9067 49.5569 79.316V79.3146L46.4473 76.4392C46.0407 76.041 46.615 75.42 47.0432 75.7949L50.2981 78.8053L50.3007 78.8079L50.3048 78.812L51.9322 80.3171C52.5248 80.1191 53.0335 79.9078 53.3724 79.5747C53.7211 79.2319 53.9624 78.7322 54.1186 77.9982L49.6591 73.8749C49.2501 73.4774 49.8262 72.8533 50.2551 73.2293L54.9119 77.536L55.3678 77.9575C56.3426 77.7877 57.3957 76.8239 57.8777 75.1687L53.3915 71.02C52.9824 70.6224 53.5572 69.9983 53.9862 70.3744L58.6876 74.7218L58.699 74.7332L58.7079 74.7421L59.3039 75.291C60.2023 75.1141 60.8667 74.7619 61.3209 74.2442C61.7715 73.7309 62.0282 73.0411 62.1359 72.2272L51.4492 62.344C51.4492 62.344 51.4254 62.3231 51.4033 62.2956C51.3923 62.2819 51.3788 62.2645 51.3626 62.2358C51.3545 62.2214 51.3371 62.181 51.3371 62.181L51.3129 62.0969L51.3089 61.9696L51.3574 61.813L51.4618 61.6818L51.5725 61.613C51.5725 61.613 51.6349 61.59 51.6591 61.5851C51.6834 61.5797 51.7043 61.5784 51.7216 61.5774C51.756 61.5754 51.7787 61.5767 51.7979 61.5788C51.9512 61.5946 51.9567 61.6168 52.0539 61.6564C52.2484 61.7358 52.3401 61.683 53.1605 62.0843C53.4484 62.2251 53.829 62.0461 53.829 62.0461C54.1085 61.9735 54.6073 61.6482 54.8439 61.3419C55.215 60.8616 55.0095 60.6073 55.1075 60.3906L54.7625 59.9386L51.5535 58.6079C48.0017 57.1339 41.0605 54.3458 41.0479 54.3407L41.0377 54.3353C40.956 54.3027 40.8858 54.2465 40.8365 54.1736L38.7878 51.1241Z" fill="#020A45"></path>
  </mask>
  <g mask="url(#mask0_5725_5336)">
    <path d="M34.5 57L31.5 62.5L29.5 78.5C36 82.8333 49.2 91.5 50 91.5C50.8 91.5 68.6667 80.1667 77.5 74.5L82.5 48.5L77.5 32L68.5 35L63 45.5L61.5 46.5L57.5 45L54 59L40 52.5L38.5 50.5L34.5 57Z" fill="#020A45"></path>
  </g>
</svg>
