<?xml version="1.0" encoding="UTF-8"?>
<svg xmlns="http://www.w3.org/2000/svg" width="59" height="41" viewBox="0 0 59 41" fill="none">
  <path fill-rule="evenodd" clip-rule="evenodd" d="M29.4897 0C23.9613 0 19.4373 4.46024 19.4373 9.98976C19.4373 12.1084 20.0905 14.0842 21.2309 15.7042C20.3306 16.2025 19.4873 16.7939 18.7074 17.4769C18.4065 17.2508 18.0921 17.0661 17.7689 16.8721C18.4788 15.7369 18.8951 14.4035 18.8951 12.9721C18.8951 8.83492 15.491 5.48499 11.3663 5.48499C7.24149 5.48499 3.83741 8.83491 3.83741 12.9721C3.83741 14.4036 4.25372 15.7369 4.96367 16.8721C2.1146 18.6088 0 21.6996 0 25.8608V29.9484C0.010024 30.5478 0.496401 30.9297 0.834224 31.2206C5.88672 34.7693 9.65839 35.3551 14.1401 34.5575C14.1468 34.5648 14.1541 34.5715 14.1608 34.5781C26.9888 44.8278 39.3911 39.6356 44.8808 34.5575C49.3412 35.334 53.8695 34.1828 58.2075 31.1789C58.8564 30.7584 58.9606 30.4559 59 29.7399V25.8608C59 21.6825 56.8896 18.5789 54.0364 16.8513C54.7406 15.7193 55.1626 14.3972 55.1626 12.9721C55.1626 8.83492 51.7586 5.48499 47.6337 5.48499C43.509 5.48499 40.1258 8.83492 40.1258 12.9721C40.1258 14.3952 40.5289 15.7204 41.2311 16.8513C40.9134 17.0394 40.5935 17.2338 40.2926 17.456C39.5167 16.78 38.6626 16.1973 37.7692 15.7042C38.9116 14.0842 39.5836 12.1084 39.5836 9.98976C39.5836 4.46023 35.0405 0 29.4897 0ZM29.4897 2.6695C33.6219 2.6695 36.9142 5.91071 36.9142 9.98976C36.6596 14.2151 33.4827 17.2714 29.4897 17.3309C25.3925 17.3309 22.1068 14.0386 22.1068 9.98976C22.1068 5.9107 25.3877 2.6695 29.4897 2.6695ZM11.3663 8.15448C14.0673 8.15448 16.2256 10.2835 16.2256 12.9721C16.2256 15.6288 14.0673 17.748 11.3663 17.748C8.63979 17.5819 6.55071 15.8989 6.50691 12.9721C6.50691 10.2835 8.66521 8.15448 11.3663 8.15448ZM47.6339 8.15448C50.335 8.15448 52.4932 10.2835 52.4932 12.9721C52.4932 15.6288 50.335 17.748 47.6339 17.748C44.8003 17.6853 42.8359 15.6979 42.7954 12.9721C42.7954 10.2835 44.9328 8.15448 47.6339 8.15448ZM23.1287 17.7063C24.8688 19.1282 27.0748 20.0003 29.4897 20.0003C31.91 20.0003 34.1496 19.1445 35.8923 17.7272C39.6222 19.4991 42.3367 22.8649 42.3367 28.1966V33.2644C33.68 39.1677 25.4188 39.1773 16.6636 33.223V28.1969C16.6636 22.8447 19.3774 19.4864 23.1287 17.7063ZM15.9336 18.8741C16.2607 19.043 16.5556 19.2529 16.8512 19.4581C15.1024 21.7429 13.9941 24.6717 13.9941 28.1966V31.8671C10.2285 32.652 6.54815 31.8138 2.6695 29.2394V25.8608C2.6695 22.3105 4.39066 20.1232 6.81979 18.895C8.08647 19.8493 9.66626 20.4175 11.3663 20.4175C13.0766 20.4175 14.663 19.839 15.9336 18.8741ZM43.0875 18.8741C44.3571 19.8367 45.9258 20.4175 47.6339 20.4175C49.336 20.4175 50.9129 19.8306 52.1804 18.8741C54.603 20.0924 56.3306 22.2968 56.3306 25.8608V29.2185C52.4446 31.8134 48.7453 32.6519 45.0062 31.888V28.1966C45.0062 24.6667 43.9071 21.725 42.1489 19.4373C42.446 19.2352 42.7618 19.0417 43.0875 18.8741Z" fill="#091135"/>
</svg>