<?xml version="1.0" encoding="UTF-8"?>
<svg xmlns="http://www.w3.org/2000/svg" width="100" height="100" viewBox="0 0 100 100" fill="none">
  <rect x="0.5" y="0.5" width="99" height="99" rx="16.0289" fill="white"/>
  <rect x="0.5" y="0.5" width="99" height="99" rx="16.0289" stroke="#E3EDFD"/>
  <path d="M37.5489 41.3588C40.1787 39.7889 42.0886 36.8391 42.0886 34.3493V30.7695C41.942 30.7802 23.4924 30.9398 23.3899 30.9195V33.3494C23.3812 34.9634 23.7947 36.5517 24.5892 37.9567C25.3838 39.3616 26.5319 40.5344 27.9196 41.3588C28.2336 41.5256 28.4963 41.7747 28.6795 42.0794C28.8628 42.3842 28.9595 42.733 28.9595 43.0886C28.9595 43.4442 28.8628 43.7931 28.6795 44.0978C28.4963 44.4026 28.2336 44.6517 27.9196 44.8185C24.5463 46.8635 23.1037 51.584 23.3901 55.4077C23.4899 55.3977 41.9886 55.3977 42.0886 55.4177C42.3777 51.5901 40.9267 46.8657 37.5488 44.8185C37.2406 44.6469 36.9839 44.396 36.8051 44.0919C36.6264 43.7878 36.5321 43.4414 36.5321 43.0886C36.5321 42.7358 36.6264 42.3895 36.8051 42.0854C36.9839 41.7812 37.2407 41.5304 37.5489 41.3588Z" fill="#FEDC00"/>
  <path d="M43.4784 60.4873V59.0873C43.4735 58.639 43.2925 58.2105 42.9745 57.8944C42.6565 57.5782 42.227 57.3998 41.7786 57.3975H23.6899C23.2423 57.3994 22.8136 57.5781 22.4971 57.8946C22.1806 58.2111 22.002 58.6398 22 59.0873V60.4873C22.0011 60.9351 22.1796 61.3643 22.4962 61.6809C22.8129 61.9976 23.242 62.176 23.6899 62.1771H41.7786C42.228 62.1781 42.6594 62.0007 42.9781 61.6838C43.2968 61.367 43.4767 60.9367 43.4784 60.4873Z" fill="#FFC907"/>
  <path d="M23.39 28.9096C24.0654 28.9971 41.9418 28.8179 42.0886 28.7596C42.4684 28.7307 42.8231 28.5588 43.081 28.2786C43.339 27.9983 43.4811 27.6307 43.4785 27.2498V25.6998C43.4787 25.4765 43.4348 25.2554 43.3495 25.0491C43.2641 24.8428 43.1389 24.6553 42.981 24.4974C42.8232 24.3396 42.6357 24.2144 42.4294 24.129C42.2231 24.0437 42.0019 23.9998 41.7787 24H23.6899C23.2405 24.0017 22.8102 24.1816 22.4933 24.5003C22.1765 24.819 21.9991 25.2504 22 25.6998V27.2498C22.0032 27.6447 22.1436 28.0263 22.3972 28.3291C22.6508 28.6319 23.0018 28.8371 23.39 28.9096Z" fill="#FFC907"/>
  <path d="M77.766 53.9077C77.7464 53.8657 77.723 53.8255 77.696 53.7877L74.0062 48.4781C73.8514 48.1425 73.7696 47.7778 73.7662 47.4082V40.3187C73.7821 37.7015 73.0944 35.1281 71.7751 32.8678C70.4558 30.6074 68.5534 28.743 66.2668 27.4697C59.8997 23.972 52.4172 23.1035 45.4183 25.0499C45.4585 25.2642 45.4786 25.4818 45.4783 25.6998C45.4548 27.5154 45.8313 29.9173 44.0883 31.0394L44.0884 34.3492C44.1375 37.575 41.6869 41.1637 38.5887 43.1085C40.271 44.1109 41.663 45.5345 42.6274 47.2389C43.5918 48.9432 44.0954 50.8695 44.0884 52.8278V55.2077C44.5209 55.553 44.8703 55.991 45.1109 56.4895C45.3514 56.9879 45.477 57.534 45.4782 58.0875V60.4873C45.475 61.4666 45.0839 62.4047 44.3905 63.0963C43.6971 63.7878 42.7579 64.1764 41.7786 64.177H34.6991C34.8291 64.347 34.9591 64.527 35.099 64.697C36.046 65.7519 37.0667 67.0527 36.9989 68.5467L36.9989 72.3264C36.9987 72.5732 37.0893 72.8115 37.2534 72.9959C37.4175 73.1803 37.6437 73.2979 37.8889 73.3263C38.0234 73.3102 63.1593 76.1099 63.2769 76.096C63.5415 76.0943 63.7948 75.9884 63.982 75.8013C64.1692 75.6142 64.2751 75.3609 64.277 75.0962V70.6765C64.2759 70.3809 64.3922 70.097 64.6003 69.887C64.8084 69.677 65.0913 69.5582 65.3869 69.5566H70.3865C71.2822 69.5543 72.1405 69.1975 72.7738 68.5642C73.4072 67.9308 73.764 67.0725 73.7663 66.1769V57.0775C73.7654 57.0523 73.7697 57.0272 73.779 57.0038C73.7882 56.9803 73.8022 56.959 73.82 56.9412C73.8378 56.9234 73.8591 56.9094 73.8826 56.9002C73.906 56.891 73.9311 56.8866 73.9563 56.8875H75.9361C76.2862 56.8859 76.6301 56.7949 76.9353 56.6233C77.2404 56.4516 77.4967 56.205 77.6799 55.9066C77.8631 55.6083 77.9672 55.2681 77.9823 54.9183C77.9973 54.5686 77.9229 54.2207 77.766 53.9077Z" fill="#020A45"/>
</svg>