<?xml version="1.0" encoding="UTF-8"?>
<svg xmlns="http://www.w3.org/2000/svg" width="46" height="45" viewBox="0 0 46 45" fill="none">
  <path d="M23.0847 6.52873C24.7341 6.52873 26.0712 5.19161 26.0712 3.54219C26.0712 1.89278 24.7341 0.555664 23.0847 0.555664C21.4353 0.555664 20.0981 1.89278 20.0981 3.54219C20.0981 5.19161 21.4353 6.52873 23.0847 6.52873Z" fill="#020A45"/>
  <path d="M25.9374 3.54204C25.9231 4.7252 25.1884 5.81295 24.0672 6.22324C22.9509 6.62876 21.6675 6.28526 20.9042 5.3788C20.1313 4.46281 20.0216 3.11744 20.637 2.08694C21.2477 1.06122 22.469 0.512572 23.6379 0.746342C24.9689 1.00874 25.9231 2.1919 25.9374 3.54204C25.9374 3.71379 26.2093 3.71379 26.2046 3.54204C26.1903 2.24438 25.384 1.07076 24.1627 0.612759C22.9318 0.154761 21.4958 0.545968 20.6656 1.56215C19.8451 2.56879 19.7306 4.01435 20.3937 5.13072C21.0616 6.25186 22.3879 6.84344 23.6665 6.60013C25.1311 6.32343 26.1807 5.01145 26.1998 3.53727C26.2046 3.37029 25.9374 3.37029 25.9374 3.54204Z" fill="#020A45"/>
  <path d="M28.5612 13.8233H17.6074C17.159 13.8233 16.7964 13.4607 16.7964 13.0122V12.4684C16.7964 9.7299 19.0148 7.51147 21.7533 7.51147H24.4154C27.1538 7.51147 29.3723 9.7299 29.3723 12.4684V13.0122C29.377 13.4607 29.0097 13.8233 28.5612 13.8233Z" fill="#020A45"/>
  <path d="M28.5611 13.6897C27.2157 13.6897 25.8656 13.6897 24.5202 13.6897C22.526 13.6897 20.5318 13.6897 18.5376 13.6897C18.0796 13.6897 17.3163 13.8233 17.03 13.3701C16.8869 13.1411 16.9251 12.8453 16.9251 12.5877C16.9251 12.2728 16.9394 11.9579 16.9919 11.6478C17.1207 10.894 17.4308 10.1832 17.8888 9.5725C18.7952 8.36072 20.2408 7.64987 21.7531 7.64509C22.5976 7.64032 23.442 7.64509 24.2864 7.64509C25.6557 7.64509 26.9581 8.14603 27.9123 9.1479C28.4323 9.69177 28.8187 10.3597 29.0382 11.0849C29.2195 11.7003 29.2481 12.3253 29.2385 12.9598C29.2338 13.3558 28.9762 13.6706 28.5611 13.6897C28.3893 13.6945 28.3893 13.9664 28.5611 13.9569C28.9332 13.9426 29.2719 13.7422 29.4246 13.3939C29.5343 13.1458 29.5057 12.8691 29.5057 12.6067C29.5057 11.8768 29.3912 11.1707 29.1097 10.498C28.5086 9.06203 27.2491 7.9552 25.7463 7.54968C24.711 7.2682 23.5708 7.37316 22.5069 7.37316C22.0775 7.37316 21.6482 7.35407 21.2188 7.40178C20.4316 7.48766 19.6683 7.75005 19.0004 8.17943C17.6884 9.02386 16.8201 10.4456 16.677 12.0008C16.6484 12.2919 16.6531 12.5781 16.6531 12.8691C16.6531 13.1745 16.7056 13.4559 16.9298 13.6802C17.1636 13.9139 17.4546 13.9569 17.7647 13.9569C19.5824 13.9569 21.4049 13.9569 23.2225 13.9569C24.9687 13.9569 26.7196 13.9807 28.4657 13.9569C28.4943 13.9569 28.5277 13.9569 28.5563 13.9569C28.7376 13.9569 28.7376 13.6897 28.5611 13.6897Z" fill="#020A45"/>
  <path d="M23.0847 37.1381C24.7341 37.1381 26.0712 35.801 26.0712 34.1516C26.0712 32.5022 24.7341 31.165 23.0847 31.165C21.4353 31.165 20.0981 32.5022 20.0981 34.1516C20.0981 35.801 21.4353 37.1381 23.0847 37.1381Z" fill="#020A45"/>
  <path d="M25.9374 34.1517C25.9231 35.3348 25.1884 36.4226 24.0672 36.8329C22.9509 37.2384 21.6675 36.8949 20.9042 35.9884C20.1313 35.0724 20.0216 33.7271 20.637 32.6966C21.2477 31.6708 22.469 31.1222 23.6379 31.356C24.9689 31.6184 25.9231 32.8015 25.9374 34.1517C25.9374 34.3234 26.2093 34.3234 26.2046 34.1517C26.1903 32.854 25.384 31.6804 24.1627 31.2224C22.9318 30.7644 21.4958 31.1556 20.6656 32.1718C19.8451 33.1784 19.7306 34.624 20.3937 35.7403C21.0616 36.8615 22.3879 37.4531 23.6665 37.2098C25.1311 36.933 26.1807 35.6211 26.1998 34.1469C26.2046 33.9799 25.9374 33.9799 25.9374 34.1517Z" fill="#020A45"/>
  <path d="M28.5612 44.4328H17.6074C17.159 44.4328 16.7964 44.0702 16.7964 43.6217V43.0778C16.7964 40.3394 19.0148 38.121 21.7533 38.121H24.4154C27.1538 38.121 29.3723 40.3394 29.3723 43.0778V43.6217C29.377 44.0702 29.0097 44.4328 28.5612 44.4328Z" fill="#020A45"/>
  <path d="M28.5611 44.2991C27.2157 44.2991 25.8656 44.2991 24.5202 44.2991C22.526 44.2991 20.5318 44.2991 18.5376 44.2991C18.0796 44.2991 17.3163 44.4327 17.03 43.9794C16.8869 43.7504 16.9251 43.4547 16.9251 43.197C16.9251 42.8822 16.9394 42.5673 16.9919 42.2572C17.1207 41.5034 17.4308 40.7925 17.8888 40.1819C18.7952 38.9701 20.2408 38.2592 21.7531 38.2545C22.5976 38.2497 23.442 38.2545 24.2864 38.2545C25.6557 38.2545 26.9581 38.7554 27.9123 39.7573C28.4323 40.3011 28.8187 40.9691 29.0382 41.6942C29.2195 42.3097 29.2481 42.9346 29.2385 43.5692C29.2338 43.9651 28.9762 44.28 28.5611 44.2991C28.3893 44.3039 28.3893 44.5758 28.5611 44.5663C28.9332 44.5519 29.2719 44.3516 29.4246 44.0033C29.5343 43.7552 29.5057 43.4785 29.5057 43.2161C29.5057 42.4862 29.3912 41.7801 29.1097 41.1074C28.5086 39.6714 27.2491 38.5646 25.7463 38.1591C24.711 37.8776 23.5708 37.9825 22.5069 37.9825C22.0775 37.9825 21.6482 37.9634 21.2188 38.0112C20.4316 38.097 19.6683 38.3594 19.0004 38.7888C17.6884 39.6332 16.8201 41.0549 16.677 42.6102C16.6484 42.9012 16.6531 43.1875 16.6531 43.4785C16.6531 43.7838 16.7056 44.0653 16.9298 44.2896C17.1636 44.5233 17.4546 44.5663 17.7647 44.5663C19.5824 44.5663 21.4049 44.5663 23.2225 44.5663C24.9687 44.5663 26.7196 44.5901 28.4657 44.5663C28.4943 44.5663 28.5277 44.5663 28.5563 44.5663C28.7376 44.5663 28.7376 44.2991 28.5611 44.2991Z" fill="#020A45"/>
  <path d="M6.96407 22.9307C8.61348 22.9307 9.9506 21.5936 9.9506 19.9442C9.9506 18.2948 8.61348 16.9576 6.96407 16.9576C5.31465 16.9576 3.97754 18.2948 3.97754 19.9442C3.97754 21.5936 5.31465 22.9307 6.96407 22.9307Z" fill="#020A45"/>
  <path d="M9.81679 19.9443C9.80248 21.1274 9.06778 22.2152 7.94663 22.6255C6.83026 23.031 5.54691 22.6875 4.78358 21.781C4.01071 20.865 3.90098 19.5197 4.51642 18.4892C5.12708 17.4634 6.34841 16.9148 7.51726 17.1486C8.84832 17.411 9.80248 18.5941 9.81679 19.9443C9.81679 20.116 10.0887 20.116 10.084 19.9443C10.0696 18.6466 9.26338 17.473 8.04205 17.015C6.81118 16.557 5.37516 16.9482 4.54504 17.9644C3.72446 18.971 3.60996 20.4166 4.27311 21.5329C4.94102 22.6541 6.26731 23.2457 7.54589 23.0024C9.01053 22.7256 10.0601 21.4137 10.0792 19.9395C10.0887 19.7725 9.82156 19.7725 9.81679 19.9443Z" fill="#020A45"/>
  <path d="M12.4454 30.2254H1.48682C1.03836 30.2254 0.675781 29.8628 0.675781 29.4143V28.8705C0.675781 26.132 2.89421 23.9136 5.63266 23.9136H8.29478C11.0332 23.9136 13.2517 26.132 13.2517 28.8705V29.4143C13.2564 29.858 12.8938 30.2254 12.4454 30.2254Z" fill="#020A45"/>
  <path d="M12.4454 30.0918C11.1 30.0918 9.74985 30.0918 8.40448 30.0918C6.41028 30.0918 4.41608 30.0918 2.42188 30.0918C1.96388 30.0918 1.20055 30.2254 0.914302 29.7722C0.771178 29.5432 0.809344 29.2474 0.809344 28.9898C0.809344 28.6749 0.823656 28.36 0.876135 28.0499C1.00495 27.2961 1.31505 26.5853 1.77305 25.9746C2.6795 24.7628 4.12506 24.052 5.63741 24.0472C6.48184 24.0424 7.32628 24.0472 8.17071 24.0472C9.53994 24.0472 10.8424 24.5481 11.7965 25.55C12.3166 26.0939 12.703 26.7618 12.9224 27.487C13.1037 28.1024 13.1324 28.7274 13.1228 29.3619C13.118 29.7579 12.8604 30.0727 12.4454 30.0918C12.2736 30.0966 12.2736 30.3685 12.4454 30.359C12.8175 30.3447 13.1562 30.1443 13.3089 29.796C13.4186 29.5479 13.39 29.2712 13.39 29.0088C13.39 28.2789 13.2755 27.5728 12.994 26.9001C12.3929 25.4641 11.1334 24.3573 9.63058 23.9518C8.59532 23.6703 7.45509 23.7753 6.3912 23.7753C5.96183 23.7753 5.53245 23.7562 5.10308 23.8039C4.31589 23.8898 3.55256 24.1521 2.88465 24.5815C1.57267 25.426 0.704386 26.8477 0.561262 28.4029C0.532637 28.694 0.537408 28.9802 0.537408 29.2712C0.537408 29.5766 0.589886 29.858 0.814115 30.0823C1.04788 30.316 1.3389 30.359 1.64901 30.359C3.46669 30.359 5.28914 30.359 7.10682 30.359C8.85294 30.359 10.6038 30.3828 12.3499 30.359C12.3786 30.359 12.412 30.359 12.4406 30.359C12.6171 30.359 12.6171 30.0918 12.4454 30.0918Z" fill="#020A45"/>
  <path d="M38.9992 22.9307C40.6486 22.9307 41.9858 21.5936 41.9858 19.9442C41.9858 18.2948 40.6486 16.9576 38.9992 16.9576C37.3498 16.9576 36.0127 18.2948 36.0127 19.9442C36.0127 21.5936 37.3498 22.9307 38.9992 22.9307Z" fill="#020A45"/>
  <path d="M41.8524 19.9443C41.8381 21.1274 41.1034 22.2152 39.9823 22.6255C38.8659 23.031 37.5826 22.6875 36.8192 21.781C36.0464 20.865 35.9366 19.5197 36.5521 18.4892C37.1627 17.4634 38.3841 16.9148 39.5529 17.1486C40.8792 17.411 41.8334 18.5941 41.8524 19.9443C41.8524 20.116 42.1244 20.116 42.1196 19.9443C42.1053 18.6466 41.299 17.473 40.0777 17.015C38.8468 16.557 37.4108 16.9482 36.5807 17.9644C35.7601 18.971 35.6456 20.4166 36.3088 21.5329C36.9767 22.6541 38.303 23.2457 39.5815 23.0024C41.0462 22.7256 42.0958 21.4137 42.1148 19.9395C42.1196 19.7725 41.8524 19.7725 41.8524 19.9443Z" fill="#020A45"/>
  <path d="M44.4767 30.2254H33.523C33.0745 30.2254 32.7119 29.8628 32.7119 29.4143V28.8705C32.7119 26.132 34.9303 23.9136 37.6688 23.9136H40.3309C43.0694 23.9136 45.2878 26.132 45.2878 28.8705V29.4143C45.2878 29.858 44.9252 30.2254 44.4767 30.2254Z" fill="#020A45"/>
  <path d="M44.4766 30.0918C43.1312 30.0918 41.7811 30.0918 40.4357 30.0918C38.4415 30.0918 36.4473 30.0918 34.4531 30.0918C33.9951 30.0918 33.2318 30.2254 32.9456 29.7722C32.8024 29.5432 32.8406 29.2474 32.8406 28.9898C32.8406 28.6749 32.8549 28.36 32.9074 28.0499C33.0362 27.2961 33.3463 26.5853 33.8043 25.9746C34.7108 24.7628 36.1563 24.052 37.6687 24.0472C38.5131 24.0424 39.3575 24.0472 40.202 24.0472C41.5712 24.0472 42.8736 24.5481 43.8278 25.55C44.3478 26.0939 44.7342 26.7618 44.9537 27.487C45.135 28.1024 45.1636 28.7274 45.1541 29.3619C45.1493 29.7579 44.8917 30.0727 44.4766 30.0918C44.3049 30.0966 44.3049 30.3685 44.4766 30.359C44.8487 30.3447 45.1875 30.1443 45.3401 29.796C45.4499 29.5479 45.4212 29.2712 45.4212 29.0088C45.4212 28.2789 45.3067 27.5728 45.0253 26.9001C44.4241 25.4641 43.1646 24.3573 41.6618 23.9518C40.6266 23.6703 39.4863 23.7753 38.4224 23.7753C37.9931 23.7753 37.5637 23.7562 37.1343 23.8039C36.3471 23.8898 35.5838 24.1521 34.9159 24.5815C33.6039 25.426 32.7356 26.8477 32.5925 28.4029C32.5639 28.694 32.5687 28.9802 32.5687 29.2712C32.5687 29.5766 32.6211 29.858 32.8454 30.0823C33.0791 30.316 33.3702 30.359 33.6803 30.359C35.4979 30.359 37.3204 30.359 39.1381 30.359C40.8842 30.359 42.6351 30.3828 44.3812 30.359C44.4098 30.359 44.4432 30.359 44.4718 30.359C44.6484 30.359 44.6484 30.0918 44.4766 30.0918Z" fill="#020A45"/>
  <path d="M15.2219 38.312C12.5264 36.8712 10.3223 34.7482 8.78608 32.1242C8.59048 31.7903 8.14202 31.671 7.80806 31.8666C7.4741 32.0622 7.35483 32.5107 7.55044 32.8446C9.19637 35.6642 11.6199 38.0066 14.4967 39.5428C14.8355 39.7241 15.2744 39.6287 15.4748 39.2852C15.6704 38.9703 15.5654 38.498 15.2219 38.312Z" fill="#020A45"/>
  <path d="M37.7832 31.8235C37.4445 32.4055 37.0724 32.9685 36.6669 33.5076C36.643 33.5362 36.6239 33.5648 36.6001 33.5982C36.5237 33.6984 36.6526 33.5314 36.5762 33.6316C36.5285 33.6889 36.4856 33.7509 36.4379 33.8081C36.3281 33.9417 36.2184 34.0753 36.1039 34.2089C35.8845 34.4617 35.6602 34.7098 35.4265 34.9531C34.4675 35.9455 33.5277 36.704 32.3827 37.4196C31.7243 37.8347 31.0373 38.1973 30.3265 38.5169C29.9734 38.6744 29.8875 39.1896 30.0688 39.4949C30.2787 39.8575 30.6938 39.91 31.0468 39.7526C33.6135 38.598 35.9035 36.8042 37.6353 34.5858C38.141 33.9369 38.6086 33.2595 39.0236 32.5486C39.2193 32.2147 39.1 31.7662 38.766 31.5706C38.4273 31.3702 37.9788 31.4895 37.7832 31.8235Z" fill="#020A45"/>
  <path d="M30.4455 9.76813C31.1278 10.0687 31.7957 10.4122 32.435 10.7986C32.7641 10.999 33.0838 11.2089 33.3987 11.4284C33.704 11.6431 33.9235 11.8053 34.1715 12.0104C35.2974 12.9216 36.3566 14.0428 37.1533 15.1448C37.3775 15.4597 37.7783 15.6124 38.1313 15.4025C38.4414 15.2212 38.6132 14.7393 38.3889 14.4244C36.5426 11.8673 34.0618 9.80152 31.1707 8.53249C30.8176 8.37505 30.4026 8.42753 30.1927 8.79011C30.0114 9.09067 30.0925 9.61069 30.4455 9.76813Z" fill="#020A45"/>
  <path d="M14.7832 8.42746C11.8921 9.70127 9.41127 11.7623 7.56497 14.3194C7.34074 14.6343 7.51249 15.1161 7.82259 15.2974C8.18517 15.5074 8.57638 15.3547 8.80061 15.0398C9.19181 14.4959 9.64504 13.9521 10.1507 13.413C10.6612 12.8739 11.2051 12.3729 11.7776 11.9054C12.269 11.5046 12.8987 11.0657 13.5142 10.6936C14.1535 10.3072 14.8166 9.96367 15.5036 9.66311C15.8566 9.50567 15.9377 8.99042 15.7612 8.68509C15.5513 8.32251 15.141 8.2748 14.7832 8.42746Z" fill="#020A45"/>
  <path d="M22.9844 25.6548L26.095 27.2912L25.5034 23.8276L28.0176 21.3706L24.5397 20.8649L22.9844 17.7114L21.4291 20.8649L17.9512 21.3706L20.4654 23.8276L19.8738 27.2912L22.9844 25.6548Z" fill="#FFC907"/>
  <path d="M22.6217 26.2702C23.6569 26.8141 24.697 27.3628 25.7322 27.9066C26.3191 28.2167 26.8868 27.711 26.7818 27.1004C26.5814 25.9458 26.3858 24.7913 26.1855 23.6367C26.1234 23.8705 26.0614 24.0995 25.9994 24.3333C26.8391 23.5175 27.6787 22.6969 28.5184 21.8811C28.8714 21.5376 28.7522 20.7647 28.2035 20.6836C27.0442 20.5166 25.8849 20.3449 24.7256 20.1779C24.8687 20.2876 25.0118 20.3974 25.155 20.5071C24.635 19.4575 24.1197 18.4032 23.5997 17.3536C23.3707 16.886 22.593 16.886 22.364 17.3536C21.844 18.4032 21.3288 19.4575 20.8088 20.5071C20.9519 20.3974 21.095 20.2876 21.2381 20.1779C20.0788 20.3449 18.9195 20.5166 17.7602 20.6836C17.2116 20.7647 17.0923 21.5376 17.4453 21.8811C18.285 22.6969 19.1247 23.5175 19.9643 24.3333C19.9023 24.0995 19.8403 23.8705 19.7783 23.6367C19.5779 24.7913 19.3823 25.9458 19.1819 27.1004C19.077 27.711 19.6495 28.2167 20.2315 27.9066C21.2668 27.3628 22.3068 26.8141 23.3421 26.2702C23.6856 26.0889 23.7857 25.6119 23.5997 25.2922C23.3993 24.944 22.9652 24.8533 22.6217 25.0346C21.5864 25.5785 20.5464 26.1271 19.5111 26.671C19.8594 26.9382 20.2124 27.2101 20.5607 27.4773C20.7372 26.4515 20.9137 25.4258 21.0902 24.3953C21.1141 24.2665 21.1379 24.1377 21.157 24.0136C21.2191 23.6224 21.0616 23.403 20.8135 23.1597C20.3842 22.7398 19.9548 22.3248 19.5254 21.9049C19.1676 21.5567 18.8098 21.2084 18.452 20.8601C18.347 21.2609 18.2421 21.6569 18.1371 22.0576C19.1676 21.9097 20.1981 21.757 21.2286 21.6092C21.3574 21.5901 21.491 21.5853 21.615 21.5519C21.9156 21.4803 22.0349 21.2418 22.1541 21.0033C22.4165 20.4689 22.6837 19.9298 22.9461 19.3955C23.1655 18.9566 23.3802 18.5129 23.5997 18.074C23.1894 18.074 22.7743 18.074 22.364 18.074C22.8268 19.0091 23.2848 19.9441 23.7476 20.8744C23.8048 20.9889 23.8525 21.113 23.9193 21.2227C24.0815 21.4994 24.3153 21.5471 24.592 21.5901C25.1836 21.6759 25.7752 21.7618 26.3668 21.8477C26.8534 21.9193 27.34 21.9908 27.8266 22.0576C27.7217 21.6569 27.6167 21.2609 27.5118 20.8601C26.7675 21.5853 26.0185 22.3152 25.2742 23.0404C25.1836 23.131 25.0834 23.2169 24.9975 23.3123C24.7399 23.589 24.7924 23.8991 24.8496 24.2283C24.9498 24.8199 25.05 25.4067 25.155 25.9983C25.2408 26.4897 25.322 26.9811 25.4078 27.4725C25.7561 27.2053 26.1091 26.9334 26.4574 26.6662C25.4221 26.1223 24.3821 25.5737 23.3468 25.0298C23.0033 24.8485 22.5692 24.944 22.3688 25.2875C22.178 25.6166 22.2782 26.0937 22.6217 26.2702Z" fill="#FFC907"/>
</svg>