<?xml version="1.0" encoding="UTF-8"?>
<svg xmlns="http://www.w3.org/2000/svg" width="100" height="100" viewBox="0 0 100 100" fill="none">
  <rect x="0.5" y="0.5" width="99" height="99" rx="16.0289" fill="white"/>
  <rect x="0.5" y="0.5" width="99" height="99" rx="16.0289" stroke="#E3EDFD"/>
  <path d="M75.2999 55.2077C73.7634 56.2405 69.6801 59.1287 68.5224 59.9489C68.5882 62.0367 65.644 63.8191 64.6242 64.2717C62.9815 65.0066 59.8407 65.0126 58.0488 64.7906C57.9521 64.7779 57.8644 64.7272 57.805 64.6499C57.7456 64.5725 57.7194 64.4747 57.7321 64.378C57.7379 64.3299 57.7532 64.2834 57.7772 64.2414C57.8012 64.1993 57.8333 64.1624 57.8718 64.1329C57.9102 64.1034 57.9541 64.0819 58.001 64.0696C58.0479 64.0573 58.0967 64.0545 58.1447 64.0613C59.7449 64.2698 62.8169 64.2689 64.3251 63.599C65.4104 63.1175 67.8155 61.5449 67.7891 60.0105C67.7666 58.6981 66.8059 57.1295 65.2958 57.4257C64.8604 57.525 64.4312 57.6496 64.0104 57.7989C62.1294 58.4035 59.9959 59.0906 55.5517 57.3898C53.6516 56.6785 51.6371 56.3219 49.6083 56.3377C44.5585 56.3377 40.5086 58.3369 40.4529 58.3647C40.286 58.4351 26.1026 64.3465 23.9469 65.2069C22.6099 65.7585 21.5 66.7479 20.7991 68.013C20.0983 69.2782 19.8481 70.7439 20.0896 72.1699C20.3236 73.5738 20.7306 74.9434 21.3013 76.2473C22.6859 79.424 26.4281 80.8959 29.6462 79.5298L43.5167 73.6362C44.5654 73.187 45.7179 73.037 46.8467 73.2026C51.9578 73.9657 61.0643 72.1289 65.5838 69.4205C70.1853 66.6413 74.5925 63.5523 78.7749 60.1751C79.8805 59.2876 80.2944 57.8202 79.7825 56.6059C79.1268 54.9051 76.7833 54.1589 75.2999 55.2077Z" fill="#020A45"/>
  <path d="M42.67 26.5493C42.5685 26.6078 42.464 26.661 42.357 26.7088L36.1959 29.4444C35.6219 29.7007 35.1567 30.1511 34.8818 30.7164L49.0389 35.3203L42.67 26.5493Z" fill="#FEDC00"/>
  <path d="M51.9889 20.8571C51.567 20.3897 50.9936 20.0861 50.3699 20V34.8874L56.7392 26.1159C56.6538 26.0386 56.5724 25.957 56.4953 25.8715L51.9889 20.8571Z" fill="#FEDC00"/>
  <path d="M61.6597 39.0596L65.0359 33.2239C65.3499 32.6787 65.4614 32.0402 65.3509 31.4209L51.193 36.0204L61.5019 39.3679C61.5492 39.2625 61.6019 39.1596 61.6597 39.0596Z" fill="#FEDC00"/>
  <path d="M60.5218 47.1179L61.2203 40.4133C61.2325 40.2972 61.2506 40.1819 61.2744 40.0676L50.9646 36.72L59.7141 48.7644C60.1689 48.3279 60.4549 47.7448 60.5218 47.1179Z" fill="#FFC907"/>
  <path d="M63.808 29.4443L57.6467 26.708C57.5398 26.6602 57.4353 26.607 57.3338 26.5486L50.9645 35.3207L65.1144 30.724C64.8436 30.1566 64.3809 29.7033 63.808 29.4443Z" fill="#FFC907"/>
  <path d="M26.4855 38.7744L23.7045 41.5551C23.1894 42.0189 23.1866 42.9913 23.699 43.4582C24.1753 43.9805 25.134 43.9819 25.6075 43.4688L28.3878 40.688C28.9044 40.2179 28.9055 39.2542 28.3933 38.7854C27.918 38.2627 26.9587 38.2611 26.4855 38.7744Z" fill="#FFC907"/>
  <path d="M28.3933 28.8049L25.6128 26.0246C25.1378 25.5035 24.1673 25.5083 23.6994 26.0299C23.1888 26.4943 23.1893 27.4625 23.6994 27.9272L26.4801 30.708C26.9615 31.2101 27.9118 31.2044 28.3823 30.7138C28.9058 30.2371 28.907 29.2792 28.3933 28.8049Z" fill="#FFC907"/>
  <path d="M50.3699 47.9917C50.4852 48.0044 50.5998 48.0228 50.7133 48.0471L57.3059 49.4547C57.9216 49.5845 58.5634 49.4933 59.1187 49.1972L50.3699 37.1536V47.9917Z" fill="#FEDC00"/>
  <path d="M71.6108 40.6827L74.3911 43.4635C74.8617 43.9792 75.8243 43.9806 76.294 43.4687C76.8194 42.9904 76.8178 42.0279 76.2993 41.5554L73.5238 38.7801C73.0547 38.2635 72.0899 38.2626 71.6218 38.7743C71.0981 39.2506 71.0971 40.2085 71.6108 40.6827Z" fill="#FFC907"/>
  <path d="M49.6339 20C49.0101 20.0862 48.4368 20.3897 48.0149 20.8571L43.5086 25.8715C43.4312 25.9573 43.3492 26.0387 43.265 26.1158L49.6339 34.8875V20Z" fill="#FFC907"/>
  <path d="M73.518 30.7135L76.2993 27.9323C76.8158 27.4618 76.8169 26.4994 76.3051 26.0297C75.8406 25.5096 74.866 25.5041 74.3964 26.0191L71.6161 28.7994C71.0997 29.2698 71.0981 30.2329 71.6108 30.7025C72.1023 31.2151 73.0483 31.2041 73.518 30.7135Z" fill="#FFC907"/>
  <path d="M34.9677 33.2239L38.344 39.0591C38.4018 39.1593 38.4546 39.2625 38.5019 39.3681L48.812 36.0197L34.6535 31.4155C34.5416 32.0365 34.6529 32.6771 34.9677 33.2239Z" fill="#FFC907"/>
  <path d="M42.6974 49.4544L49.2906 48.0467C49.4041 48.0224 49.5187 48.0039 49.634 47.9914V37.1531L40.8851 49.1966C41.4401 49.4929 42.0818 49.5841 42.6974 49.4544Z" fill="#FFC907"/>
  <path d="M39.4821 47.1177C39.5487 47.7446 39.8346 48.3279 40.2895 48.7644L49.0389 36.72L38.7295 40.0674C38.7535 40.1818 38.7716 40.2973 38.7838 40.4135L39.4821 47.1177Z" fill="#FEDC00"/>
</svg>