<?xml version="1.0" encoding="UTF-8"?>
<svg xmlns="http://www.w3.org/2000/svg" width="100" height="100" viewBox="0 0 100 100" fill="none">
  <rect x="0.5" y="0.5" width="99" height="99" rx="16.0289" fill="white"/>
  <rect x="0.5" y="0.5" width="99" height="99" rx="16.0289" stroke="#E3EDFD"/>
  <path d="M79.6475 43.5573C79.5469 43.2498 79.3632 42.9761 79.1167 42.7666C78.8702 42.5571 78.5705 42.4198 78.2508 42.3701L59.794 39.6885L51.5398 22.9706C51.3954 22.6791 51.1724 22.4338 50.896 22.2624C50.6196 22.0909 50.3008 22 49.9755 22C49.6503 22 49.3315 22.0909 49.0551 22.2624C48.7787 22.4338 48.5557 22.6791 48.4113 22.9706L40.157 39.6885L21.7142 42.3701C21.3922 42.4169 21.0896 42.5527 20.8407 42.7623C20.5918 42.9719 20.4064 43.2469 20.3055 43.5563C20.2045 43.8656 20.1921 44.197 20.2695 44.5131C20.3469 44.8292 20.5111 45.1173 20.7435 45.345L34.0956 58.3618L30.9461 76.7348C30.8898 77.0556 30.9247 77.3857 31.0467 77.6875C31.1688 77.9894 31.3732 78.251 31.6367 78.4424C31.9001 78.6338 32.212 78.7473 32.5369 78.7702C32.8617 78.793 33.1864 78.7241 33.4741 78.5714L49.9755 69.8982L66.477 78.5714C66.7266 78.7037 67.0046 78.7732 67.2871 78.7739C67.5409 78.7735 67.7916 78.7177 68.0216 78.6104C68.2517 78.5032 68.4556 78.3471 68.6191 78.153C68.7827 77.9588 68.9019 77.7314 68.9685 77.4865C69.0352 77.2416 69.0476 76.9851 69.005 76.7348L65.8555 58.3618L79.2075 45.345C79.4401 45.1176 79.6046 44.8297 79.6823 44.5138C79.76 44.198 79.748 43.8667 79.6475 43.5573ZM61.1977 51.197L56.8541 55.4358L57.8806 61.4135C57.9339 61.7344 57.8968 62.0639 57.7735 62.3649C57.6502 62.6659 57.4455 62.9267 57.1824 63.1181C56.9193 63.3094 56.6082 63.4237 56.2838 63.4483C55.9594 63.4729 55.6346 63.4067 55.3457 63.2571L49.9755 60.4289L44.6054 63.2571C44.3164 63.4052 43.9924 63.4712 43.6685 63.4478C43.3447 63.4244 43.0335 63.3125 42.7688 63.1244C42.5046 62.9326 42.2992 62.6708 42.1759 62.3685C42.0525 62.0662 42.016 61.7354 42.0705 61.4135L43.097 55.4358L38.7534 51.197C38.5209 50.9693 38.3567 50.6811 38.2793 50.3651C38.2019 50.049 38.2144 49.7176 38.3153 49.4083C38.4163 49.0989 38.6017 48.8239 38.8506 48.6143C39.0995 48.4047 39.4021 48.2689 39.7241 48.2221L45.7227 47.3492L48.4113 41.9092C48.5557 41.6178 48.7787 41.3725 49.0551 41.201C49.3315 41.0295 49.6503 40.9386 49.9755 40.9386C50.3008 40.9386 50.6196 41.0295 50.896 41.201C51.1724 41.3725 51.3954 41.6178 51.5398 41.9092L54.2284 47.3492L60.227 48.2221C60.5467 48.2718 60.8464 48.409 61.0929 48.6186C61.3394 48.8281 61.5231 49.1018 61.6236 49.4093C61.7275 49.7172 61.7427 50.0482 61.6673 50.3643C61.592 50.6804 61.4293 50.969 61.1977 51.197Z" fill="#020A45"/>
  <path d="M36.3163 37.412C35.8745 37.4109 35.4498 37.241 35.1291 36.9371L29.5984 31.7695C29.431 31.6126 29.2962 31.4244 29.2015 31.2155C29.1069 31.0065 29.0544 30.781 29.0469 30.5518C29.0395 30.3226 29.0773 30.0941 29.1581 29.8795C29.2389 29.6648 29.3612 29.4682 29.5181 29.3009C29.6749 29.1335 29.8631 28.9987 30.072 28.9041C30.281 28.8095 30.5065 28.7569 30.7357 28.7495C30.9649 28.742 31.1934 28.7798 31.408 28.8606C31.6227 28.9414 31.8193 29.0638 31.9866 29.2206L37.5104 34.3882C37.7674 34.6273 37.9463 34.9384 38.0237 35.2808C38.1012 35.6231 38.0737 35.9809 37.9448 36.3074C37.8158 36.6339 37.5915 36.9139 37.301 37.111C37.0105 37.308 36.6673 37.4129 36.3163 37.412Z" fill="#FFC907"/>
  <path d="M63.6348 37.412C63.2838 37.4129 62.9406 37.308 62.6501 37.111C62.3596 36.9139 62.1353 36.6339 62.0063 36.3074C61.8774 35.9809 61.8499 35.6231 61.9273 35.2808C62.0048 34.9384 62.1837 34.6273 62.4407 34.3882L67.9644 29.2206C68.3024 28.9039 68.7524 28.7344 69.2154 28.7495C69.6783 28.7645 70.1163 28.9629 70.433 29.3009C70.7497 29.6389 70.9192 30.0889 70.9041 30.5518C70.8891 31.0148 70.6907 31.4528 70.3527 31.7695L64.822 36.9371C64.5013 37.241 64.0766 37.4109 63.6348 37.412Z" fill="#FFC907"/>
  <path d="M21.7282 66.0503C21.3303 66.0463 20.9457 65.9064 20.6382 65.654C20.3306 65.4015 20.1185 65.0515 20.037 64.662C19.9555 64.2726 20.0095 63.8669 20.1901 63.5123C20.3707 63.1577 20.667 62.8755 21.0299 62.7123L27.9224 59.5838C28.3418 59.4042 28.8148 59.396 29.2403 59.5608C29.6657 59.7256 30.0097 60.0505 30.1986 60.4657C30.3875 60.881 30.4064 61.3538 30.2511 61.7828C30.0959 62.2118 29.7789 62.563 29.3679 62.7612L22.4475 65.8897C22.2229 65.9966 21.977 66.0515 21.7282 66.0503Z" fill="#FFC907"/>
  <path d="M78.2228 66.0503C77.9811 66.0484 77.7428 65.9936 77.5245 65.8897L70.632 62.7612C70.2211 62.563 69.9041 62.2118 69.7488 61.7828C69.5936 61.3538 69.6124 60.881 69.8014 60.4657C69.9903 60.0505 70.3343 59.7256 70.7597 59.5608C71.1851 59.396 71.6582 59.4042 72.0776 59.5838L78.9701 62.7123C79.333 62.8755 79.6293 63.1577 79.8099 63.5123C79.9904 63.8669 80.0445 64.2726 79.963 64.662C79.8815 65.0515 79.6694 65.4015 79.3618 65.654C79.0542 65.9064 78.6696 66.0463 78.2717 66.0503H78.2228Z" fill="#FFC907"/>
  <rect x="36" y="41" width="27" height="24" fill="#020A45"/>
  <path d="M42.6336 63.1005L48.0839 60.3294C48.0846 60.329 48.0854 60.3286 48.0862 60.3282C48.6754 60.0214 49.3329 59.8612 50 59.8612C50.6671 59.8612 51.3246 60.0214 51.9138 60.3282C51.9146 60.3286 51.9154 60.329 51.9161 60.3294L57.3664 63.1005L56.3349 57.2406C56.2114 56.5851 56.256 55.9101 56.4643 55.2756C56.673 54.6401 57.0392 54.0658 57.5291 53.6026C57.5291 53.6026 57.5291 53.6026 57.5291 53.6026L61.9021 49.468L55.8423 48.6126L42.6336 63.1005ZM42.6336 63.1005L43.6656 57.2376L43.6657 57.2369C43.7786 56.5903 43.7286 55.9269 43.5203 55.3036C43.3119 54.6803 42.9518 54.1167 42.4721 53.6601L42.4709 53.659L38.0979 49.5244L44.1582 48.6689L44.1582 48.6689L44.1608 48.6685C44.8291 48.5706 45.4631 48.3132 46.0058 47.9183C46.5465 47.5248 46.9802 47.0067 47.2669 46.409L49.999 41.0954L52.7212 46.4141C52.7212 46.4142 52.7213 46.4143 52.7214 46.4145C52.7214 46.4145 52.7214 46.4145 52.7214 46.4145C53.0211 47.0014 53.4624 47.5072 54.0061 47.8895C54.5497 48.2719 55.1797 48.5196 55.8418 48.6125L42.6336 63.1005Z" fill="#FFC907" stroke="white"/>
</svg>