<?xml version="1.0" encoding="UTF-8"?>
<svg xmlns="http://www.w3.org/2000/svg" width="100" height="100" viewBox="0 0 100 100" fill="none">
  <rect x="0.5" y="0.5" width="99" height="99" rx="16.0289" fill="white"></rect>
  <rect x="0.5" y="0.5" width="99" height="99" rx="16.0289" stroke="#E3EDFD"></rect>
  <path d="M44.0353 35.7865H39.5707V38.2466C39.5707 38.5579 39.3125 38.8161 39.0012 38.8161H34.6885C34.3771 38.8161 34.119 38.5579 34.119 38.2466V35.7865H26.5337V38.2466C26.5337 38.5579 26.2755 38.8161 25.9642 38.8161H21.6514C21.3401 38.8161 21.0819 38.5579 21.0819 38.2466V35.7865H16.6173V49.0513C16.6173 50.1371 17.4981 51.0179 18.5839 51.0179H42.0688C43.1546 51.0179 44.0353 50.1371 44.0353 49.0513V35.7865Z" fill="#FFC907"></path>
  <path d="M22.9802 26.5003H37.6801V25.0881C37.6801 23.9339 36.7462 23 35.5921 23H25.0683C23.9142 23 22.9802 23.9339 22.9802 25.0881V26.5003Z" fill="#FFC907"></path>
  <path d="M16.4275 34.6476H21.0895V32.6279C21.0895 32.3165 21.3477 32.0584 21.659 32.0584H25.9718C26.2831 32.0584 26.5412 32.3165 26.5412 32.6279V34.6476H34.1266V32.6279C34.1266 32.3165 34.3847 32.0584 34.696 32.0584H39.0088C39.3201 32.0584 39.5783 32.3165 39.5783 32.6279V34.6476H44.2403C45.03 34.6476 45.6678 34.0098 45.6678 33.2201V29.0592C45.6678 28.2695 45.03 27.6317 44.2403 27.6317H16.4275C15.6378 27.6317 15 28.2695 15 29.0592V33.2201C15 34.0098 15.6378 34.6476 16.4275 34.6476Z" fill="#FFC907"></path>
  <path d="M38.4318 33.1973H35.2579V37.6771H38.4318V33.1973Z" fill="#FFC907"></path>
  <path d="M60.5575 76.3479L49.1682 61.1621L37.6725 76.3479H49.1682H60.5575Z" fill="#020A45"></path>
  <path d="M25.3947 33.1973H22.2208V37.6771H25.3947V33.1973Z" fill="#FFC907"></path>
  <path d="M68.7655 51.967C83.1541 47.1911 87.9528 32.5216 80.5649 28.0721C79.2817 27.2976 78.0061 26.9863 76.7988 26.9863C72.319 26.9863 68.7579 31.208 68.7579 31.208C68.7579 31.208 65.1968 26.9863 60.717 26.9863C59.5097 26.9863 58.2417 27.29 56.9509 28.0721C49.563 32.5216 54.3617 47.1835 68.7503 51.967H68.7655Z" fill="#FFC907"></path>
  <path d="M83.3363 54.8903H15V59.7725H83.3363V54.8903Z" fill="#020A45"></path>
</svg>
