<?xml version="1.0" encoding="UTF-8"?>
<svg xmlns="http://www.w3.org/2000/svg" width="49" height="42" viewBox="0 0 49 42" fill="none">
  <path d="M24.2308 33.6163C26.0151 33.6163 27.4615 32.1699 27.4615 30.3856C27.4615 28.6012 26.0151 27.1548 24.2308 27.1548C22.4465 27.1548 21 28.6012 21 30.3856C21 32.1699 22.4465 33.6163 24.2308 33.6163Z" fill="#091135"/>
  <path d="M43.2115 42.0004H5.25C3.85761 42.0004 2.52226 41.4473 1.53769 40.4627C0.553123 39.4781 0 38.1428 0 36.7504V36.0719C0 35.6435 0.170192 35.2326 0.473135 34.9297C0.776079 34.6267 1.18696 34.4565 1.61538 34.4565C2.04381 34.4565 2.45469 34.6267 2.75763 34.9297C3.06058 35.2326 3.23077 35.6435 3.23077 36.0719V36.7504C3.23077 37.2859 3.44351 37.7995 3.82219 38.1782C4.20087 38.5569 4.71447 38.7696 5.25 38.7696H43.2115C43.7471 38.7696 44.2607 38.5569 44.6394 38.1782C45.018 37.7995 45.2308 37.2859 45.2308 36.7504V11.7119C45.2308 11.1764 45.018 10.6628 44.6394 10.2841C44.2607 9.90542 43.7471 9.69268 43.2115 9.69268H5.25C4.71447 9.69268 4.20087 9.90542 3.82219 10.2841C3.44351 10.6628 3.23077 11.1764 3.23077 11.7119V26.4927C3.23077 26.9211 3.06058 27.332 2.75763 27.6349C2.45469 27.9379 2.04381 28.1081 1.61538 28.1081C1.18696 28.1081 0.776079 27.9379 0.473135 27.6349C0.170192 27.332 0 26.9211 0 26.4927V11.7119C0 10.3195 0.553123 8.98417 1.53769 7.9996C2.52226 7.01504 3.85761 6.46191 5.25 6.46191H43.2115C44.6039 6.46191 45.9393 7.01504 46.9239 7.9996C47.9084 8.98417 48.4615 10.3195 48.4615 11.7119V36.7504C48.4615 38.1428 47.9084 39.4781 46.9239 40.4627C45.9393 41.4473 44.6039 42.0004 43.2115 42.0004Z" fill="#091135"/>
  <path d="M1.98692 29.1416H1.24385C0.556889 29.1416 0 29.6985 0 30.3854V30.4016C0 31.0886 0.556889 31.6454 1.24385 31.6454H1.98692C2.67388 31.6454 3.23077 31.0886 3.23077 30.4016V30.3854C3.23077 29.6985 2.67388 29.1416 1.98692 29.1416Z" fill="#091135"/>
  <path d="M33.9229 9.69231H14.5383V3.63462C14.5383 2.67066 14.9213 1.74618 15.6029 1.06455C16.2845 0.382932 17.209 0 18.1729 0H30.2883C31.2523 0 32.1768 0.382932 32.8584 1.06455C33.54 1.74618 33.9229 2.67066 33.9229 3.63462V9.69231ZM17.7691 6.46154H30.6922V3.63462C30.6922 3.52751 30.6496 3.42479 30.5739 3.34905C30.4982 3.27332 30.3954 3.23077 30.2883 3.23077H18.1729C18.0658 3.23077 17.9631 3.27332 17.8874 3.34905C17.8116 3.42479 17.7691 3.52751 17.7691 3.63462V6.46154Z" fill="#091135"/>
</svg>