<?xml version="1.0" encoding="UTF-8"?>
<svg xmlns="http://www.w3.org/2000/svg" width="34" height="34" viewBox="0 0 34 34" fill="none">
  <path d="M16.9313 5.99756C10.8751 5.99756 5.94873 10.9434 5.94873 17.0192C5.94873 23.0949 10.8751 28.0407 16.9313 28.0407C22.9874 28.0407 27.9138 23.0949 27.9138 17.0192C27.9138 10.9434 22.9874 5.99756 16.9313 5.99756ZM22.4013 15.6451L17.1755 20.8873C16.4884 21.5776 15.3749 21.5776 14.6879 20.8873L11.4579 17.6476C10.3574 16.5438 11.1421 14.639 12.7017 14.639C13.6557 14.639 13.9194 15.1274 15.9317 17.1494L19.9105 13.1575C20.2426 12.8254 20.6854 12.6398 21.1543 12.6398C22.7172 12.6398 23.4986 14.5446 22.3981 15.6484L22.4013 15.6451Z" fill="#020A45"/>
  <rect x="10.1587" y="12.2057" width="14.1094" height="10.1587" fill="#020A45"/>
  <path d="M30.9679 12.5747C30.3981 10.8198 31.4758 8.3289 30.6293 7.16325C29.773 5.98458 27.077 6.24831 25.602 5.17057C24.1433 4.10586 23.5637 1.44244 22.1637 0.986601C20.8287 0.553552 18.7937 2.34436 16.9312 2.34436C15.0688 2.34436 13.0371 0.550296 11.6988 0.986601C10.302 1.44244 9.72244 4.1026 8.2605 5.17057C6.78552 6.24831 4.08955 5.98458 3.23322 7.16325C2.38991 8.32565 3.46439 10.823 2.89459 12.5747C2.34433 14.2776 0 15.6419 0 17.1527C0 18.6635 2.34433 20.0277 2.89459 21.7306C3.46439 23.4856 2.38666 25.9765 3.23322 27.1421C4.08955 28.3208 6.78552 28.0571 8.2605 29.1348C9.71919 30.1995 10.2988 32.8629 11.6988 33.3188C13.0306 33.7518 15.0688 31.961 16.9312 31.961C18.7937 31.961 20.8287 33.7551 22.1637 33.3188C23.5605 32.8629 24.1401 30.2028 25.602 29.1348C27.077 28.0571 29.773 28.3208 30.6293 27.1421C31.4726 25.9797 30.3981 23.4824 30.9679 21.7306C31.5182 20.0277 33.8625 18.6635 33.8625 17.1527C33.8625 15.6419 31.5182 14.2776 30.9679 12.5747ZM16.9312 29.1511C10.3378 29.1511 4.97193 23.7689 4.97193 17.1527C4.97193 10.5365 10.3378 5.15429 16.9312 5.15429C23.5247 5.15429 28.8906 10.5365 28.8906 17.1527C28.8906 23.7689 23.5247 29.1511 16.9312 29.1511Z" fill="#FFC907"/>
  <path d="M21.7395 13.5324C21.2653 13.5324 21.4938 13.432 16.5546 18.3919C16.3608 18.5857 16.0147 18.5857 15.8209 18.3919L13.3426 15.9068C13.0173 15.5814 12.4947 15.5814 12.1693 15.9068C11.844 16.2321 11.844 16.7651 12.1693 17.0905L15.6028 20.5344C15.9178 20.8493 16.4646 20.8493 16.7761 20.5344L22.3314 14.9618C22.854 14.4357 22.4802 13.5358 21.743 13.5358L21.7395 13.5324Z" fill="#FFC907"/>
</svg>