<?xml version="1.0" encoding="UTF-8"?>
<svg xmlns="http://www.w3.org/2000/svg" width="159" height="70" viewBox="0 0 159 70" fill="none">
  <g clip-path="url(#clip0_17370_9028)">
    <path d="M63.9618 26.571V38.386H62.4441L56.9513 29.3807V38.386H55.3613V26.571H56.8791L62.2995 35.5764V26.571H63.9618Z" fill="#585758"/>
    <path d="M74.5858 30.3893V38.386H73.0681V37.0892C72.5622 38.0258 71.3335 38.5301 70.1772 38.5301C68.009 38.5301 66.1299 36.8731 66.1299 34.3516C66.1299 31.8301 67.9367 30.1732 70.1772 30.1732C71.4058 30.1732 72.4899 30.6775 73.0681 31.614V30.3893H74.5858ZM73.1403 34.3516C73.1403 32.6226 71.6949 31.614 70.394 31.614C68.9485 31.614 67.7922 32.7667 67.7922 34.3516C67.7922 35.9366 68.9485 37.1613 70.394 37.1613C71.8394 37.1613 73.1403 36.0806 73.1403 34.3516Z" fill="#585758"/>
    <path d="M81.0903 31.6861H79.3558V38.386H77.838V31.6861H76.3926V30.3893H77.838V27.3635H79.3558V30.3893H81.0903V31.6861Z" fill="#585758"/>
    <path d="M90.0525 30.3893V38.386H88.5348V37.1613C88.0289 38.1699 86.7279 38.6021 85.8607 38.6021C83.837 38.6021 82.6084 37.3054 82.6084 35.072V30.4613H84.1261V35C84.1261 36.3688 84.9211 37.1613 86.0775 37.1613C87.1616 37.1613 88.5348 36.5129 88.5348 34.7839V30.4613H90.0525V30.3893Z" fill="#585758"/>
    <path d="M97.7857 30.5334L97.5688 31.9742C97.1352 31.7581 96.7016 31.686 96.4125 31.686C94.8225 31.686 94.172 33.4151 94.172 35.5043V38.4581H92.6543V30.3893H94.172V32.1903C94.6057 30.7495 95.3284 30.1732 96.4125 30.1732C96.9907 30.2452 97.5688 30.3893 97.7857 30.5334Z" fill="#585758"/>
    <path d="M106.891 30.3893V38.386H105.374V37.0892C104.868 38.0258 103.639 38.5301 102.483 38.5301C100.315 38.5301 98.4355 36.8731 98.4355 34.3516C98.4355 31.8301 100.242 30.1732 102.483 30.1732C103.711 30.1732 104.796 30.6775 105.374 31.614V30.3893H106.891ZM105.446 34.3516C105.446 32.6226 104.001 31.614 102.7 31.614C101.254 31.614 100.098 32.7667 100.098 34.3516C100.098 35.9366 101.254 37.1613 102.7 37.1613C104.145 37.1613 105.446 36.0806 105.446 34.3516Z" fill="#585758"/>
    <path d="M109.566 25.9947H111.084V38.386H109.566V25.9947Z" fill="#585758"/>
    <path d="M129.802 30.3893L126.839 38.386H125.61L123.37 32.4065L121.202 38.386H119.973L116.938 30.3893H118.527L120.551 36.0806L122.575 30.3893H124.02L126.116 36.0806L128.14 30.3893H129.802Z" fill="#585758"/>
    <path d="M130.67 34.3517C130.67 31.8302 132.549 30.1732 134.862 30.1732C137.174 30.1732 139.054 31.7582 139.054 34.3517C139.054 36.8732 137.102 38.5302 134.862 38.5302C132.621 38.5302 130.67 36.9452 130.67 34.3517ZM137.608 34.3517C137.608 32.6947 136.379 31.6141 134.862 31.6141C133.416 31.6141 132.188 32.6947 132.188 34.3517C132.188 36.0087 133.416 37.1613 134.862 37.1613C136.379 37.1613 137.608 36.0087 137.608 34.3517Z" fill="#585758"/>
    <path d="M140.644 34.3517C140.644 31.8302 142.523 30.1732 144.835 30.1732C147.148 30.1732 149.027 31.7582 149.027 34.3517C149.027 36.8732 147.076 38.5302 144.835 38.5302C142.595 38.5302 140.644 36.9452 140.644 34.3517ZM147.582 34.3517C147.582 32.6947 146.353 31.6141 144.835 31.6141C143.39 31.6141 142.161 32.6947 142.161 34.3517C142.161 36.0087 143.39 37.1613 144.835 37.1613C146.353 37.1613 147.582 36.0087 147.582 34.3517Z" fill="#585758"/>
    <path d="M159.001 25.9947V38.386H157.483V37.0892C156.977 38.0258 155.749 38.5301 154.592 38.5301C152.424 38.5301 150.545 36.8731 150.545 34.3516C150.545 31.8301 152.352 30.1732 154.592 30.1732C155.821 30.1732 156.905 30.6775 157.483 31.614V25.9947H159.001ZM157.483 34.3516C157.483 32.6226 156.038 31.614 154.737 31.614C153.291 31.614 152.135 32.7667 152.135 34.3516C152.135 35.9366 153.291 37.1613 154.737 37.1613C156.182 37.1613 157.483 36.0807 157.483 34.3516Z" fill="#585758"/>
    <path d="M67.3587 56.1085L66.2746 47.1032L62.5164 54.8117H61.1432L57.3128 47.1032L56.2287 56.1085H54.7109L56.1564 44.2935H57.6018L61.8659 53.0827L66.0578 44.2935H67.5032L68.9487 56.1085H67.3587Z" fill="#585758"/>
    <path d="M79.0672 48.0397V56.0365H77.5495V54.7397C77.0436 55.6762 75.815 56.1805 74.6586 56.1805C72.4904 56.1805 70.6113 54.5236 70.6113 52.0021C70.6113 49.4806 72.4182 47.8236 74.6586 47.8236C75.8872 47.8236 76.9713 48.3279 77.5495 49.2645V48.0397H79.0672ZM77.5495 52.0741C77.5495 50.3451 76.1041 49.3365 74.8031 49.3365C73.3577 49.3365 72.2013 50.4892 72.2013 52.0741C72.2013 53.6591 73.3577 54.8838 74.8031 54.8838C76.2486 54.8117 77.5495 53.7311 77.5495 52.0741Z" fill="#585758"/>
    <path d="M89.4745 43.7172V56.1085H87.9567V54.8117C87.4508 55.7483 86.2222 56.2526 85.0658 56.2526C82.8976 56.2526 81.0186 54.5956 81.0186 52.0741C81.0186 49.5526 82.8254 47.8956 85.0658 47.8956C86.2945 47.8956 87.3786 48.3999 87.9567 49.3365V43.7172H89.4745ZM88.029 52.0741C88.029 50.3451 86.5836 49.3365 85.2826 49.3365C83.8372 49.3365 82.6808 50.4892 82.6808 52.0741C82.6808 53.659 83.8372 54.8838 85.2826 54.8838C86.7281 54.8117 88.029 53.7311 88.029 52.0741Z" fill="#585758"/>
    <path d="M99.6639 52.7225H93.0871C93.3039 54.1633 94.3157 54.8838 95.6889 54.8838C96.7007 54.8838 97.568 54.4515 98.0016 53.659L99.3025 54.1633C98.5798 55.5321 97.1343 56.2526 95.6166 56.2526C93.3039 56.2526 91.4971 54.5956 91.4971 52.0741C91.4971 49.5526 93.3039 47.8956 95.6166 47.8956C97.9293 47.8956 99.5916 49.4806 99.5916 52.0741C99.6639 52.2902 99.6639 52.5064 99.6639 52.7225ZM98.2184 51.4257C98.0016 50.0569 97.0621 49.2644 95.6889 49.2644C94.3157 49.2644 93.3762 49.9849 93.1593 51.4257H98.2184Z" fill="#585758"/>
    <path d="M109.927 49.3365H108.193V56.0364H106.675V49.3365H105.229V48.0397H106.675V45.0139H108.193V48.0397H109.927V49.3365Z" fill="#585758"/>
    <path d="M110.867 52.0741C110.867 49.5526 112.746 47.8956 115.059 47.8956C117.372 47.8956 119.251 49.4806 119.251 52.0741C119.251 54.5956 117.299 56.2526 115.059 56.2526C112.819 56.2526 110.867 54.5956 110.867 52.0741ZM117.805 52.0741C117.805 50.4171 116.577 49.3365 115.059 49.3365C113.614 49.3365 112.385 50.4171 112.385 52.0741C112.385 53.7311 113.614 54.8838 115.059 54.8838C116.577 54.8117 117.805 53.7311 117.805 52.0741Z" fill="#585758"/>
    <path d="M125.755 43.7172H127.273V56.1085H125.755V43.7172Z" fill="#585758"/>
    <path d="M137.681 48.0397V56.0365H136.163V54.7397C135.657 55.6762 134.428 56.1805 133.272 56.1805C131.104 56.1805 129.225 54.5236 129.225 52.0021C129.225 49.4806 131.031 47.8236 133.272 47.8236C134.501 47.8236 135.585 48.3279 136.163 49.2645V48.0397H137.681ZM136.163 52.0741C136.163 50.3451 134.717 49.3365 133.416 49.3365C131.971 49.3365 130.815 50.4892 130.815 52.0741C130.815 53.6591 131.971 54.8838 133.416 54.8838C134.862 54.8117 136.163 53.7311 136.163 52.0741Z" fill="#585758"/>
    <path d="M139.631 53.6591H141.004C141.004 54.3795 141.655 54.8838 142.594 54.8838C143.606 54.8838 144.184 54.4515 144.184 53.8031C144.184 53.2268 143.75 52.8666 143.1 52.7225L142.016 52.4343C140.643 52.0741 139.92 51.4257 139.92 50.129C139.92 48.8322 141.076 47.8236 142.666 47.8236C144.039 47.8236 145.413 48.544 145.413 50.129H143.967C143.967 49.4806 143.317 49.1204 142.666 49.1204C141.871 49.1204 141.365 49.5526 141.365 50.201C141.365 50.7774 141.871 51.0655 142.377 51.1376L143.534 51.4257C145.196 51.858 145.629 52.8666 145.629 53.7311C145.629 55.244 144.184 56.1085 142.522 56.1085C141.221 56.2526 139.703 55.316 139.631 53.6591Z" fill="#585758"/>
    <path d="M151.628 49.3365H149.894V56.0364H148.376V49.3365H146.931V48.0397H148.376V45.0139H149.894V48.0397H151.628V49.3365Z" fill="#585758"/>
    <path d="M3.25227 21.1679L4.55318 20.0152L9.82909 27.1474H13.8041L7.01045 17.8539L12.4309 12.883H8.09455L3.25227 17.2776V9.85718H0V24.5539H3.25227V21.1679Z" fill="#F7A400"/>
    <path d="M24.5002 18.8625C24.5002 14.8281 22.332 12.955 18.8629 12.955C14.7434 12.955 12.792 15.3324 12.792 19.3668C12.792 23.7614 14.8879 26.0668 19.6579 26.0668C21.3924 26.0668 22.9824 25.7066 24.1388 25.2743L23.7774 22.6808C22.6211 23.113 21.3924 23.2571 20.0915 23.2571C17.7788 23.2571 16.6224 22.4646 16.4779 20.3754H24.5002C24.5002 19.9431 24.5002 19.2948 24.5002 18.8625ZM16.3334 18.2141C16.4779 16.341 17.1284 15.6206 18.8629 15.6206C20.3084 15.6206 21.2479 16.341 21.2479 18.2141H16.3334Z" fill="#F7A400"/>
    <path d="M6.57682 43.357C4.91455 43.357 0 43.357 0 43.357V56.2526H3.25227V46.2387C3.39682 46.1667 5.70955 46.0946 6.50455 46.2387C7.22727 46.3828 7.73318 47.0312 7.73318 48.5441V56.2526H10.9855V48.1838C10.9132 44.7258 9.25091 43.357 6.57682 43.357Z" fill="#F7A400"/>
    <path d="M18.6461 28.5883C14.5988 28.5883 12.792 30.6054 12.792 35.2882C12.792 39.971 14.5988 41.9161 18.6461 41.9161C22.6934 41.9161 24.5002 39.971 24.5002 35.2882C24.5002 30.6054 22.6934 28.5883 18.6461 28.5883ZM18.6461 39.2506C16.8393 39.2506 16.1888 38.4581 16.1888 35.2882C16.1888 32.1183 16.8393 31.3259 18.6461 31.3259C20.4529 31.3259 21.1034 32.1183 21.1034 35.2882C21.1034 38.386 20.4529 39.2506 18.6461 39.2506Z" fill="#F7A400"/>
    <path d="M6.28773 28.7323C4.69773 28.7323 3.25227 29.2366 3.25227 29.2366V26.1388H0V41.9161C0 41.9161 3.975 41.9161 6.21546 41.9161C9.46773 41.9161 11.2023 39.971 11.2023 35.4323C11.13 30.6775 9.25091 28.7323 6.28773 28.7323ZM6.28773 39.1065C5.49273 39.2505 3.75818 39.2505 3.25227 39.1065V31.9742C3.25227 31.9742 3.90273 31.614 5.49273 31.614C7.37182 31.614 7.80545 32.6947 7.80545 35.5764C7.80545 38.386 7.01045 38.9624 6.28773 39.1065Z" fill="#F7A400"/>
    <path d="M20.5976 47.5355L19.2244 52.1462H19.1521L15.3939 43.357H11.6357L17.5621 56.2526L17.4898 56.3967C17.0562 57.3333 16.1889 57.4053 15.683 57.4053C15.3217 57.4053 14.5989 57.2612 14.1653 57.0451L13.9485 59.7107C14.5989 59.9988 15.3217 60.1429 16.1167 60.1429C18.3571 60.1429 19.8748 59.0623 20.8144 56.4687L23.8498 47.5355H20.5976Z" fill="#F7A400"/>
    <path d="M23.9944 45.9505C23.7053 46.2387 23.3439 46.3828 22.9103 46.3828C22.4767 46.3828 22.1153 46.2387 21.8262 45.9505C21.5371 45.6624 21.3926 45.3021 21.3926 44.8699C21.3926 44.4376 21.5371 44.0774 21.8985 43.7892C22.1876 43.5011 22.5489 43.357 22.9103 43.357C23.3439 43.357 23.7053 43.5011 23.9944 43.7892C24.2835 44.0774 24.428 44.4376 24.428 44.8699C24.5003 45.3021 24.2835 45.6624 23.9944 45.9505ZM22.043 44.0054C21.8262 44.2215 21.6817 44.5097 21.6817 44.8699C21.6817 45.2301 21.8262 45.5183 22.043 45.7344C22.2599 45.9505 22.5489 46.0946 22.9103 46.0946C23.2717 46.0946 23.5608 45.9505 23.7776 45.7344C23.9944 45.5183 24.1389 45.1581 24.1389 44.8699C24.1389 44.5097 23.9944 44.2215 23.7776 44.0054C23.5608 43.7893 23.2717 43.6452 22.9103 43.6452C22.6212 43.6452 22.3321 43.7172 22.043 44.0054ZM22.3321 45.7344V44.0774C22.4044 44.0774 22.6212 44.0774 22.7658 44.0774C22.9826 44.0774 23.0549 44.0774 23.1271 44.0774C23.2717 44.0774 23.3439 44.1495 23.4885 44.1495C23.633 44.2215 23.7053 44.3656 23.7053 44.5817C23.7053 44.7258 23.633 44.7978 23.5608 44.8699C23.4885 44.9419 23.4162 44.9419 23.2717 45.014C23.3439 45.014 23.4885 45.086 23.4885 45.086C23.5608 45.1581 23.633 45.3021 23.633 45.4462V45.5903C23.633 45.5903 23.633 45.5903 23.633 45.6624C23.633 45.6624 23.633 45.6624 23.633 45.7344V45.8064H23.1994C23.1994 45.7344 23.1994 45.6624 23.1994 45.5903C23.1994 45.5183 23.1994 45.4462 23.1994 45.3742C23.1994 45.3021 23.1271 45.3021 23.0549 45.2301C23.0549 45.2301 22.9826 45.2301 22.9103 45.2301H22.838H22.7658V45.8064H22.3321V45.7344ZM23.1271 44.3656C23.0549 44.3656 22.9826 44.3656 22.838 44.3656H22.7658V44.8699H22.9103C22.9826 44.8699 23.1271 44.8699 23.1271 44.7978C23.1994 44.7258 23.1994 44.7258 23.1994 44.5817C23.1994 44.4376 23.1994 44.4376 23.1271 44.3656Z" fill="#F7A400"/>
    <path d="M39.9669 9.85718H39.3164V60.1429H39.9669V9.85718Z" fill="#585758"/>
  </g>
  <defs>
    <clipPath id="clip0_17370_9028">
      <rect width="159" height="70" fill="white"/>
    </clipPath>
  </defs>
</svg>