<?xml version="1.0" encoding="UTF-8"?>
<svg xmlns="http://www.w3.org/2000/svg" width="184" height="70" viewBox="0 0 184 70" fill="none">
  <path d="M135.853 34.5262H129.351V38.2664H134.015C132.682 40.5676 130.705 41.7302 128.157 41.7302C124.522 41.7302 121.802 39.0264 121.802 35.3854C121.802 31.6723 124.495 28.9836 128.157 28.9836C130.822 28.9836 132.709 30.1492 133.596 32.3362H138.594C137.391 27.9321 133.819 25.5768 128.364 25.5768C124.841 25.5768 121.983 26.5442 119.955 28.4578C118.971 29.3812 118.192 30.4995 117.666 31.7411C117.141 32.9827 116.881 34.3201 116.904 35.6678C116.904 41.4328 121.176 45.3382 127.477 45.3382C130.389 45.3382 132.333 44.6743 134.941 42.7606L134.972 44.7013H138.522V37.0858L135.853 34.5262Z" fill="#5B5E66"/>
  <path d="M72.5303 44.6953V26.2137H89.4578V29.9539H77.1638V33.0842H88.0436V36.8153H77.1638V40.9551H89.4578V44.6953H72.5303Z" fill="#5B5E66"/>
  <path d="M143.077 44.6953V26.2137H160.008V29.9539H147.714V33.0842H158.591V36.8153H147.714V40.9551H160.008V44.6953H143.077Z" fill="#5B5E66"/>
  <path d="M63.2626 26.2137V31.8645C63.2626 36.2986 63.3198 38.738 63.4041 39.7895C62.2637 38.017 59.6822 34.412 57.9341 32.1138L53.4389 26.2137H47.8877V44.6953H52.4009V39.1255L52.2625 31.0744H54.6695L53.2193 32.5254C54.2453 34.0696 55.5872 35.9622 57.4136 38.3895L62.1855 44.6983H67.7939V26.2137H63.2626Z" fill="#5B5E66"/>
  <path d="M115.619 26.2137H111.172L104.932 32.5615L98.8394 26.2137H94.0645V28.644L101.547 35.5656L94.0645 42.7756V44.6953H98.7612L104.863 38.6809L110.577 44.6953H115.619V42.5923L109.506 36.7012H106.963L115.619 28.4037V26.2137Z" fill="#5B5E66"/>
  <path d="M179.504 26.2138V31.7835L179.642 39.8196H177.253L178.704 38.3716C177.678 36.8274 176.336 34.9318 174.509 32.5075L169.734 26.1987H164.129V44.6953H168.624V39.0415C168.624 34.6074 168.57 32.171 168.486 31.1165C169.623 32.892 172.205 36.494 173.953 38.7922L178.448 44.6953H183.999V26.2138H179.504Z" fill="#5B5E66"/>
  <path d="M1.91961 20.8784H7.69049L26.7332 38.5909L26.7392 36.0704L8.48481 19.0909H0V26.8176L1.91961 25.0301V20.8784Z" fill="#5B5E66"/>
  <path d="M1.91961 42.2861L0 44.0735V51.8183H8.43968L10.3593 50.0308H1.91961V42.2861Z" fill="#5B5E66"/>
  <path d="M26.7458 19.0909L24.8262 20.8784H33.2658V28.6141L35.1855 26.8266V19.0909H26.7458Z" fill="#5B5E66"/>
  <path d="M33.265 50.0307H27.5122L8.43945 32.2911V34.8146L26.7179 51.8181L26.745 51.7911V51.8181H35.1847V44.0824L33.265 45.8699V50.0307Z" fill="#5B5E66"/>
</svg>