<?xml version="1.0" encoding="UTF-8"?>
<svg xmlns="http://www.w3.org/2000/svg" width="92" height="70" viewBox="0 0 92 70" fill="none">
  <path fill-rule="evenodd" clip-rule="evenodd" d="M20.84 22.311C20.84 17.52 16.9868 13.6364 12.2335 13.6364C7.48103 13.6364 3.62695 17.52 3.62695 22.311C3.62695 27.1019 7.48103 30.9855 12.2335 30.9855C16.9868 30.9855 20.84 27.1019 20.84 22.311Z" fill="#42B7BA"/>
  <mask id="mask0_16819_3064" style="mask-type:luminance" maskUnits="userSpaceOnUse" x="24" y="10" width="13" height="25">
    <path d="M24.5791 10.6047H36.7064V34.018H24.5791V10.6047Z" fill="white"/>
  </mask>
  <g mask="url(#mask0_16819_3064)">
    <path fill-rule="evenodd" clip-rule="evenodd" d="M24.5791 11.3228V33.3019C24.5791 33.9383 25.3431 34.2574 25.7886 33.8074L36.3587 23.1546C36.8223 22.6874 36.8223 21.9301 36.3587 21.4628L25.794 10.8155C25.3458 10.3628 24.5791 10.6837 24.5791 11.3228Z" fill="#5D2B83"/>
  </g>
  <mask id="mask1_16819_3064" style="mask-type:luminance" maskUnits="userSpaceOnUse" x="0" y="35" width="25" height="25">
    <path d="M0.00195312 35.0252H24.468V59.6863H0.00195312V35.0252Z" fill="white"/>
  </mask>
  <g mask="url(#mask1_16819_3064)">
    <path fill-rule="evenodd" clip-rule="evenodd" d="M24.4678 59.2198V35.9707C24.4678 35.4488 24.0475 35.0252 23.5298 35.0252H0.463051C0.050855 35.0252 -0.154792 35.5261 0.136541 35.8198L23.6795 59.5488C23.9709 59.8425 24.4678 59.6343 24.4678 59.2198Z" fill="#EC662A"/>
  </g>
  <path fill-rule="evenodd" clip-rule="evenodd" d="M43.626 59.1585C43.488 59.4721 43.1417 59.6812 42.7962 59.6812C42.4508 59.6812 42.1053 59.4721 41.9673 59.1585L31.3603 35.583C31.2565 35.3385 31.4631 35.0248 31.74 35.0248H36.6818C37.0607 35.0248 37.4061 35.2694 37.545 35.6176L42.8314 48.8503L48.1178 35.6176C48.2558 35.2694 48.6012 35.0248 48.981 35.0248H53.9219C54.1988 35.0248 54.4054 35.3385 54.2674 35.583L43.626 59.1585Z" fill="#1B2944"/>
  <path fill-rule="evenodd" clip-rule="evenodd" d="M65.2889 58.7749C65.2889 59.1249 65.012 59.4013 64.6674 59.4013H60.3822C60.0367 59.4013 59.7607 59.1249 59.7607 58.7749V35.6513C59.7607 35.304 60.0367 35.0249 60.3822 35.0249H64.6674C65.012 35.0249 65.2889 35.304 65.2889 35.6513V58.7749Z" fill="#1B2944"/>
  <path fill-rule="evenodd" clip-rule="evenodd" d="M86.0053 51.9852C86.0053 51.2534 85.6608 49.7225 83.2751 49.6525H79.0954V54.2134H83.2065C85.6256 54.2134 86.0053 52.5416 86.0053 51.9852ZM86.0053 42.4779C86.0053 41.9207 85.6256 40.1798 83.2065 40.1798H79.0954V45.0198H83.2751C85.6608 44.9507 86.0053 43.1407 86.0053 42.4779ZM91.6029 51.9852C91.6029 55.2934 89.5645 59.4034 82.8611 59.4034H74.223C73.8776 59.4034 73.6016 59.1243 73.6016 58.7761V35.6534C73.6016 35.3034 73.8776 35.0252 74.223 35.0252H82.8611C89.5645 35.0252 91.6029 39.1688 91.6029 42.4779C91.6029 44.1488 90.3239 46.4134 88.4929 47.1788C90.2905 47.8752 91.6029 49.7907 91.6029 51.9852Z" fill="#1B2944"/>
</svg>